<svg width="180" height="430" viewBox="0 0 180 430" fill="none" xmlns="http://www.w3.org/2000/svg">
<path d="M160.359 114.214C159.89 112.875 159.415 111.541 158.925 110.207C158.788 109.84 158.54 108.532 158.229 108.327C158.166 108.285 157.924 108.459 157.834 108.406C157.622 108.319 157.439 108.173 157.307 107.986C156.953 107.4 156.815 106.709 156.917 106.033C157.014 105.778 157.043 105.503 157.001 105.234C156.876 104.852 156.698 104.488 156.474 104.153C155.91 103.024 155.273 101.926 154.693 100.802C153.486 98.4604 152.553 95.9819 151.093 93.7712C149.771 91.8817 148.228 90.1559 146.497 88.6302C142.769 85.1727 138.565 82.2638 134.011 79.9921C131.896 79.0315 129.713 78.2259 127.481 77.5818C126.942 77.4449 126.413 77.2694 125.899 77.0567C125.42 76.8151 125.267 76.416 124.882 76.0064C124.239 75.3343 123.87 75.4813 123.955 76.4685C123.306 76.29 120.075 75.1452 119.543 76.0694C119.074 76.8834 121.467 77.8233 121.894 78.0229C122.711 78.4062 124.171 78.7213 124.598 79.4407C125.162 80.3754 125.42 81.7407 125.81 82.7699C126.571 84.7666 127.451 86.7165 128.445 88.6092C129.441 90.5364 130.195 92.6001 131.333 94.4538C132.472 96.3075 133.969 97.7515 135.334 99.3426C135.697 99.7627 136.045 100.188 136.388 100.634C136.51 100.83 136.644 101.017 136.789 101.196C137.242 101.648 136.862 101.38 137.316 101.391C137.911 101.391 138.296 101.034 138.897 101.349C139.119 101.433 139.3 101.602 139.398 101.818C139.497 102.035 139.506 102.281 139.424 102.504C139.281 103.202 139.134 103.943 139.64 104.536C139.872 104.814 140.373 104.893 140.552 105.182C140.873 105.707 140.299 105.781 140.235 106.169C140.162 106.663 141.764 108.128 142.138 108.569C142.997 109.582 143.856 110.596 144.731 111.588C146.286 113.348 148.126 114.802 149.723 116.514C152.885 119.917 155.921 123.451 159.167 126.77C160.222 127.82 161.55 128.98 163.057 127.82C164.18 126.959 163.98 125.719 163.632 124.569C162.667 121.098 161.566 117.638 160.359 114.214ZM157.571 121.093C155.425 118.704 153.438 116.146 151.214 113.831C149.069 111.594 146.961 109.441 145.016 107.004C144.953 107.408 144.71 108.212 144.13 108.054C143.551 107.897 143.635 106.973 143.635 106.605C143.635 105.66 143.804 105.513 143.224 104.767C142.829 104.242 142.444 103.717 142.085 103.192C140.346 100.566 138.828 98.0141 136.741 95.6563C134.654 93.2985 133.579 90.82 132.161 88.1471C130.743 85.4743 129.257 82.896 127.749 80.3597C129.23 80.8848 130.385 82.1766 131.565 83.2425C132.746 84.3085 133.837 85.5426 135.049 86.6033C137.721 89.0231 140.168 91.6787 142.36 94.5378C146.508 99.789 150.012 105.655 153.222 111.494C155.236 115.17 156.822 119.024 158.92 122.632C158.472 122.133 158.029 121.608 157.571 121.088V121.093ZM160.649 124.653C160.365 124.379 160.104 124.082 159.868 123.766C159.719 123.538 159.615 123.283 159.563 123.015C158.921 121.397 158.181 119.819 157.349 118.289C155.826 115.206 154.15 112.224 152.558 109.183C151.736 107.608 150.708 106.148 149.796 104.631C148.711 102.824 147.63 101.013 146.455 99.2639C145.279 97.5152 144.22 95.8244 142.976 94.1912C141.732 92.5581 140.272 91.0143 138.96 89.4022C137.648 87.7901 136.23 86.6506 134.859 85.2012C133.386 83.6499 131.729 82.2817 129.926 81.1263C133.742 82.5074 137.305 84.6341 140.694 86.9026C143.654 88.8458 146.331 91.1872 148.647 93.8604C150.808 96.6488 152.089 99.9465 153.755 103.029C154.758 104.87 155.616 106.785 156.321 108.758C158.277 114.261 159.937 119.848 161.423 125.488C161.16 125.205 160.907 124.932 160.633 124.648L160.649 124.653Z" fill="#75645D"/>
<path d="M155.637 169.278C155.7 168.8 155.969 168.322 155.874 167.829C155.758 167.251 155.394 166.778 155.305 166.148C155.256 165.495 155.174 164.845 155.057 164.2C154.851 163.423 154.646 162.625 154.409 161.879C153.439 158.313 151.109 154.916 148.484 152.338C147.225 151.104 145.47 149.938 143.614 150.132C143.188 150.174 142.081 150.395 142.36 151.03C142.465 151.282 143.072 151.377 143.293 151.455C143.91 151.681 143.852 151.907 144.031 152.506C146.139 159.579 148.247 166.71 149.301 174.035C149.976 178.641 150.25 183.251 150.624 187.878C151.046 187.547 151.072 187.599 151.051 187.058C151.051 186.88 151.051 186.707 151.051 186.533C151.051 186.061 150.999 185.588 150.977 185.121C150.883 183.398 150.761 181.681 150.63 179.959C150.398 176.413 149.924 172.886 149.212 169.404C147.921 163.528 146.903 157.489 144.421 151.954C146.002 152.852 146.972 154.312 148.021 155.719C149.08 157.052 150.027 158.469 150.851 159.957C152.406 162.982 153.291 166.626 153.971 169.934C154.688 173.468 155.236 177.076 154.894 180.678C154.714 182.553 154.472 184.401 154.424 186.281C154.417 187.793 154.264 189.3 153.966 190.781C153.116 194.562 152.06 198.294 150.804 201.961C151.055 199.796 151.195 197.619 151.225 195.439C151.252 193.397 151.378 191.301 151.225 189.269C150.603 189.968 150.756 190.845 150.724 191.748C150.693 192.651 150.698 193.47 150.682 194.337C150.658 195.88 150.58 197.422 150.45 198.963C150.324 200.491 150.087 202.008 149.981 203.537C149.871 205.154 149.138 206.761 148.548 208.263C147.33 204.261 146.413 200.171 145.106 196.185C144.55 194.414 144.128 192.604 143.841 190.771C143.72 190.073 143.783 190.094 143.177 189.863C142.991 189.805 142.819 189.71 142.671 189.585C142.522 189.459 142.4 189.306 142.313 189.133C141.981 188.319 142.703 187.61 143.43 188.082C143.04 185.504 143.393 182.905 143.035 180.326C142.761 178.336 142.191 176.414 142.281 174.387C142.386 171.961 142.682 169.577 142.729 167.146C142.776 164.83 142.84 162.535 142.729 160.225C142.697 159.542 142.792 158.124 142.323 157.599C141.685 156.848 141.232 158.408 141.053 158.907C140.357 160.85 140.199 162.882 139.851 164.862C139.456 167.12 139.293 169.43 138.997 171.72C138.666 173.82 138.696 175.962 139.087 178.053C139.551 180.2 139.816 182.385 139.878 184.58C139.965 186.841 140.254 189.091 140.742 191.301C141.247 193.716 141.923 196.092 142.766 198.411C143.541 200.606 144.062 202.896 144.784 205.112C145.175 206.302 145.575 207.491 145.986 208.677C146.35 209.728 146.587 210.925 147.768 211.356C149.876 212.127 150.656 209.954 151.157 208.415C152.764 203.458 154.266 198.474 155.373 193.386C155.948 190.659 156.297 187.889 156.417 185.105C156.575 182.322 157.213 179.602 157.107 176.798C157.06 175.558 157.144 173.894 156.728 172.723C156.311 171.552 155.447 170.722 155.637 169.278ZM146.403 207.795C146.625 207.982 146.8 208.216 146.917 208.481C147.033 208.746 147.086 209.035 147.072 209.323C146.002 208.893 146.002 208.893 146.403 207.795Z" fill="#75645D"/>
<path d="M40.8412 155.467C40.1086 155.315 38.812 155.42 38.169 155.079C37.9424 154.958 37.642 154.464 37.4417 154.281C37.1736 154.021 36.8903 153.777 36.5931 153.551C36.8408 153.897 36.6353 154.202 36.7987 154.517C36.8988 154.716 37.3257 154.932 37.5207 155.042C36.9515 155.042 36.9093 154.937 36.5931 155.273C36.4034 155.467 36.3454 155.756 36.1188 155.945C35.4125 156.523 35.2702 155.993 35.0646 155.373C35.0602 155.207 35.0443 155.043 35.0172 154.879C34.6154 154.737 34.1977 154.643 33.7733 154.601C33.0671 154.396 32.3819 154.134 31.6651 153.924C28.9982 153.131 26.0097 152.516 23.5484 151.172C22.1253 150.4 20.9131 149.334 19.4531 148.625C18.4478 148.175 17.511 147.586 16.6702 146.876C14.4144 144.897 12.2482 142.308 11.7949 139.252C12.77 139.777 13.7239 140.123 14.7359 140.565C15.653 140.958 16.5174 141.541 17.4134 141.998C19.5216 143.075 21.6035 144.172 23.659 145.385C25.766 146.524 27.8071 147.779 29.7729 149.145C31.6335 150.547 33.4624 151.996 35.286 153.414C35.4547 153.036 35.813 153.083 36.1398 153.225C34.527 152.049 33.0091 150.783 31.3383 149.67C30.0154 148.788 28.6767 147.948 27.359 147.071C25.6144 145.905 23.8435 144.781 22.0884 143.668C21.2552 143.111 20.3873 142.608 19.49 142.161C19.0894 141.972 18.6941 141.788 18.3094 141.578C18.146 141.494 17.9352 141.3 17.7823 141.279C17.6295 141.258 17.5557 141.405 17.2553 141.42C17.6031 140.895 17.1235 140.943 16.686 140.691C16.4541 140.554 16.2117 140.355 15.9639 140.239C15.8216 140.15 15.6741 140.066 15.5265 139.987C15.4162 140.075 15.2859 140.134 15.147 140.16C14.8308 140.16 14.6779 140.16 14.4302 139.934C14.1825 139.709 14.193 139.53 13.9717 139.367C13.7206 139.225 13.4579 139.103 13.1863 139.005C12.8648 138.837 12.5644 138.637 12.2376 138.48C11.8002 138.265 11.7422 138.301 11.7685 137.802C12.4959 137.955 13.2285 138.139 13.94 138.354C13.8023 137.471 13.9403 136.567 14.3353 135.765C12.6171 135.35 9.49691 134.583 9.29136 137.304C9.21757 137.304 8.47443 137.004 8.40064 137.178C8.32685 137.351 9.25973 137.981 9.29136 138.07C9.50218 138.627 9.41259 139.451 9.54963 140.055C9.86315 141.345 10.3981 142.571 11.1308 143.678C12.5493 145.832 14.3667 147.696 16.4857 149.171C17.5399 149.917 18.8154 150.326 19.8958 151.062C20.9552 151.882 22.066 152.635 23.2216 153.314C25.496 154.464 27.8727 155.401 30.3211 156.113C32.1394 156.638 33.7786 157.5 35.7076 157.605C37.4625 157.784 39.233 157.745 40.9783 157.489C41.5053 157.384 42.5594 157.185 42.5594 156.491C42.5594 155.798 41.3735 155.583 40.8412 155.467ZM32.8246 156.486C32.9927 156.411 33.1381 156.293 33.2463 156.145C33.2146 156.276 32.9406 156.428 32.8246 156.486Z" fill="#75645D"/>
<path d="M37.6857 149.859C37.4696 149.407 37.8859 149.507 37.2587 149.439C36.9052 149.43 36.5517 149.46 36.2046 149.528C36.7529 149.407 37.3173 149.377 37.8754 149.439C37.2218 148.467 36.4681 147.606 35.7672 146.682C35.1815 145.785 34.5051 144.951 33.7485 144.193C32.8156 143.384 31.6772 143.048 30.5862 142.491C29.9748 142.171 29.8746 142.008 29.2053 142.313C28.5544 142.578 27.9658 142.975 27.4765 143.478V141.546C27.4765 141.268 27.5134 140.974 27.5239 140.701C27.5239 140.249 27.6662 140.422 27.3764 140.091C26.765 139.398 25.2681 138.962 24.4353 138.584C22.1848 137.581 19.7182 137.161 17.3517 136.484C17.5572 137.277 18.6113 137.996 18.1053 138.863C17.6487 138.888 17.2021 139.006 16.793 139.209C18.3162 139.734 19.8605 140.128 21.3889 140.617C22.5821 141.069 23.7278 141.637 24.8096 142.313C25.9691 142.959 26.7808 143.888 27.798 144.712C28.8152 145.537 30.1171 145.873 31.1712 146.64C32.2253 147.406 32.8314 148.63 33.7327 149.559C34.634 150.489 35.5985 151.45 36.5736 152.337C37.0321 152.752 38.8557 154.611 39.5778 154.081C40.4422 153.44 38.7556 150.883 38.4446 150.342C37.9597 150.757 37.828 150.126 37.6857 149.859Z" fill="#75645D"/>
<path d="M44.7685 35.352C44.6526 34.538 44.5735 33.2988 44.0412 32.6056C42.8764 31.0933 42.6708 35.3047 42.6497 35.7563C42.6948 36.4761 42.6737 37.1986 42.5865 37.9145C42.3412 38.5477 42.0359 39.1561 41.6747 39.7314C40.9631 41.144 40.1778 42.5146 39.4874 43.9324C38.2277 46.558 36.8995 49.2098 35.9034 51.9194C34.8492 54.8128 33.5421 57.6169 32.409 60.4841C31.1282 63.724 29.9581 66.9588 28.8724 70.2617C28.3453 71.8739 27.755 73.4702 27.228 75.0876C26.7747 76.4739 26.5797 77.918 26.1158 79.2885C25.8945 79.9449 23.9075 86.7662 24.5663 86.9395C24.8667 87.0235 26.8959 79.8294 27.112 79.1257C27.5811 77.6081 27.7814 76.0433 28.3031 74.5362C28.8249 73.0291 29.3573 71.354 29.8369 69.7524C30.891 66.2551 32.1296 62.8471 33.4473 59.4391C34.7227 56.1203 35.9034 52.6756 37.4951 49.4934C38.2962 47.8813 39.0025 46.2271 39.8036 44.615C40.6838 42.8506 41.7168 41.1598 42.576 39.3639C42.5496 42.5146 42.8606 45.5812 42.4547 48.7267C42.0805 51.6621 41.7168 54.6133 41.1265 57.5172C40.6803 59.7814 40.087 62.0143 39.3503 64.2019C38.3542 67.069 36.5885 69.4531 34.9915 71.9736C36.3145 72.4672 34.6437 73.2864 34.396 72.9504C33.4826 74.5713 32.4687 76.1339 31.3601 77.6291C30.4746 78.7634 29.5839 79.8977 28.7248 81.0634C26.4901 84.1406 24.619 87.3648 23.7335 91.0721C24.1385 87.1835 24.7472 83.3186 25.5572 79.4933C25.9946 77.3141 26.3372 75.1506 26.6587 72.9556C27.4491 68.3982 28.7961 63.9542 30.6697 59.7227C31.462 57.6934 32.1015 55.6082 32.5829 53.4843C33.1572 51.5821 33.9625 49.7569 34.981 48.0493C35.9719 46.1956 36.7941 44.2737 37.6532 42.357C38.7073 40.0465 39.7246 37.7202 40.5257 35.3205C40.6627 34.9109 41.3637 33.2725 40.8366 32.9469C40.3096 32.6214 39.0552 34.3963 38.8127 34.7008C38.0485 33.9184 35.9771 34.6431 35.1233 34.8636C33.5948 35.2522 32.2034 36.0241 30.6644 36.3759C28.9883 36.7645 27.2912 37.0586 25.6151 37.4524C23.9391 37.8463 22.3157 38.2506 20.6608 38.5552C21.0139 39.3166 19.6067 39.4269 19.7437 38.6865C18.1625 38.8387 16.5339 38.5552 14.9316 38.6865C13.6055 38.8834 12.2574 38.8834 10.9312 38.6865C7.95677 38.134 5.10591 37.0544 2.51407 35.499C4.32716 34.8058 6.16134 34.265 8.03767 33.7504C9.39749 33.3828 10.8206 33.1517 12.1382 32.6529C13.4696 32.1272 14.8478 31.7281 16.2545 31.4608C17.585 31.1824 18.9432 31.0573 20.3024 31.088C21.7122 31.1588 23.1236 30.9811 24.4714 30.5629C25.4989 30.2688 26.5795 30.2078 27.6338 30.3844C29.0522 30.5497 30.4824 30.5919 31.9082 30.5104C32.6514 30.5104 37.7059 30.4579 37.2526 29.0663C37.026 28.3627 35.3763 28.0633 34.8018 27.9216C33.3505 27.5702 31.8737 27.3331 30.385 27.2127C29.3046 27.1234 28.2452 26.9501 27.1647 26.8136C25.8814 26.6766 24.5837 26.8402 23.3751 27.2914C22.1842 27.674 20.9365 27.8515 19.6857 27.8165C18.1789 27.8703 16.683 28.0941 15.2268 28.4834C13.7799 28.8514 12.3689 29.3469 11.0103 29.9643C9.59777 30.5524 8.0482 30.8937 6.59352 31.3821C5.30749 31.8179 3.99512 32.2118 2.75126 32.7579C1.97648 33.0992 0.975055 33.3985 0.437453 34.0917C1.8816 34.538 1.46523 36.3339 0 35.8876C0.305695 37.6152 2.88301 38.4344 4.28499 38.9753C6.77799 39.9257 9.72427 40.7922 12.4175 40.8132C13.5665 40.8132 14.6997 40.5769 15.854 40.5769C17.0082 40.5769 18.0571 40.7397 19.1639 40.7449C21.2722 40.7449 23.4384 40.2198 25.5203 39.8732C27.6022 39.5266 29.9476 39.3166 32.0295 38.739C33.9303 38.175 35.77 37.4239 37.5214 36.4967C35.487 39.6212 33.832 42.9242 31.9873 46.1379C31.1901 47.4343 30.5009 48.7937 29.9265 50.2023C29.215 52.0875 28.9567 54.0776 28.4244 56.0048L31.534 55.4114C31.2741 56.0521 30.8828 56.6316 30.385 57.1128C29.9935 57.4292 29.5835 57.722 29.157 57.9898C28.5509 58.3994 28.1661 58.4729 27.8815 57.6327C26.7446 60.4417 25.7766 63.3157 24.9827 66.2394C24.2827 69.29 23.7548 72.3772 23.4015 75.4867C22.7005 80.8219 21.6042 86.0678 21.2669 91.4502C21.1592 92.0864 21.1592 92.736 21.2669 93.3722C21.4388 93.9369 21.818 94.4164 22.3288 94.7152C22.8396 95.0139 23.4447 95.11 24.0234 94.9843C26.0262 94.5274 25.8207 92.3009 26.2213 90.7413C27.8024 84.5554 32.4037 80.0237 35.5924 74.678C37.142 72.0524 39.0763 69.7104 40.4203 66.9903C41.8381 64.1336 42.6814 60.9514 43.4192 57.8637C44.1255 54.9073 44.6051 51.8879 45.0426 48.8842C45.5011 45.7335 45.3008 42.7141 45.1164 39.5687C45.0479 38.1666 44.9688 36.754 44.7685 35.352Z" fill="#75645D"/>
<path d="M146.955 55.2075C146.242 55.5974 145.609 56.1176 145.09 56.7409C144.492 57.3204 143.689 57.6412 142.855 57.6336C141.985 57.6336 142.201 56.9404 141.606 56.5361C141.01 56.1317 139.645 57.0612 139.039 57.35C137.416 58.1009 136.098 59.2772 134.564 60.1856C133.03 61.0941 131.702 61.9973 130.168 62.743C129.27 63.1306 128.442 63.6628 127.718 64.3183C127.159 64.8749 126.727 65.5366 126.2 66.1195C125.146 67.2957 123.628 67.8891 122.51 68.9971C121.292 70.1584 120.229 71.4715 119.348 72.904C118.932 73.6076 117.277 77.0209 119.511 75.7764C120.112 75.4403 120.808 75.5716 121.504 75.414C122.475 75.2018 123.419 74.8812 124.318 74.4583C125.167 74.054 125.957 73.5394 126.811 73.1455C127.665 72.7517 128.545 72.4944 129.404 72.1373C129.82 71.9653 130.227 71.7708 130.622 71.5544C130.754 71.4862 131.212 71.3181 131.275 71.1921C131.339 71.0661 131.144 70.898 131.18 70.7877C131.449 70.0106 131.939 70.3992 132.619 70.2101C132.924 70.1336 133.2 69.9713 133.415 69.7428C133.905 69.2176 133.384 69.1546 133.415 68.619C133.489 67.6843 135.218 67.7263 135.096 68.7188C135.401 68.5111 135.688 68.2793 135.956 68.0256L136.24 67.7946C136.229 67.6878 136.208 67.5823 136.177 67.4795C136.314 67.3115 137.394 66.5605 137.421 66.9544C138.876 65.9724 140.114 65.0745 141.11 63.6094C141.843 62.5592 142.691 61.6244 143.529 60.6162C144.057 59.9913 144.515 59.3454 144.963 58.6785C145.411 58.0116 145.569 57.539 146.265 57.2607L148.183 56.4731C148.009 56.2893 146.855 55.4018 146.955 55.2075ZM139.408 62.7955C138.385 64.2133 136.862 64.8959 135.45 65.8464C134.018 66.882 132.522 67.8256 130.97 68.6715C129.32 69.5117 127.628 69.9948 125.931 70.6932L126.237 70.4937C127.579 69.6848 128.743 68.6129 129.657 67.343C130.711 65.9829 132.203 65.4998 133.615 64.5809C135.107 63.6694 136.545 62.6735 137.922 61.5982C139.275 60.4981 140.771 59.5849 142.37 58.8833C141.432 60.2276 140.372 61.4722 139.408 62.7955Z" fill="#75645D"/>
<path d="M171.801 143.993C171.801 145.527 170.072 144.271 169.592 144.949C172.849 146.419 175.39 149.969 177.435 152.826C176.586 152.768 175.643 152.862 175.021 152.253C174.128 151.365 173.1 150.622 171.975 150.053C170.903 149.428 169.8 148.859 168.67 148.346C167.243 147.838 165.789 147.405 164.316 147.049C161.249 146.23 158.134 146.188 155.03 145.716C153.649 145.5 152.247 145.442 150.86 145.269C150.196 145.18 149.543 145.038 148.879 144.98C148.473 144.938 147.145 144.718 146.918 144.98C146.581 144.555 144.335 144.98 146.217 145.379C147.545 145.647 148.937 145.653 150.281 145.821C152.879 146.141 155.514 146.146 158.102 146.466C163.658 147.149 169.54 148.787 173.914 152.395C172.712 152.232 171.521 152.043 170.325 151.87C168.96 151.644 167.6 151.749 166.24 151.571C164.955 151.385 163.682 151.12 162.429 150.778C161.159 150.452 160.047 149.701 158.74 149.391C157.749 149.155 156.721 149.265 155.725 149.082C154.518 148.856 153.538 148.063 152.41 147.622C150.402 146.834 147.898 145.999 145.727 146.078C142.981 146.178 146.85 148.635 147.524 149.013C148.531 149.596 149.569 150.122 150.634 150.589C151.688 151.045 152.647 151.691 153.701 152.138C154.744 152.509 155.848 152.676 156.953 152.631C158.083 152.721 159.189 153.006 160.221 153.472C162.705 154.339 165.335 154.715 167.964 154.58C170.831 154.49 173.709 155.22 176.581 155.273C177.477 155.273 178.41 155.378 179.153 154.748C179.623 154.364 179.922 153.812 179.986 153.211C180.051 152.609 179.874 152.007 179.496 151.534C177.256 148.74 174.815 145.983 171.801 143.993Z" fill="#75645D"/>
<path d="M169.118 142.749C168.786 142.618 168.47 142.471 168.154 142.313C166.477 141.494 164.991 140.517 163.104 140.186C160.737 139.783 158.338 139.597 155.936 139.63C154.503 139.63 153.048 139.54 151.651 139.939C151.272 140.05 150.128 140.249 149.917 140.559C149.838 140.675 150.012 141.326 150.007 141.531C149.987 142.02 149.88 142.502 149.691 142.954C149.461 142.696 149.263 142.412 149.1 142.108C148.378 143.363 147.414 142.276 148.12 141.321C147.403 141.609 145.232 142.46 145.311 143.521C145.411 144.771 147.851 143.92 148.436 143.773C150.081 143.358 151.646 142.507 153.333 142.281C154.968 142.092 156.614 141.999 158.261 142.003C159.892 141.958 161.524 142.064 163.136 142.318C163.878 142.459 164.599 142.693 165.281 143.017C165.692 143.211 166.072 143.505 166.493 143.657C166.847 143.774 167.225 143.796 167.59 143.72C168.117 143.694 168.617 143.762 169.129 143.752C169.64 143.741 169.845 143.857 169.919 143.363C169.993 142.87 169.592 142.933 169.118 142.749Z" fill="#75645D"/>
<path d="M49.2173 238.099C47.9313 238.32 46.6927 238.74 45.3909 238.908C42.6137 239.182 39.8604 239.657 37.1529 240.331C35.8142 240.704 34.486 241.093 33.1683 241.534C31.8507 241.975 30.0534 242.379 29.0098 243.23C28.605 243.563 28.3219 244.02 28.2047 244.53C28.0874 245.04 28.1426 245.574 28.3616 246.05C28.741 246.874 29.4789 247.21 30.2959 247.462C31.5666 247.856 32.8604 248.171 34.1698 248.408C35.4927 248.639 36.8051 248.46 38.128 248.507C39.7092 248.56 41.2376 248.938 42.8136 248.922C44.2949 248.834 45.7697 248.658 47.2303 248.397C48.6797 248.224 50.1239 247.987 51.5733 247.809C53.1281 247.62 54.7041 247.699 56.2483 247.389C55.268 248.024 54.4036 248.807 53.4496 249.489C52.4614 250.135 51.4254 250.706 50.3505 251.196C48.3132 252.323 46.4016 253.663 44.6477 255.192C42.8136 256.662 41.4168 258.527 39.7039 260.118C37.8697 261.819 36.1041 263.604 34.349 265.369C33.4951 266.235 32.6887 267.133 31.9034 268.063C31.1181 268.992 30.0271 269.895 30.0692 271.166C30.083 271.625 30.2331 272.069 30.5005 272.443C30.7679 272.817 31.1405 273.104 31.5714 273.267C32.3936 273.576 33.2579 273.298 34.0854 273.146C38.6709 272.274 43.6463 271.009 47.6994 268.646C48.7535 268.031 49.7444 267.375 50.8618 266.85C51.9791 266.325 53.086 265.862 54.1612 265.306C56.2694 264.256 58.1141 262.749 60.001 261.357C63.6114 258.689 67.4694 255.948 70.1311 252.299C71.4224 250.524 73.051 248.654 73.7309 246.522C73.9945 245.703 73.8943 244.711 72.8296 245.325C71.9758 245.813 71.3275 246.732 70.6793 247.457C70.031 248.182 69.4407 249.19 68.6184 249.657C67.6328 250.219 66.4786 250.555 65.4561 251.038C63.6641 251.884 61.9248 252.824 60.138 253.664C58.4567 254.457 56.8544 255.47 55.1995 256.332C52.5642 257.686 49.9552 259.062 47.3726 260.501C45.2117 261.709 43.0665 263.048 40.9425 264.329C39.9358 264.938 39.0662 265.731 38.0331 266.314C36.9561 266.935 35.9224 267.628 34.9393 268.388C37.7011 265.49 40.9847 263.137 43.7254 260.207C45.1737 258.716 46.7621 257.368 48.4689 256.179C50.1604 255.039 51.9425 254.038 53.7975 253.186C55.3787 252.383 56.6753 251.206 58.1879 250.293C59.8323 249.295 61.8036 249.106 63.5956 248.471C64.597 248.113 73.441 245.614 72.993 244.548C72.7559 243.976 71.1325 244.023 70.6476 244.023C69.742 244.005 68.8364 244.056 67.9385 244.175C66.8764 244.284 65.8209 244.449 64.7762 244.669C64.2269 244.865 63.6578 245 63.079 245.073C62.7733 245.073 62.4097 244.721 62.0618 244.606C62.6416 245.052 63.5956 245.735 63.4954 246.491C63.4322 246.963 62.8471 247.121 62.8629 247.426C62.8682 247.396 62.8682 247.366 62.8629 247.336C62.5642 246.849 62.1065 246.478 61.5664 246.286C60.8865 246.092 60.3541 246.423 59.6953 246.507C58.2933 246.68 58.4409 245.283 58.4251 244.296C56.5329 244.48 54.6935 244.979 52.7908 245.152C50.8881 245.325 48.9011 245.813 46.9615 246.15C45.0219 246.486 43.0244 246.963 40.9583 246.79C39.9042 246.706 38.8817 246.554 37.8381 246.57C36.7497 246.657 35.6553 246.64 34.5703 246.517C33.9326 246.396 30.0165 245.666 30.2537 244.879C30.3855 244.448 31.9298 244.233 32.2987 244.117C33.4003 243.766 34.5071 243.445 35.6297 243.162C37.6803 242.672 39.7591 242.307 41.8543 242.069C43.8993 241.828 45.9917 241.802 48.0104 241.387C50.029 240.972 52.1478 241.213 53.9714 240.804C54.2284 240.788 54.4786 240.715 54.7038 240.59C54.929 240.466 55.1235 240.293 55.2733 240.084C55.5579 239.523 55.4894 238.567 55.5526 237.937C54.7816 237.843 54.0049 237.803 53.2283 237.816C51.8861 237.813 50.5456 237.908 49.2173 238.099ZM50.4823 259.587C56.28 256.437 61.9406 253.123 68.0914 250.66C65.7987 253.706 62.7681 256.258 59.7954 258.637C58.3249 259.818 56.8808 261.047 55.3734 262.166C53.7869 263.25 52.1058 264.19 50.3505 264.975C48.7166 265.789 47.2409 266.85 45.607 267.669C44.5236 268.167 43.405 268.584 42.2601 268.919C39.0665 269.93 35.7895 270.659 32.4673 271.098C33.1192 270.423 33.8733 269.854 34.7021 269.412C39.978 266.157 45.043 262.554 50.477 259.587H50.4823Z" fill="#75645D"/>
<path d="M55.5469 237.963H55.6628C55.6207 237.963 55.5943 237.91 55.5521 237.894C55.51 237.879 55.5521 237.947 55.5469 237.963Z" fill="#75645D"/>
<path d="M102.454 124.49C102.361 124.309 102.257 124.134 102.143 123.965C102.23 124.149 102.334 124.325 102.454 124.49Z" fill="#75645D"/>
<path d="M98.902 389.844C98.7386 390.29 98.57 390.736 98.3749 391.178C98.3469 391.258 98.3116 391.335 98.2695 391.409C98.2695 391.409 98.2695 391.409 98.3064 391.372C98.5488 390.881 98.748 390.369 98.902 389.844Z" fill="#75645D"/>
<path d="M157.054 307.557C156.917 307.358 156.77 307.169 156.633 306.975C156.71 307.208 156.857 307.411 157.054 307.557Z" fill="#75645D"/>
<path d="M161.561 298.178C161.396 296.123 160.951 294.101 160.238 292.166C159.5 290.16 158.836 288.122 158.066 286.132C156.485 282.11 153.734 278.455 151.104 275.068C149.823 273.414 148.59 271.697 147.23 270.111C145.808 268.576 144.274 267.149 142.639 265.842C141.253 264.634 139.809 263.1 138.085 262.371C137.795 262.25 137.274 262.019 137 262.308C136.936 262.398 136.896 262.504 136.884 262.614C136.872 262.724 136.888 262.835 136.931 262.938C137.052 263.437 137.5 263.71 137.374 264.124C137.289 264.397 136.773 264.812 136.599 265.033C136.364 265.445 136.083 265.829 135.761 266.178C135.471 266.377 135.234 266.094 134.991 266.514C134.928 266.629 134.991 266.876 134.965 266.981C134.95 267.187 134.902 267.389 134.823 267.58C134.377 268.431 133.864 269.246 133.289 270.016C132.725 270.935 132.198 271.875 131.708 272.815C129.879 276.139 127.592 279.337 126.39 282.955C125.752 284.861 125.367 286.836 124.529 288.674C123.628 290.638 122.558 292.497 121.81 294.534C120.945 296.871 119.986 299.208 119.296 301.602C118.605 303.997 118.094 306.36 117.34 308.712C116.529 311.222 115.759 313.743 114.942 316.258C114.199 318.584 113.134 321.131 113.097 323.61C112.57 323.61 112.481 324.996 112.359 325.505C112.18 326.22 112.006 326.939 111.832 327.658C111.627 328.509 111.427 329.365 111.226 330.216C110.979 331.266 110.741 332.342 110.509 333.414C111.095 333.414 110.726 334.343 110.372 334.054L109.107 339.93C108.665 341.973 108.507 344.026 108.264 346.1C108.238 343.475 108.175 340.891 108.111 338.281C108.059 336.139 108.022 333.997 107.964 331.854C107.947 330.874 107.843 329.897 107.653 328.934C107.458 327.963 106.91 326.766 107.089 325.784C107.453 323.836 108.217 321.908 108.67 319.971C109.165 317.87 109.513 315.717 110.114 313.643C111.168 309.967 112.259 306.591 112.049 302.684C112.047 302.412 112.029 302.14 111.996 301.87C111.88 301.282 111.859 301.513 111.553 301.066C111.366 300.713 111.265 300.321 111.258 299.922C111.205 299.752 111.184 299.574 111.195 299.397C111.316 299.103 111.632 299.355 111.796 299.145C111.959 298.934 111.732 297.968 111.732 297.695C111.732 295.563 112.328 293.442 112.786 291.394L111.732 291.336C112.085 290.764 112.407 290.244 112.85 291.021C113.259 288.918 113.5 286.787 113.572 284.646C113.709 282.32 113.898 279.983 113.972 277.657C113.952 275.438 113.813 273.223 113.556 271.019C113.459 268.684 113.489 266.346 113.645 264.014C113.788 259.251 114.173 254.457 114.062 249.694C113.951 244.931 113.788 240.064 113.535 235.248C113.466 234.004 113.387 232.764 113.292 231.52C113.203 230.359 113.292 229.036 113.029 227.902C112.865 227.219 112.254 226.463 112.502 225.723C112.634 225.313 112.776 225.339 112.818 224.867C112.815 224.299 112.773 223.732 112.692 223.171C112.569 221.008 112.272 218.859 111.806 216.743C111.25 214.632 110.871 212.479 110.673 210.305C110.525 208.016 110.573 205.721 110.457 203.431C110.409 202.413 110.81 201.41 110.984 200.401C111.163 199.272 111.353 198.154 111.543 197.025C111.732 195.896 111.785 194.809 112.038 193.727C112.341 192.684 112.704 191.658 113.124 190.655C113.651 189.148 113.651 187.557 114.331 186.087C115.911 182.523 118.076 179.245 120.734 176.388C121.641 175.448 122.548 174.503 123.486 173.589C123.939 173.153 124.408 172.728 124.83 172.266C124.969 172.135 125.093 171.989 125.199 171.83C125.383 171.363 125.083 171.52 124.919 171.037C124.687 170.365 124.919 168.411 125.446 167.886C125.973 167.361 127.402 168.333 127.787 168.894C128.44 168.296 129.705 167.545 129.979 166.72C130.506 167.046 132.235 165.591 132.651 165.182C133.463 164.384 133.943 163.307 134.818 162.556C135.692 161.805 136.799 161.375 137.669 160.598C138.572 159.798 139.414 158.933 140.188 158.009C140.584 157.536 143.198 154.018 141.105 154.422C140.125 154.611 139.229 155.357 138.423 155.903C137.407 156.603 136.406 157.314 135.418 158.035C134.628 158.628 133.737 159.038 132.925 159.61C131.871 160.314 131.344 161.291 130.622 162.278C129.9 163.265 128.899 163.79 127.924 164.489C126.855 165.342 125.862 166.286 124.956 167.309C124.162 168.236 123.421 169.207 122.737 170.218C121.878 171.326 120.84 172.318 119.923 173.368C118.221 175.302 116.7 177.387 115.38 179.596C114.334 181.371 113.404 183.211 112.597 185.105C112.141 186.342 111.799 187.618 111.574 188.917C111.258 190.314 110.52 191.543 110.072 192.919C111.653 192.393 111.627 194.494 110.847 195.339C110.6 195.543 110.322 195.708 110.025 195.828C109.777 195.98 109.719 196.29 109.355 196.237C108.707 196.143 108.596 194.662 108.465 194.21C107.937 194.767 107.468 194.851 106.92 194.289C106.636 193.995 106.167 193.307 106.441 192.877C106.767 192.351 107.205 192.819 107.526 193.06C107.953 193.375 107.953 193.47 108.443 193.433C108.934 193.396 108.97 193.281 109.013 192.908C109.123 192.283 108.833 191.333 108.765 190.718C108.696 190.104 108.623 189.421 108.549 188.775C108.385 187.326 108.185 185.877 108.022 184.427C107.642 181.56 107.59 178.698 107.331 175.826C107.03 173.081 106.478 170.369 105.682 167.723C104.96 165.098 104.375 162.472 103.547 159.894C103.224 158.791 102.791 157.724 102.256 156.706C102.092 156.407 101.802 156.113 101.66 155.809C101.407 155.247 101.523 154.427 101.507 153.776C101.465 152.422 101.365 151.067 101.244 149.712C101.133 148.53 101.244 147.454 101.244 146.272C101.244 144.939 100.901 143.61 101.017 142.276C101.123 141.042 101.507 139.845 101.718 138.627C102.155 135.672 102.332 132.685 102.245 129.7C102.245 128.229 102.619 126.806 102.683 125.346C102.689 125.038 102.613 124.733 102.461 124.464C102.342 124.299 102.238 124.123 102.15 123.939C102.055 123.803 101.971 123.666 101.876 123.519C101.516 122.948 101.312 122.292 101.286 121.618C101.552 121.732 101.777 121.923 101.932 122.167C102.088 122.411 102.165 122.695 102.156 122.983C102.156 123.215 102.04 123.509 102.077 123.745C102.092 123.813 102.117 123.878 102.15 123.939C102.265 124.108 102.368 124.283 102.461 124.464C102.577 124.627 102.693 124.769 102.767 124.779C103.679 118.604 104.432 112.287 105.929 106.216C106.309 104.667 106.383 103.092 106.699 101.538C107.036 99.894 107.843 98.4552 108.465 96.9219C109.824 93.5821 110.952 90.1479 113.118 87.1967C114.957 84.5542 117.005 82.0624 119.243 79.7453C119.696 79.299 121.267 77.7184 119.77 77.5451C118.489 77.4033 116.95 78.5953 116.033 79.3882C114.737 80.47 113.877 81.9193 112.871 83.2688C111.846 84.5538 110.917 85.9122 110.093 87.3332C109.279 88.8476 108.562 90.4122 107.948 92.0173C107.321 93.7082 106.894 95.4621 106.182 97.1267C105.424 98.8099 104.903 100.589 104.633 102.415C104.515 103.535 104.324 104.647 104.064 105.744C103.616 107.44 103.241 109.152 102.83 110.858C103.679 109.94 104.195 111.352 103.984 112.108C103.716 113.074 102.814 113.369 102.261 114.098C101.708 114.828 101.618 116.687 101.434 117.685C101.202 118.924 100.906 120.148 100.659 121.361C100.111 123.694 99.6835 126.053 99.378 128.429C99.2568 129.521 99.3253 130.613 99.2778 131.7C99.2199 132.866 99.0037 134.021 98.8614 135.171C98.279 134.021 97.8689 132.791 97.6439 131.522C97.4384 130.13 97.412 128.718 97.2855 127.321C97.0273 124.386 96.0153 121.471 95.2616 118.63C94.9317 117.297 94.4946 115.992 93.9545 114.729C93.2645 113.367 92.6504 111.968 92.1151 110.538C91.6513 109.042 91.2981 107.503 90.8817 105.996C90.6815 105.287 90.4865 104.578 90.2862 103.864C90.0859 103.15 89.8751 102.388 88.9474 102.866L89.3427 102.619C89.5106 102.449 89.6226 102.232 89.664 101.996C89.7054 101.761 89.6743 101.519 89.5746 101.301C89.1899 99.8941 88.8526 98.471 88.4573 97.0689C87.7036 94.4433 86.7549 91.8177 85.822 89.2499C83.9614 84.0618 81.9533 78.9156 79.9189 73.7905C78.9385 71.3172 77.1676 69.2745 76.1451 66.8274C75.091 64.3016 74.5956 61.5763 73.5889 59.0347C72.656 56.6874 71.3647 54.5082 70.4002 52.1767C69.346 49.6561 68.255 47.1565 67.2378 44.6255C66.774 43.4492 66.4209 42.2362 66.0414 41.0284C65.6408 39.7314 65.1138 38.4711 65.1085 37.0848C65.1085 35.2101 65.5723 33.2724 65.9149 31.4398C66.3988 28.9891 67.0756 26.5801 67.9388 24.2352C68.3446 23.0799 68.8981 21.9404 69.1932 20.7536C69.3715 19.7506 69.6252 18.7624 69.9522 17.7972C70.3122 16.7828 70.7583 15.8008 71.2856 14.8618C72.0235 13.6698 72.8194 12.8296 73.1514 11.4223C73.2865 10.5324 73.6374 9.68884 74.1739 8.96477C74.8998 8.09818 75.5356 7.16042 76.0713 6.16589C76.4245 5.49899 78.7066 1.24029 77.1255 1.06175C76.4719 0.993485 75.6444 1.90194 75.2491 2.29052C74.3635 3.18592 73.5526 4.15184 72.8247 5.17867C72.1817 6.07137 71.3752 6.84854 70.7586 7.75174C70.0154 8.80197 70.0787 10.0675 69.7044 11.2595C69.3513 12.3098 68.4869 13.1447 68.0337 14.1687C67.489 15.3707 67.0465 16.6161 66.7107 17.8918C66.3734 19.2413 66.268 20.5698 65.8622 21.9141C65.4247 23.3582 64.9662 24.8181 64.6025 26.2831C63.957 29.1647 63.5498 32.0942 63.385 35.0421C62.3836 33.4142 61.3716 31.7969 60.3913 30.1532C59.5164 28.6777 58.5887 27.0918 57.308 25.9208C56.665 25.3379 55.6056 24.6448 54.8255 25.3957C54.6174 25.6589 54.4729 25.9664 54.4035 26.2942C54.334 26.6221 54.3414 26.9615 54.425 27.2861C54.6147 27.89 55.3368 28.1368 55.6477 28.8299C55.5054 28.8825 54.9151 29.0452 54.8361 29.2133C54.757 29.3813 55.0785 29.9747 55.147 30.1742C55.3737 30.8201 55.6214 31.4608 55.8797 32.0962C56.4791 33.5338 57.1837 34.9256 57.9879 36.2604C59.5111 38.8156 60.787 41.5093 61.7985 44.3051C60.4335 42.8138 58.8048 40.9129 56.9338 40.1042C56.0061 39.6946 55.5529 39.0067 54.8624 38.3083C54.172 37.6099 53.1179 37.0743 52.2904 36.4231C51.4629 35.772 50.8304 35.2311 50.1241 34.5642C49.3335 33.8238 48.2478 33.514 47.2411 33.1727C46.5823 32.9364 45.5124 32.5793 45.0802 33.388C44.5531 34.3594 45.8971 35.2836 46.6139 35.667C47.5138 36.0556 48.3632 36.551 49.1438 37.1425C49.9963 37.8255 50.9164 38.4202 51.8898 38.9174C52.8465 39.4231 53.7251 40.0633 54.4988 40.8184C55.1523 41.4328 56.0167 41.5535 56.7019 42.0944C58.2356 43.3074 59.5322 45.1453 60.639 46.7312C61.237 47.6541 61.7859 48.6076 62.2834 49.5878C62.5997 50.1444 62.9739 50.5698 63.3376 51.0897C63.7012 51.6095 63.5589 52.1084 63.6222 52.7333C63.8416 54.0061 64.2353 55.2429 64.7922 56.4091C65.1454 57.2966 65.5459 58.4833 66.3734 59.0662C66.5684 59.208 67.106 59.229 67.2009 59.3077C67.4516 59.6999 67.6568 60.1192 67.8123 60.5575C68.1707 61.2087 68.9824 62.5582 69.9206 62.3587C69.6992 62.0226 69.8099 61.4397 70.2526 61.508C70.6953 61.5763 70.5899 62.2694 70.6637 62.595C71.05 64.0247 71.5289 65.4279 72.0973 66.7959C73.0829 69.4793 74.8854 71.627 76.0608 74.1948C76.5401 75.3177 76.9623 76.4639 77.3258 77.6291C78.2797 80.4174 79.239 83.2006 80.1139 86.031C80.9888 88.8613 81.869 91.76 82.6702 94.6481C83.4344 97.4102 84.0089 100.183 84.6414 102.976C85.2738 105.77 85.8641 108.553 86.4966 111.336C87.0975 113.962 88.4415 116.341 89.0845 118.961C89.7275 121.581 90.2967 124.212 90.7552 126.838C91.2138 129.463 90.7974 132.231 91.4721 134.862C92.0624 137.183 93.4696 139.236 93.8965 141.604C94.3551 144.172 93.9598 146.803 94.471 149.381C94.9554 152.059 95.5942 154.706 96.3843 157.31C96.6159 157.895 96.7924 158.5 96.9113 159.117C96.9444 159.626 97.0619 160.127 97.2592 160.598C97.3695 160.784 97.5186 160.946 97.6967 161.07L97.8758 161.023C97.9602 161.201 98.0498 161.375 98.1446 161.548C98.325 161.898 98.5293 162.235 98.756 162.556C98.9616 162.84 99.4149 163.118 99.573 163.402C99.826 163.859 99.7627 164.757 99.8523 165.287C100.111 166.789 100.464 168.264 100.843 169.735C101.528 172.365 101.997 175.047 102.245 177.753C102.535 180.904 102.941 183.992 103.5 187.111C104.058 190.23 104.454 193.323 105.081 196.395C105.808 199.52 106.277 202.698 106.483 205.899C106.562 207.475 106.62 209.05 106.752 210.625C106.748 210.989 106.781 211.351 106.852 211.707C106.983 212.143 107.036 212.148 107.379 212.421C108.032 212.947 108.196 213.65 107.173 213.808C107.653 216.213 108.433 218.56 108.638 221.007C108.717 221.989 108.765 222.971 108.802 223.953C108.496 222.462 107.748 221.065 107.073 219.71C106.929 219.323 106.752 218.949 106.546 218.592C106.177 218.066 106.446 218.455 105.903 218.308C105.36 218.161 105.313 217.147 105.987 217.342C104.601 214.475 102.793 211.83 100.622 209.497C99.5677 208.346 98.4345 207.296 97.4067 206.13C96.379 204.965 95.367 203.578 94.1811 202.455C92.6 200.942 90.7922 199.714 89.2531 198.122C86.7935 195.577 84.3339 193.025 81.8743 190.466C79.4393 187.946 77.0622 185.367 74.6378 182.836C73.5161 181.588 72.3117 180.416 71.0326 179.329C69.7624 178.32 68.5449 177.328 67.3748 176.178C66.2048 175.028 64.9029 173.941 63.8066 172.702C62.7104 171.462 61.8407 170.239 60.6127 169.241C59.4795 168.333 58.1618 167.666 57.0392 166.752C55.9166 165.838 55.0258 164.562 53.9611 163.522C53.6569 163.191 53.3176 162.894 52.9492 162.635C52.4221 162.325 52.6277 162.514 52.0374 162.635C51.6881 162.703 51.3259 162.631 51.0297 162.434C50.7336 162.238 50.5274 161.932 50.4562 161.585C50.3719 161.312 50.5036 160.834 50.4088 160.624C50.2823 160.33 49.4759 159.92 49.2018 159.726C48.8521 159.516 48.5314 159.262 48.2478 158.97C47.9619 158.554 47.6997 158.123 47.4625 157.678C47.0303 157.006 46.1817 155.304 45.2963 155.079C44.1209 154.785 44.9853 156.948 45.1487 157.415C44.337 157.111 43.7941 157.216 44.1789 158.093C44.4301 158.581 44.7456 159.033 45.1171 159.437C45.3106 159.687 45.5596 159.888 45.8444 160.025C46.05 160.135 46.2977 160.088 46.4505 160.309C46.6034 160.529 46.4822 160.655 46.5454 160.86C46.6488 161.094 46.765 161.322 46.8933 161.543C47.2042 162.068 47.4203 162.698 47.6944 163.265C48.3532 164.641 49.07 165.985 49.7605 167.345C51.0134 169.95 52.0601 172.649 52.8912 175.416C53.8136 178.247 54.7307 181.051 55.4106 183.95C56.1539 186.829 56.6372 189.769 56.8547 192.735C57.0076 195.66 56.5174 198.574 56.1485 201.457C55.8111 204.083 55.5423 206.708 54.6621 209.208C53.8821 211.434 52.9861 213.613 51.9899 215.751C49.8817 220.204 47.4256 224.452 44.9379 228.69C43.3868 224.92 42.1253 221.039 41.1641 217.079C40.7161 215.289 40.4051 213.461 40.0309 211.655C39.4765 209.231 39.0717 206.776 38.8187 204.303C38.5992 201.915 38.5481 199.515 38.6658 197.119C38.8029 194.725 39.2772 192.393 39.4881 189.978C39.6989 187.562 39.5513 185.147 39.8992 182.752C40.0683 181.705 40.3149 180.671 40.637 179.659L41.0956 178.084C41.3117 177.338 41.3644 177.128 40.5949 176.971C40.1205 176.876 39.2298 176.971 39.1086 176.299C39.0295 175.842 39.525 175.574 39.8517 175.422C40.1391 175.292 40.4395 175.194 40.7477 175.128C40.9796 175.08 41.8019 175.18 41.9284 175.049C42.1919 174.823 42.2341 173.741 42.3131 173.395C42.9509 170.669 43.7678 167.986 44.3845 165.25C44.7798 173.405 45.2752 181.581 45.3226 189.747C45.349 194.42 45.1223 199.115 45.2699 203.783C45.3332 205.768 45.3068 207.779 45.1856 209.759C45.0485 211.86 45.2278 214.007 45.096 216.129C45.067 216.343 45.0824 216.56 45.1414 216.768C45.2003 216.976 45.3015 217.169 45.4386 217.337C45.5545 217.536 45.8444 217.862 45.7654 218.135C45.6863 218.408 45.3859 218.376 45.1909 218.544C44.8535 218.823 44.9431 219.132 44.9379 219.652C44.9326 220.172 44.7323 225.429 45.1961 225.465C45.8339 225.518 46.0025 210.526 46.0394 209.187C46.1343 205.842 45.9498 202.497 45.9551 199.152C45.9551 195.57 45.9112 191.991 45.8233 188.413C45.7443 184.989 45.5967 181.587 45.5071 178.147C45.4175 174.707 45.3753 171.32 45.2119 167.897C45.1487 166.442 44.9379 164.988 44.9062 163.528C44.9463 162.846 45.0415 162.168 45.1909 161.501C45.2375 161.33 45.2605 161.153 45.2594 160.976C45.2594 160.876 45.0433 160.86 45.0275 160.724C45.0773 160.472 45.146 160.225 45.233 159.983C44.8588 159.196 43.4674 161.742 43.304 162.047C42.5848 163.395 41.9442 164.784 41.3855 166.206C40.1258 169.257 39.2298 172.376 38.2231 175.5C37.2164 178.625 36.331 181.597 36.1939 184.874C36.1201 186.649 36.1939 188.418 36.0622 190.193C35.9251 191.868 35.6353 193.528 35.5088 195.203C35.3022 198.691 35.4204 202.191 35.8619 205.658C36.2256 209.008 37.227 212.259 37.9701 215.551C38.7055 218.66 39.6135 221.726 40.6898 224.735C41.1641 226.153 41.7439 227.524 42.3605 228.884C42.7717 229.798 43.0932 230.806 44.1157 231.21C46.1659 232.019 47.0725 229.95 47.8525 228.532C50.7303 223.318 53.4921 218.03 55.5845 212.442C56.7884 209.196 57.6005 205.819 58.0037 202.381C58.4201 198.999 59.1053 195.633 58.9313 192.21C58.8381 190.517 58.6498 188.83 58.3674 187.158C57.6453 187.683 57.7454 185.703 57.7771 185.415C57.8596 184.684 57.8133 183.945 57.64 183.23C57.2553 181.382 56.8126 179.554 56.2802 177.737C55.263 174.261 54.3406 170.696 52.7963 167.408C53.5957 168.386 54.5207 169.255 55.5476 169.992C56.6439 170.748 57.8825 171.336 58.8944 172.213C59.9064 173.09 60.7813 174.251 61.7511 175.243C62.8052 176.32 63.9806 177.275 65.0979 178.278C67.3643 180.316 69.8731 182.012 72.0709 184.123C73.0882 185.1 74.1107 186.066 75.1068 187.058C75.3441 187.349 75.6069 187.618 75.8921 187.862C76.0555 187.972 76.2453 187.862 76.4561 188.072L76.5035 188.256C76.4034 188.46 76.5035 188.618 76.7354 188.723C76.9955 189.027 77.2792 189.309 77.584 189.568C78.7066 190.655 79.8504 191.711 80.9783 192.787L81.2365 193.039C81.4017 193.361 81.5545 193.377 81.6951 193.087C81.8848 193.139 82.0535 193.05 82.1852 193.281C82.317 193.512 81.9586 193.596 82.0061 193.769C82.0904 194.058 82.8704 194.578 83.0971 194.819C85.316 196.92 87.4295 199.188 89.717 201.226C90.7711 202.166 91.9833 202.922 92.99 203.925C94.1284 205.054 95.035 206.398 96.0628 207.601C97.8653 209.775 99.7838 211.76 101.36 214.118C103.215 216.901 104.469 220.046 105.829 223.087C106.33 224.324 106.758 225.59 107.11 226.878C107.273 227.403 108.391 230.632 109.065 228.721C109.255 233.494 109.303 238.273 109.271 243.051C109.239 247.83 108.923 252.472 108.607 257.198C108.296 261.814 107.553 266.535 107.737 271.161C107.898 273.247 107.951 275.34 107.895 277.431C107.9 277.854 107.929 278.277 107.985 278.696C107.985 278.833 107.837 278.906 107.821 278.975C107.771 279.165 107.731 279.358 107.7 279.552C107.579 280.771 107.463 281.989 107.342 283.228C107.299 283.478 107.275 283.731 107.268 283.984C107.31 284.509 107.315 284.383 107.848 284.536C108.237 284.6 108.616 284.713 108.976 284.872C109.545 285.234 109.26 285.738 109.239 286.321C109.202 287.371 109.982 287.539 110.741 287.996C111.221 288.28 110.942 287.781 111.131 288.474C111.171 288.806 111.171 289.14 111.131 289.472C111.09 290.087 111.109 290.704 111.189 291.315C110.351 291.089 109.524 291.052 108.717 290.638C107.921 290.209 107.218 289.63 106.646 288.931C106.446 289.887 106.177 290.827 105.929 291.767C105.982 289.089 105.402 286.594 104.791 284.016C104.179 281.438 103.816 278.602 102.814 276.06C102.33 274.847 101.381 272.852 99.7258 273.309C97.918 273.808 97.86 276.748 97.8073 278.198C97.1801 276.99 96.3579 275.898 95.736 274.695C95.4197 274.091 95.2089 273.435 94.9507 272.815C94.5479 272.063 94.0325 271.376 93.4222 270.778C92.7084 269.836 92.102 268.818 91.6144 267.742C90.808 266.251 90.0332 264.76 89.1793 263.284C88.394 261.893 87.7247 260.443 86.9868 259.026C86.6534 258.288 86.2491 257.585 85.7798 256.925C85.2459 256.344 84.7428 255.736 84.2724 255.103C83.4179 253.772 82.6875 252.366 82.0904 250.902C81.5317 249.547 80.1719 248.991 79.5183 247.751C79.1546 247.069 78.9913 246.307 78.5907 245.651C78.1397 244.952 77.6338 244.29 77.078 243.671C76.6985 243.22 74.2582 240.667 73.7839 241.991C71.9761 240.583 69.3829 239.89 67.2009 239.318C64.9293 238.698 62.9844 237.806 60.5863 238.115C59.5016 238.287 58.3981 238.306 57.308 238.173C56.7809 238.089 56.2539 238.026 55.6952 237.963C56.3298 238.261 56.8749 238.719 57.2764 239.292C57.8034 239.959 58.5202 240.436 59.0789 241.077C59.5375 241.602 59.3793 241.765 60.0856 241.765C60.8867 241.765 61.6668 241.865 62.489 241.854C62.8281 241.812 63.1697 241.792 63.5115 241.796C63.9863 241.916 64.4514 242.07 64.9029 242.259C65.7325 242.486 66.5757 242.662 67.4275 242.784C69.0327 243.074 70.6567 243.249 72.2871 243.309C72.6389 243.321 72.9911 243.309 73.3412 243.272C73.8313 243.214 73.7206 243.136 73.9525 243.44C74.1376 243.807 74.2842 244.193 74.39 244.59C74.5798 245.026 74.7642 245.462 74.9593 245.892C75.3387 246.717 75.8289 247.468 76.1557 248.339C76.3659 249.113 76.7121 249.844 77.1782 250.498C77.6631 251.06 78.3535 251.396 78.849 251.947C79.3444 252.498 79.6132 253.381 79.9716 254.116C80.8477 255.765 81.989 257.26 83.3501 258.542C84.673 259.871 85.5005 261.809 86.4386 263.41C87.3768 265.012 88.5469 266.64 89.601 268.262C90.0806 269.019 90.555 269.785 91.0135 270.552C91.472 271.319 92.1941 271.996 92.7633 272.773C93.1652 273.427 93.4723 274.134 93.6752 274.874C94.003 275.683 94.3905 276.468 94.8347 277.221C95.6723 278.756 96.2964 280.397 96.69 282.099C97.0747 283.837 98.0234 285.208 98.6981 286.825C100.1 290.228 99.2251 294.34 99.5255 297.91C99.9208 302.437 100.485 307 101.318 311.469C101.727 313.674 101.888 315.918 101.797 318.159C101.732 318.752 101.709 319.348 101.729 319.944C101.792 320.538 101.976 320.291 102.351 320.732C102.725 321.173 102.577 322.707 101.697 322.229C101.697 323.468 101.829 324.676 101.813 325.904C101.797 327.133 101.813 328.283 101.871 329.475C101.929 330.526 101.871 332.626 102.762 333.445C102.825 333.503 103.125 333.629 103.157 333.671C103.289 333.87 103.157 334.595 103.157 334.9L103.062 338.885C102.999 341.6 102.851 344.315 102.688 347.03C102.651 347.671 102.609 348.316 102.567 348.962C102.528 349.218 102.51 349.476 102.514 349.734C102.577 350.259 102.604 350.223 102.951 350.637C103.542 351.346 103.963 352.297 102.846 352.738C102.477 352.89 102.403 352.738 102.245 353.069C102.169 353.394 102.141 353.728 102.161 354.061L102.003 355.836C101.876 357.217 101.692 358.577 101.476 359.948C101.033 362.573 100.675 365.199 100.269 367.783C99.8629 370.366 99.3305 373.034 99.4307 375.722C99.4781 377.046 99.6046 378.348 99.5466 379.692C99.4387 381.115 99.2486 382.529 98.9774 383.93C98.5505 386.666 98.2975 389.438 97.3119 392.038L97.7019 391.875L98.0182 391.696C98.1583 391.597 98.2766 391.47 98.366 391.324C98.4081 391.25 98.4434 391.173 98.4714 391.093C98.6401 390.651 98.8087 390.205 98.9985 389.759C98.853 390.283 98.6626 390.795 98.4292 391.287C98.4292 391.287 98.4292 391.287 98.3924 391.324C98.3263 391.486 98.2025 391.619 98.0445 391.696C97.9448 391.765 97.8389 391.825 97.7283 391.875C97.7026 391.887 97.6779 391.901 97.6545 391.917C96.9693 392.363 96.6794 393.729 96.4001 394.543C95.7799 396.308 95.5131 398.178 95.6148 400.046C95.7675 401.521 95.8309 403.005 95.8045 404.488C95.6885 406.064 95.0719 407.55 94.4921 409.025C93.1692 412.391 92.7001 415.852 92.3206 419.449C92.0149 422.374 91.6829 426.008 92.8477 428.801C94.2391 432.157 96.8375 427.551 97.5174 426.134L97.08 426.218C97.0757 425.819 97.1854 425.427 97.3962 425.089C97.665 424.81 97.8653 425.047 98.0761 424.889C98.287 424.732 98.482 423.87 98.6032 423.592C98.8035 423.067 99.009 422.542 99.2146 422.017C99.9841 420.032 100.643 418.015 101.244 415.973C101.776 414.076 102.41 412.209 103.141 410.38C103.884 408.78 104.342 407.064 104.496 405.307C104.601 403.238 104.111 401.201 104.048 399.143C103.995 397.373 104.601 395.666 105.139 394.002C106.441 389.985 106.694 385.7 107.031 381.504C107.107 380.363 107.086 379.217 106.968 378.08C106.862 376.962 106.857 375.754 106.651 374.656C106.356 373.123 105.255 374.74 104.39 374.131C103.647 373.606 103.226 372.199 102.683 371.474C103.127 371.44 103.575 371.456 104.016 371.521C104.351 371.623 104.692 371.699 105.039 371.747C105.181 371.747 105.365 371.49 105.597 371.474C106.015 371.53 106.418 371.667 106.783 371.878C107.152 367.888 107.463 363.891 107.885 359.906C108.085 358.015 108.248 356.125 108.602 354.256C108.955 352.386 109.434 350.522 109.793 348.647C110.409 345.449 110.509 342.225 111.263 339.048C112.201 335.115 113.176 331.198 114.246 327.296C114.837 325.143 115.474 323.011 116.128 320.879C116.423 319.902 116.755 318.936 117.092 317.97C117.277 317.445 117.525 316.878 117.667 316.321C117.765 315.888 117.747 315.437 117.614 315.014C118.231 314.982 118.141 314.893 118.373 314.294C118.494 313.937 118.621 313.58 118.747 313.244C119.043 312.398 119.343 311.558 119.638 310.713C120.26 308.938 120.903 307.179 121.388 305.357C122.339 302.059 123.485 298.821 124.819 295.658C126.058 292.565 127.897 289.834 128.888 286.631C129.279 285.198 129.771 283.794 130.359 282.43C130.759 281.574 132.493 279.453 132.014 278.649L132.267 278.738L132.087 278.917C133.015 278.392 133.626 276.417 134.101 275.388C134.823 273.813 135.519 272.237 136.209 270.662C136.351 270.993 136.478 271.329 136.615 271.66C136.783 271.135 136.578 271.224 137.142 270.972C137.426 270.826 137.745 270.759 138.064 270.778C138.565 270.888 138.929 271.508 139.118 271.928C138.537 272.105 138.008 272.422 137.579 272.852C137.279 273.251 137.311 272.973 137.395 273.503C137.48 273.772 137.595 274.031 137.737 274.275C138.308 275.325 138.716 276.454 138.95 277.625C139.303 280.172 139.624 282.493 140.826 284.804C141.455 285.901 142.02 287.034 142.518 288.196C142.984 289.553 143.354 290.941 143.625 292.349C144.189 294.902 144.679 297.485 145.132 300.058C145.533 302.748 145.701 305.468 145.633 308.187C145.633 311.023 146.06 313.858 145.944 316.689C145.801 319.553 145.448 322.403 144.89 325.217C144.194 328.787 143.291 332.315 142.186 335.782C142.586 327.905 141.943 319.955 141.516 312.078C141.263 307.51 140.989 302.941 140.631 298.383C140.473 296.283 140.162 294.25 139.935 292.181C139.709 290.112 139.624 287.98 139.303 285.88C138.966 283.717 138.702 281.543 138.354 279.379C138.09 277.334 137.665 275.314 137.084 273.335C136.662 273.86 136.884 274.522 136.957 275.152C137.052 275.955 137.158 276.727 137.258 277.557C137.432 278.954 137.616 280.345 137.748 281.758C137.89 283.333 138.275 284.819 138.507 286.363C138.739 287.907 138.813 289.44 139.002 290.968C139.898 298.241 140.584 305.498 141.068 312.813C141.295 316.4 141.474 319.96 141.596 323.552C141.69 327.018 141.596 330.483 141.638 333.949C141.638 335.278 141.98 336.9 141.379 338.103C141.142 338.565 140.636 339.521 140.041 339.615C139.556 339.689 139.63 339.431 139.471 338.964L138.944 337.441C137.782 333.872 136.828 330.24 136.088 326.561C135.65 324.544 135.034 322.565 134.712 320.517C134.575 319.566 134.517 318.595 134.422 317.639C134.37 317.114 134.317 316.589 134.28 316.017C134.232 315.26 134.238 315.371 133.537 315.344C133.01 315.344 132.13 314.688 132.831 314.194C133.126 313.984 133.521 314.305 133.821 314.273C134.348 314.221 134.164 314.026 134.132 313.47C134.068 311.459 134.149 309.446 134.375 307.447C133.9 307.489 133.031 307.651 132.614 307.31C132.087 306.895 132.288 305.913 132.361 305.362C132.509 304.312 132.931 304.002 133.943 304.091C134.47 304.144 134.327 304.212 134.47 303.75C134.503 303.351 134.482 302.95 134.406 302.558C134.364 301.88 134.312 301.203 134.264 300.52C134.111 298.115 134.501 295.852 134.891 293.489C135.355 290.669 135.519 287.797 135.74 284.951C135.984 282.455 136.044 279.945 135.919 277.441C135.872 276.801 135.682 274.816 134.907 276.134C133.853 277.972 133.579 280.471 133.168 282.509C132.604 285.302 132.198 288.112 131.75 290.911C131.386 293.221 130.796 295.49 130.696 297.837C130.596 300.463 131.112 303.088 131.075 305.714C131.038 308.339 130.706 310.907 130.907 313.527C130.991 314.646 131.434 315.712 131.297 316.825C131.154 318.133 131.481 319.766 131.713 321.105C132.198 323.893 133.073 326.655 133.758 329.407C134.434 332.2 135.265 334.954 136.246 337.657C137.005 339.694 137.511 342.908 140.389 342.152C143.082 341.443 143.888 338.607 144.552 336.26C146.372 330.02 147.481 323.596 147.857 317.109C148.02 313.916 147.557 310.718 147.615 307.52C147.691 304.423 147.491 301.325 147.019 298.262C148.342 300.515 150.102 302.463 151.573 304.632C153.043 306.801 154.614 308.801 156.211 310.828C157.007 311.837 157.977 313.181 159.041 313.948C159.434 314.221 159.902 314.367 160.381 314.365C160.861 314.363 161.328 314.213 161.718 313.937C162.109 313.66 162.404 313.27 162.564 312.82C162.723 312.37 162.739 311.881 162.609 311.422C161.571 307.079 161.93 302.589 161.561 298.178ZM124.224 171.011C123.812 172.56 123.812 172.56 122.326 172.313C122.465 171.925 122.723 171.59 123.063 171.356C123.404 171.122 123.81 171.001 124.224 171.011ZM70.0734 10.4771C70.4054 10.2303 71.449 9.26408 71.8496 9.30609C72.2501 9.3481 72.461 10.1358 72.3397 10.3983C71.8644 10.8505 71.2798 11.1725 70.6426 11.333C70.4002 11.3278 69.6939 10.7659 70.0734 10.4771ZM46.7879 34.5747C46.2608 34.4277 46.5349 33.409 47.0988 33.6085C47.6628 33.8081 47.394 34.7428 46.7879 34.5747ZM49.9502 36.964C49.2914 37.5784 48.7696 36.4389 48.5693 35.8035C48.543 35.7142 48.5008 35.604 48.4903 35.5409L48.7432 35.6302L48.5693 35.8035C48.8961 35.4044 50.6459 36.3496 49.9766 36.964H49.9502ZM65.7989 46.8205C65.2719 47.7394 62.1886 47.2511 62.3783 45.9488C62.684 43.9953 66.3207 45.9488 65.8253 46.8205H65.7989ZM84.8574 101.338C85.4175 100.919 86.092 100.679 86.7918 100.65C86.5634 100.923 86.2663 101.13 85.9311 101.251C85.5959 101.372 85.2345 101.402 84.8838 101.338H84.8574ZM102.509 166.4C101.897 165.623 101.607 164.578 100.838 163.932C100.216 163.407 99.3938 163.286 98.9036 162.604C98.6665 162.253 98.5166 161.851 98.4662 161.431C98.4158 161.011 98.4664 160.585 98.6137 160.188C98.8404 159.616 99.5835 158.938 100.227 159.311C100.754 159.626 100.954 160.697 101.281 161.212C101.771 162.031 102.509 162.583 103.073 163.312C103.591 164.069 103.823 164.985 103.726 165.896C103.521 166.652 103.183 167.198 102.535 166.4H102.509ZM77.2414 188.114C76.6195 187.699 77.4944 187.305 77.7685 187.163C77.7685 187.289 77.7685 187.415 77.7685 187.541C77.7685 187.814 77.7105 188.413 77.2678 188.114H77.2414ZM107.927 223.265C107.927 223.486 107.532 223.612 107.4 223.549C107.268 223.486 107.252 223.024 107.236 222.85C107.142 222.308 107.243 221.75 107.521 221.275C108.143 221.821 108.022 222.456 107.927 223.265ZM108.902 219.237C108.343 219.321 108.333 218.124 108.986 218.282C109.508 218.402 109.408 219.164 108.918 219.237H108.902ZM98.5136 406.085C98.0867 406.337 97.9865 405.917 97.6492 405.56C98.0533 405.337 98.4811 405.161 98.9247 405.034C98.9461 405.229 98.92 405.427 98.8484 405.61C98.7768 405.793 98.662 405.956 98.5136 406.085ZM103.953 282.251C103.86 282.311 103.748 282.334 103.64 282.317C103.531 282.299 103.432 282.242 103.363 282.157C103.078 281.826 103.363 281.632 103.547 281.364C104.042 281.291 104.512 281.921 103.953 282.251ZM105.371 319.65C105.371 319.839 105.371 320.034 105.371 320.223C104.902 320.023 104.844 319.834 105.371 319.629V319.65ZM124.872 294.497L124.239 295.049C124.044 295.411 123.849 295.421 123.654 295.085C123.23 294.827 122.857 294.495 122.553 294.103C122.237 293.983 122.194 293.809 122.432 293.578C122.521 293.426 122.611 293.279 122.706 293.137C122.827 292.919 122.992 292.728 123.191 292.575C123.379 292.478 123.591 292.435 123.802 292.452C124.014 292.469 124.216 292.544 124.387 292.67C124.571 292.759 125.325 293.09 125.383 293.268C125.441 293.447 124.935 294.271 124.851 294.476L124.872 294.497ZM129.262 280.676C128.672 280.487 128.814 279.5 129.442 279.626C130.069 279.752 129.979 280.912 129.262 280.676ZM130.316 277.646C129.789 277.504 130.069 276.486 130.633 276.685C131.197 276.885 130.896 277.83 130.301 277.657L130.316 277.646ZM138.064 266.871C137.99 267.663 137.97 268.46 138.006 269.255C137.832 268.982 137.658 268.73 137.479 268.441C137.031 267.779 138.117 265.815 138.317 264.954C138.549 265.253 138.096 266.403 138.048 266.881L138.064 266.871ZM134.143 281.947C134.436 282.255 134.608 282.657 134.628 283.081C134.016 282.992 133.199 282.882 133.363 282.031C133.426 281.653 133.916 281.8 134.127 281.957L134.143 281.947ZM153.713 305.519C153.254 305.756 153.075 304.905 153.354 304.669C153.829 304.264 154.335 305.199 153.697 305.53L153.713 305.519ZM159.278 310.561C158.498 309.584 157.803 308.555 157.086 307.541C156.893 307.391 156.752 307.186 156.68 306.953C155.304 304.968 153.976 302.957 152.601 300.961C151.495 299.487 150.469 297.955 149.528 296.372C148.576 294.689 147.741 292.944 147.03 291.147C146.948 290.767 146.824 290.397 146.661 290.044C146.471 289.782 146.102 289.813 145.965 289.425C145.828 289.036 146.17 288.831 146.223 288.495C146.164 288.049 146.03 287.616 145.828 287.214C145.301 285.707 144.278 284.315 143.915 282.782C143.551 281.249 142.86 279.71 142.613 278.124C142.312 276.286 141.833 274.49 141.406 272.679C143.82 277.657 146.339 282.577 148.669 287.608C149.918 290.302 151.373 293.027 152.4 295.81C152.959 297.322 153.607 298.803 154.182 300.31C154.672 301.602 155.051 302.936 155.578 304.201C155.821 304.779 156.069 305.346 156.306 305.924C156.385 306.129 156.517 306.575 156.68 306.974C156.817 307.168 156.965 307.357 157.102 307.557C157.397 307.672 157.302 307.378 157.27 307.1C157.145 306.444 156.951 305.804 156.691 305.189C155.853 302.883 154.972 300.568 153.976 298.325C151.763 293.352 149.67 288.348 147.499 283.333C146.207 280.356 144.716 277.42 143.203 274.559C142.507 273.246 141.975 271.87 141.211 270.583C140.447 269.297 140.204 267.858 139.682 266.451C140.968 267.8 142.365 268.992 143.735 270.253C145.037 271.539 146.246 272.917 147.351 274.375C149.501 277.032 151.662 279.626 153.676 282.404C154.99 284.242 156.034 286.257 156.775 288.39C157.829 291.389 159.268 294.266 159.547 297.475C159.953 302.201 159.263 306.927 160.153 311.595L159.278 310.561Z" fill="#75645D"/>
<path d="M97.9491 391.78L97.6328 391.959C97.7435 391.909 97.8494 391.849 97.9491 391.78Z" fill="#75645D"/>
<path d="M99.166 15.5866C98.6547 14.2623 98.0287 12.985 97.2949 11.769C95.4239 8.94384 92.778 6.59656 90.09 4.58011C88.7803 3.49006 87.3281 2.58208 85.7734 1.88101C84.303 1.3338 82.8019 0.872658 81.2776 0.499949C80.5397 0.300405 78.2312 -0.461011 77.6303 0.405432C76.9399 1.39265 79.5172 2.33786 80.0601 2.57942C81.5147 3.23581 83.0274 3.68216 84.5242 4.23353C86.1371 4.83217 87.4758 5.83514 88.883 6.80136C91.5184 8.62351 94.4067 10.871 96.0774 13.6699C96.8522 14.9722 97.3213 16.4268 98.0592 17.7501C98.7233 18.9473 99.5033 20.0501 99.925 21.3734C100.699 23.9192 101.293 26.5162 101.701 29.1451C101.981 28.83 102.228 28.4834 102.655 28.536C103.082 28.5885 103.767 29.3184 104.099 29.5862C103.404 26.2464 102.708 22.5286 101.216 19.4357C100.589 18.1176 99.751 16.9256 99.166 15.5866ZM88.2822 4.29654C87.8869 4.23353 87.6919 3.48262 88.1979 3.49837C88.7039 3.51413 88.9516 4.40682 88.2822 4.29654Z" fill="#75645D"/>
<path d="M103.842 32.7421C103.931 32.6477 104.285 32.7893 104.538 32.8889C104.446 32.804 104.333 32.7454 104.21 32.7195C104.088 32.6937 103.96 32.7015 103.842 32.7421Z" fill="#75645D"/>
<path d="M103.842 32.742C103.961 32.7013 104.088 32.6935 104.211 32.7194C104.333 32.7453 104.446 32.8039 104.538 32.889L104.754 32.973C104.649 32.3902 104.538 31.8125 104.427 31.2297C104.338 30.7833 104.427 30.8148 103.953 30.7045C103.648 30.6362 103.331 30.6426 103.029 30.7231C102.727 30.8035 102.449 30.9558 102.219 31.1667H102.029L102.298 33.1043C102.156 32.9573 102.003 32.8155 101.861 32.6685C101.623 32.4552 101.404 32.2215 101.207 31.9701C101.081 31.7915 101.054 31.5342 100.928 31.3662C100.722 31.0931 100.801 31.1929 100.469 31.0406C100.19 30.9615 99.904 30.9053 99.6153 30.8726C98.9776 30.7255 98.3451 30.5313 97.7232 30.3475C97.1012 30.1637 94.9297 29.9274 95.2723 29.1134C95.6992 28.1 97.8022 28.7038 98.4663 29.0189C97.5012 27.8947 96.4773 26.822 95.3988 25.8052C94.2587 24.8661 93.1829 23.8521 92.1785 22.77C91.2253 21.7712 90.3446 20.706 89.5432 19.5826C88.8 18.4483 88.2571 17.209 87.3559 16.1798C86.5811 15.2924 85.6061 14.6045 84.9103 13.633C84.1092 12.5355 83.7613 11.1754 83.1183 9.99392C81.9061 7.78318 80.6148 5.34138 78.9387 3.43521C78.1903 2.58452 77.5104 2.50575 77.5157 3.81855C77.6114 5.13459 77.9119 6.42781 78.4064 7.6519C78.8229 8.88676 79.323 10.092 79.9033 11.2595C80.4778 12.4147 80.8572 13.6697 81.4844 14.804C82.1215 15.8638 82.9362 16.8069 83.8931 17.5924C84.3136 17.951 84.7082 18.3388 85.0737 18.7529C85.332 19.0627 85.3742 19.1205 85.6746 19.2307C85.8063 19.278 85.9961 19.2307 86.1542 19.2727C86.5843 19.5172 86.9327 19.8825 87.1556 20.323C87.2294 20.6748 86.7603 21.0214 86.7919 21.305C86.7919 21.3942 86.9448 21.494 86.9764 21.578C87.3378 22.1877 87.7931 22.737 88.3257 23.2059C88.8808 23.815 89.4395 24.4154 90.0017 25.007C91.1026 26.0935 92.2734 27.1074 93.5067 28.0422C94.8507 29.1187 96.0208 30.4577 97.2541 31.655C98.3082 32.7052 99.3623 33.7555 100.416 34.7742C100.806 35.126 102.989 36.5438 102.899 35.5671C104.243 36.2445 105.26 33.5769 104.517 32.8838C104.285 32.7893 103.932 32.6475 103.842 32.742Z" fill="#75645D"/>
<path d="M36.2465 31.9122C31.7349 32.9257 27.2127 33.8079 22.5745 33.9812C19.7759 34.0862 16.9772 33.9812 14.1837 34.186C13.2192 34.2543 12.2442 34.2805 11.2796 34.2595C10.1834 34.2333 9.17139 34.5116 8.09091 34.5693C7.07555 34.6036 6.06425 34.7142 5.06559 34.9002C4.80733 34.9527 2.77288 35.4253 3.15763 35.7298C3.54239 36.0344 5.68226 35.5881 6.25675 35.5408C7.31556 35.512 8.37163 35.419 9.41912 35.2625C10.4438 35.1164 11.4779 35.0462 12.513 35.0524C13.6988 34.9894 14.8795 34.8214 16.0601 34.7636C18.7534 34.6376 21.4361 34.5851 24.1241 34.4013C26.8121 34.2175 29.4843 33.8762 32.1354 33.4508C33.4827 33.2717 34.8122 32.9783 36.1095 32.5739C36.3624 32.4899 37.4429 32.2693 37.522 31.9332C37.6011 31.5972 36.3783 31.8807 36.2465 31.9122Z" fill="#75645D"/>
<path d="M85.7884 6.97459C84.801 5.90799 83.7059 4.94545 82.5207 4.1022C82.41 4.02868 81.4086 3.24626 81.3032 3.61385C81.1977 3.98143 82.4522 4.81636 82.6735 4.9949C86.5849 8.18416 89.9447 11.991 92.6192 16.2639C94.0147 18.5066 95.2919 20.8203 96.4456 23.1955C97.0306 24.3927 97.447 25.6898 98.1111 26.8398C98.3815 27.2824 98.6193 27.7439 98.8226 28.2208C98.9 28.5867 99.0277 28.9401 99.2021 29.2711C99.5237 29.5308 99.9134 29.693 100.325 29.7384C98.0886 24.1296 95.1811 18.8102 91.6652 13.8956C89.869 11.4562 87.9054 9.14366 85.7884 6.97459Z" fill="#75645D"/>
<path d="M47.103 242.027C45.6747 242.132 44.2727 242.468 42.8391 242.578C41.4055 242.689 39.819 242.946 38.3222 243.203C37.7951 243.298 35.0702 243.833 35.3232 244.301C35.534 244.684 38.9441 244.033 39.566 243.97C40.3724 243.891 41.1156 243.555 41.9167 243.445C42.5386 243.371 43.1553 243.345 43.7772 243.256C47.1768 242.731 50.571 242.289 54.0127 242.064C53.8153 241.883 53.5769 241.754 53.3181 241.685C53.0593 241.616 52.7877 241.611 52.5265 241.67C50.7186 241.817 48.895 241.896 47.103 242.027Z" fill="#75645D"/>
</svg>
