  <svg
                width="50"
                height="78"
                viewBox="0 0 50 78"
                fill="none"
                xmlns="http://www.w3.org/2000/svg"
              >
                <mask id="path-1-inside-1_858_9672" fill="white">
                  <path
                    d="M12.0615 77.8014C12.7925 73.5172 13.1757 69.2035 13.8301 64.9094C14.4786 60.5368 15.1743 56.1936 15.4809 51.7915C15.6459 49.328 15.7285 46.8611 15.7285 44.391C15.7285 44.3194 15.6943 44.2508 15.6335 44.2001C15.5727 44.1495 15.4902 44.1211 15.4042 44.1211C15.3182 44.1211 15.2358 44.1495 15.1749 44.2001C15.1141 44.2508 15.08 44.3194 15.08 44.391C15.08 48.6867 14.8265 52.9743 14.3195 57.2536C13.8066 61.5526 13.0283 65.8271 12.5036 70.1261C12.1971 72.6387 11.9141 75.1563 11.4601 77.6591C11.4071 77.9977 12.0497 78.1499 12.0851 77.8014H12.0615Z"
                  />
                </mask>
                <path
                  d="M12.0615 77.8014L10.09 77.465L9.6913 79.8014H12.0615V77.8014ZM13.8301 64.9094L15.8073 65.2107L15.8085 65.2028L13.8301 64.9094ZM15.4809 51.7915L17.476 51.9305L17.4764 51.9253L15.4809 51.7915ZM14.3195 57.2536L16.3054 57.4906L16.3056 57.4889L14.3195 57.2536ZM12.5036 70.1261L10.5184 69.8838L10.5184 69.8838L12.5036 70.1261ZM11.4601 77.6591L9.49225 77.3022L9.48797 77.3258L9.48425 77.3495L11.4601 77.6591ZM12.0851 77.8014L14.0748 78.0034L14.2984 75.8014H12.0851V77.8014ZM14.033 78.1378C14.4067 75.9477 14.6899 73.7592 14.9591 71.6073C15.2298 69.4428 15.4852 67.3244 15.8073 65.2107L11.853 64.6081C11.5207 66.7885 11.2573 68.9739 10.99 71.1109C10.7212 73.2604 10.4473 75.3709 10.09 77.465L14.033 78.1378ZM15.8085 65.2028C16.4515 60.867 17.1627 56.4296 17.476 51.9305L13.4857 51.6526C13.1859 55.9576 12.5057 60.2065 11.8518 64.616L15.8085 65.2028ZM17.4764 51.9253C17.6445 49.4172 17.7285 46.9057 17.7285 44.391H13.7285C13.7285 46.8165 13.6474 49.2388 13.4853 51.6578L17.4764 51.9253ZM17.7285 44.391C17.7285 43.6584 17.3761 43.0485 16.9131 42.663L14.354 45.7373C14.0125 45.453 13.7285 44.9805 13.7285 44.391H17.7285ZM16.9131 42.663C16.4607 42.2865 15.9141 42.1211 15.4042 42.1211V46.1211C15.0664 46.1211 14.6847 46.0126 14.354 45.7373L16.9131 42.663ZM15.4042 42.1211C14.8944 42.1211 14.3477 42.2865 13.8954 42.663L16.4545 45.7373C16.1238 46.0126 15.7421 46.1211 15.4042 46.1211V42.1211ZM13.8954 42.663C13.4323 43.0485 13.08 43.6584 13.08 44.391H17.08C17.08 44.9805 16.7959 45.453 16.4545 45.7373L13.8954 42.663ZM13.08 44.391C13.08 48.6078 12.8311 52.8168 12.3334 57.0183L16.3056 57.4889C16.8218 53.1317 17.08 48.7656 17.08 44.391H13.08ZM12.3335 57.0167C12.0814 59.1303 11.7633 61.2434 11.4385 63.3907C11.1151 65.5279 10.7848 67.7006 10.5184 69.8838L14.4889 70.3684C14.7471 68.2525 15.0683 66.1385 15.3935 63.989C15.7171 61.8495 16.0446 59.676 16.3054 57.4906L12.3335 57.0167ZM10.5184 69.8838C10.2082 72.4257 9.93318 74.8711 9.49225 77.3022L13.428 78.016C13.895 75.4414 14.1859 72.8517 14.4889 70.3683L10.5184 69.8838ZM9.48425 77.3495C9.35925 78.1473 9.67406 78.8207 10.0768 79.2469C10.4454 79.6369 10.8944 79.8449 11.2869 79.936C11.6666 80.0242 12.2237 80.0547 12.7968 79.7926C13.4794 79.4805 13.9913 78.8263 14.0748 78.0034L10.0953 77.5994C10.1611 76.9508 10.5795 76.4082 11.1333 76.155C11.5776 75.9518 11.9708 75.9884 12.192 76.0398C12.4261 76.0942 12.7222 76.2224 12.984 76.4995C13.2801 76.8128 13.5345 77.3403 13.436 77.9687L9.48425 77.3495ZM12.0851 75.8014H12.0615V79.8014H12.0851V75.8014Z"
                  fill="#312624"
                  mask="url(#path-1-inside-1_858_9672)"
                />
                <mask id="path-3-inside-2_858_9672" fill="white">
                  <path
                    d="M42.8984 46.348C42.8984 49.9649 43.1696 53.567 43.5587 57.174C43.9891 61.0755 44.2721 64.9819 44.8263 68.8736C45.2095 71.5384 45.634 74.1982 46.0054 76.863C46.0466 77.2065 46.6952 77.2115 46.6539 76.863C46.0643 72.2254 45.2095 67.6025 44.7732 62.9453C44.4667 59.6818 44.1011 56.4232 43.8417 53.1597C43.659 50.8924 43.5764 48.6202 43.5705 46.348C43.5705 46.2765 43.5364 46.2078 43.4756 46.1572C43.4147 46.1066 43.3323 46.0781 43.2463 46.0781C43.1603 46.0781 43.0778 46.1066 43.017 46.1572C42.9562 46.2078 42.922 46.2765 42.922 46.348H42.8984Z"
                  />
                </mask>
                <path
                  d="M42.8984 46.348V44.348H40.8984V46.348H42.8984ZM43.5587 57.174L41.5703 57.3885L41.5708 57.3933L43.5587 57.174ZM44.8263 68.8736L42.8462 69.1555L42.8466 69.1583L44.8263 68.8736ZM46.0054 76.863L47.9911 76.6245L47.9888 76.6057L47.9862 76.5869L46.0054 76.863ZM46.6539 76.863L48.64 76.6278L48.639 76.6193L48.6379 76.6108L46.6539 76.863ZM44.7732 62.9453L46.7645 62.7588L46.7645 62.7582L44.7732 62.9453ZM43.8417 53.1597L45.8354 53.0012L45.8353 52.999L43.8417 53.1597ZM43.5705 46.348L41.5705 46.348L41.5705 46.3532L43.5705 46.348ZM42.922 46.348V48.348H44.922V46.348H42.922ZM40.8984 46.348C40.8984 50.0624 41.1769 53.7416 41.5703 57.3885L45.5472 56.9595C45.1624 53.3924 44.8984 49.8674 44.8984 46.348H40.8984ZM41.5708 57.3933C41.9891 61.1856 42.2875 65.232 42.8463 69.1555L46.8063 68.5916C46.2567 64.7318 45.9891 60.9654 45.5467 56.9547L41.5708 57.3933ZM42.8466 69.1583C43.2396 71.8905 43.6502 74.4533 44.0245 77.1391L47.9862 76.5869C47.6177 73.9432 47.1794 71.1862 46.8059 68.5889L42.8466 69.1583ZM44.0197 77.1016C44.2174 78.748 45.7434 79.1202 46.353 79.1225C46.7463 79.124 47.3002 79.0277 47.8018 78.6385C48.3964 78.1771 48.735 77.4303 48.64 76.6278L44.6678 77.0983C44.5933 76.47 44.8664 75.8532 45.3497 75.4782C45.7401 75.1753 46.137 75.1216 46.3681 75.1225C46.6143 75.1234 46.9228 75.1849 47.2279 75.3853C47.5668 75.6079 47.9195 76.0284 47.9911 76.6245L44.0197 77.1016ZM48.6379 76.6108C48.0252 71.7913 47.1997 67.4044 46.7645 62.7588L42.7819 63.1318C43.2193 67.8007 44.1034 72.6595 44.6698 77.1152L48.6379 76.6108ZM46.7645 62.7582C46.4529 59.4413 46.0938 56.2511 45.8354 53.0012L41.848 53.3182C42.1085 56.5952 42.4804 59.9223 42.782 63.1323L46.7645 62.7582ZM45.8353 52.999C45.6572 50.7901 45.5763 48.5703 45.5705 46.3429L41.5705 46.3532C41.5766 48.6702 41.6607 50.9947 41.8482 53.3204L45.8353 52.999ZM45.5705 46.348C45.5705 45.6152 45.218 45.0053 44.7551 44.62L42.196 47.6943C41.8548 47.4102 41.5705 46.9377 41.5705 46.348H45.5705ZM44.7551 44.62C44.3029 44.2436 43.7562 44.0781 43.2463 44.0781V48.0781C42.9083 48.0781 42.5266 47.9695 42.196 47.6943L44.7551 44.62ZM43.2463 44.0781C42.7365 44.0781 42.1898 44.2435 41.7375 44.62L44.2965 47.6943C43.9659 47.9696 43.5841 48.0781 43.2463 48.0781V44.0781ZM41.7375 44.62C41.2746 45.0053 40.922 45.6152 40.922 46.348H44.922C44.922 46.9377 44.6378 47.4102 44.2965 47.6943L41.7375 44.62ZM42.922 44.348H42.8984V48.348H42.922V44.348Z"
                  fill="#312624"
                  mask="url(#path-3-inside-2_858_9672)"
                />
                <mask id="path-5-inside-3_858_9672" fill="white">
                  <path
                    d="M17.1189 43.652C15.3502 44.2948 13.334 42.9845 12.0959 42.0668C10.0125 40.4394 8.18954 38.5953 6.67207 36.5802C5.04884 34.5586 3.61588 32.4355 2.38603 30.2299C1.55477 28.7576 0.570236 27.0498 0.652773 25.3665C0.806056 22.049 3.45313 18.869 5.8408 16.3563C7.01907 15.0945 8.3078 13.9069 9.69646 12.8033C11.0701 11.7285 12.7385 10.7127 14.7076 10.7765C16.6767 10.8403 18.3805 11.758 20.0136 12.5039C22.3069 13.5688 24.6415 14.5602 26.9702 15.5613C28.0373 16.0226 29.0926 16.5035 30.1833 16.9305C30.866 17.1389 31.4915 17.4593 32.0227 17.8727C33.3492 19.1143 32.7125 21.2786 31.5098 22.3926C29.352 24.3948 25.4374 24.7384 22.4189 24.3556C19.5301 23.9973 16.4232 22.8391 15.0908 20.5375C14.7604 19.9524 14.5607 19.3222 14.5013 18.6776C14.4659 18.334 13.8174 18.3291 13.8528 18.6776C14.4423 24.493 23.71 26.1419 29.1811 24.2967C30.0454 24.0431 30.8365 23.6418 31.5035 23.1187C32.1706 22.5955 32.6988 21.9621 33.0544 21.2589C33.644 19.9977 33.4907 18.1574 32.1701 17.2446C31.5208 16.8545 30.8158 16.5331 30.0713 16.2876C28.7861 15.7723 27.5362 15.1932 26.2687 14.6485C23.7572 13.5639 21.2929 12.3959 18.7755 11.3114C17.225 10.639 15.5094 10.0501 13.729 10.2661C11.6891 10.5164 10.0207 11.7383 8.61757 12.9014C5.60498 15.4288 2.78103 18.388 1.10082 21.6859C0.306573 23.0611 -0.0680436 24.5781 0.0101482 26.1027C0.14107 26.8774 0.386627 27.6356 0.741202 28.3601C1.81272 30.6618 3.13695 32.8763 4.69707 34.9755C6.33175 37.3262 8.2776 39.5172 10.4982 41.5074C11.9367 42.749 13.9648 44.3537 16.2051 44.3145C16.6302 44.3069 17.0492 44.2284 17.4372 44.0838C17.8205 43.9415 17.4903 43.4802 17.1071 43.5931L17.1189 43.652Z"
                  />
                </mask>
                <path
                  d="M17.1189 43.652L17.8021 45.5316L19.4177 44.9444L19.0799 43.2589L17.1189 43.652ZM12.0959 42.0668L10.8647 43.643L10.8846 43.6585L10.9049 43.6736L12.0959 42.0668ZM6.67207 36.5802L8.26973 35.3771L8.25103 35.3523L8.23157 35.328L6.67207 36.5802ZM2.38603 30.2299L4.13285 29.2558L4.1276 29.2466L2.38603 30.2299ZM0.652773 25.3665L2.65038 25.4645L2.65064 25.4588L0.652773 25.3665ZM5.8408 16.3563L7.29061 17.734L7.29663 17.7277L7.30259 17.7213L5.8408 16.3563ZM9.69646 12.8033L8.46404 11.2281L8.45805 11.2328L8.45209 11.2375L9.69646 12.8033ZM20.0136 12.5039L20.8559 10.6899L20.8445 10.6847L20.0136 12.5039ZM26.9702 15.5613L27.7639 13.7255L27.7602 13.7239L26.9702 15.5613ZM30.1833 16.9305L29.4542 18.7929L29.5259 18.8209L29.5995 18.8434L30.1833 16.9305ZM32.0227 17.8727L33.3894 16.4126L33.323 16.3504L33.2512 16.2945L32.0227 17.8727ZM31.5098 22.3926L30.1507 20.9253L30.1494 20.9265L31.5098 22.3926ZM22.4189 24.3556L22.6705 22.3715L22.6651 22.3708L22.4189 24.3556ZM15.0908 20.5375L13.3493 21.521L13.3546 21.5303L13.3599 21.5395L15.0908 20.5375ZM14.5013 18.6776L16.4929 18.4942L16.4919 18.4834L16.4908 18.4727L14.5013 18.6776ZM13.8528 18.6776L15.8426 18.4758L15.8425 18.4756L13.8528 18.6776ZM29.1811 24.2967L28.618 22.3776L28.5797 22.3888L28.5419 22.4016L29.1811 24.2967ZM33.0544 21.2589L34.8392 22.1615L34.8531 22.1339L34.8662 22.1058L33.0544 21.2589ZM32.1701 17.2446L33.3073 15.5993L33.2547 15.563L33.2 15.5301L32.1701 17.2446ZM30.0713 16.2876L29.327 18.144L29.3853 18.1674L29.445 18.187L30.0713 16.2876ZM26.2687 14.6485L25.4758 16.4846L25.479 16.486L26.2687 14.6485ZM18.7755 11.3114L17.9799 13.1463L17.9842 13.1482L18.7755 11.3114ZM13.729 10.2661L13.4882 8.28062L13.4854 8.28096L13.729 10.2661ZM8.61757 12.9014L7.3412 11.3616L7.33215 11.3692L8.61757 12.9014ZM1.10082 21.6859L2.83273 22.6861L2.85901 22.6406L2.88286 22.5938L1.10082 21.6859ZM0.0101482 26.1027L-1.98723 26.2051L-1.98127 26.3212L-1.96189 26.4359L0.0101482 26.1027ZM0.741202 28.3601L2.55435 27.516L2.54615 27.4984L2.53761 27.481L0.741202 28.3601ZM4.69707 34.9755L6.33909 33.8336L6.3211 33.8078L6.3023 33.7825L4.69707 34.9755ZM10.4982 41.5074L9.16342 42.9968L9.17732 43.0092L9.19144 43.0214L10.4982 41.5074ZM16.2051 44.3145L16.2401 46.3142L16.2409 46.3142L16.2051 44.3145ZM17.4372 44.0838L16.7409 42.2089L16.7389 42.2097L17.4372 44.0838ZM17.1071 43.5931L16.542 41.6746L14.7864 42.1917L15.1461 43.9861L17.1071 43.5931ZM16.4356 41.7723C16.2147 41.8526 15.8253 41.8648 15.1692 41.595C14.5259 41.3303 13.8738 40.8951 13.2869 40.4601L10.9049 43.6736C11.5561 44.1562 12.5312 44.835 13.6476 45.2943C14.7514 45.7483 16.2544 46.0942 17.8021 45.5316L16.4356 41.7723ZM13.3271 40.4907C11.375 38.9658 9.67696 37.2458 8.26973 35.3771L5.07441 37.7833C6.70213 39.9449 8.64997 41.9129 10.8647 43.643L13.3271 40.4907ZM8.23157 35.328C6.67658 33.3914 5.30671 31.3611 4.13283 29.2559L0.639238 31.2039C1.92506 33.5099 3.4211 35.7258 5.11256 37.8324L8.23157 35.328ZM4.1276 29.2466C3.69676 28.4835 3.30897 27.7998 3.02489 27.1129C2.7426 26.4304 2.6293 25.8943 2.65037 25.4645L-1.34483 25.2686C-1.40629 26.522 -1.06859 27.6815 -0.671437 28.6417C-0.276067 29.5977 0.24404 30.504 0.64446 31.2132L4.1276 29.2466ZM2.65064 25.4588C2.70463 24.2903 3.20985 23.0124 4.09134 21.641C4.96676 20.2789 6.1209 18.9649 7.29061 17.734L4.39099 14.9786C3.17302 16.2603 1.80979 17.7927 0.726437 19.4782C-0.350846 21.1543 -1.2458 23.1252 -1.3451 25.2742L2.65064 25.4588ZM7.30259 17.7213C8.41162 16.5336 9.62739 15.4129 10.9408 14.369L8.45209 11.2375C6.98822 12.4009 5.62652 13.6554 4.37901 14.9913L7.30259 17.7213ZM10.9289 14.3784C12.2205 13.3679 13.4098 12.7355 14.6429 12.7754L14.7724 8.77751C12.0673 8.68986 9.91972 10.0892 8.46404 11.2281L10.9289 14.3784ZM14.6429 12.7754C16.1087 12.8229 17.3642 13.4925 19.1826 14.3231L20.8445 10.6847C19.3969 10.0234 17.2447 8.85761 14.7724 8.77751L14.6429 12.7754ZM19.1712 14.3179C21.4973 15.398 23.8647 16.4032 26.1803 17.3987L27.7602 13.7239C25.4183 12.7171 23.1166 11.7397 20.8559 10.6899L19.1712 14.3179ZM26.1766 17.3971C27.1962 17.8378 28.3203 18.349 29.4542 18.7929L30.9124 15.0681C29.865 14.6581 28.8785 14.2074 27.7639 13.7255L26.1766 17.3971ZM29.5995 18.8434C30.063 18.9848 30.4671 19.1964 30.7942 19.451L33.2512 16.2945C32.5159 15.7222 31.6691 15.2929 30.7671 15.0176L29.5995 18.8434ZM30.656 19.3329C30.7086 19.3822 30.804 19.4902 30.7436 19.8415C30.6769 20.2296 30.4404 20.6569 30.1507 20.9253L32.8689 23.8598C33.7818 23.0142 34.4651 21.8024 34.6857 20.5195C34.9127 19.1998 34.6632 17.6049 33.3894 16.4126L30.656 19.3329ZM30.1494 20.9265C29.4564 21.5696 28.3549 22.0479 26.9379 22.2992C25.5436 22.5465 24.0161 22.5421 22.6705 22.3715L22.1673 26.3397C23.8402 26.5518 25.7793 26.5671 27.6364 26.2377C29.4708 25.9124 31.4054 25.2178 32.8702 23.8586L30.1494 20.9265ZM22.6651 22.3708C21.3794 22.2113 20.0985 21.8786 19.0321 21.3701C17.9583 20.858 17.2223 20.2274 16.8217 19.5355L13.3599 21.5395C14.2918 23.1492 15.7754 24.2486 17.3103 24.9806C18.8527 25.7161 20.5697 26.1416 22.1728 26.3404L22.6651 22.3708ZM16.8323 19.5541C16.6354 19.2054 16.5253 18.8467 16.4929 18.4942L12.5097 18.861C12.596 19.7977 12.8854 20.6994 13.3493 21.521L16.8323 19.5541ZM16.4908 18.4727C16.4109 17.6974 15.9643 17.135 15.4867 16.8177C15.0458 16.5248 14.5657 16.4196 14.1581 16.4181C13.7633 16.4166 13.2156 16.5135 12.7182 16.8944C12.1328 17.3427 11.7813 18.0749 11.863 18.8796L15.8425 18.4756C15.9066 19.106 15.6229 19.7082 15.1502 20.0702C14.7656 20.3647 14.3756 20.419 14.1429 20.4181C13.8974 20.4171 13.5839 20.3558 13.2734 20.1496C12.9263 19.919 12.574 19.486 12.5118 18.8824L16.4908 18.4727ZM11.863 18.8793C12.2802 22.9953 15.7425 25.28 19.1196 26.2779C22.5603 27.2946 26.6674 27.2552 29.8202 26.1918L28.5419 22.4016C26.2237 23.1834 22.9614 23.2421 20.2531 22.4419C17.4812 21.6228 16.0149 20.1753 15.8426 18.4758L11.863 18.8793ZM29.7441 26.2158C30.8367 25.8952 31.8587 25.3819 32.7378 24.6924L30.2693 21.5449C29.8143 21.9018 29.2541 22.1909 28.618 22.3776L29.7441 26.2158ZM32.7378 24.6924C33.6175 24.0025 34.3416 23.1454 34.8392 22.1615L31.2696 20.3564C31.0561 20.7787 30.7237 21.1886 30.2693 21.5449L32.7378 24.6924ZM34.8662 22.1058C35.7308 20.2564 35.6724 17.2341 33.3073 15.5993L31.0329 18.8898C31.177 18.9894 31.305 19.1643 31.3592 19.4701C31.4172 19.797 31.3629 20.1547 31.2426 20.412L34.8662 22.1058ZM33.2 15.5301C32.419 15.061 31.5781 14.6785 30.6975 14.3882L29.445 18.187C30.0534 18.3876 30.6225 18.648 31.1402 18.959L33.2 15.5301ZM30.8156 14.4313C29.5546 13.9257 28.4003 13.3877 27.0584 12.811L25.479 16.486C26.6721 16.9987 28.0175 17.6189 29.327 18.144L30.8156 14.4313ZM27.0616 12.8124C25.8244 12.2781 24.5964 11.7223 23.3487 11.1578C22.1064 10.5957 20.8448 10.0252 19.5669 9.47459L17.9842 13.1482C19.2236 13.6822 20.4529 14.2379 21.6999 14.8021C22.9416 15.3639 24.2015 15.9343 25.4758 16.4846L27.0616 12.8124ZM19.5712 9.47645C17.9701 8.78221 15.8322 7.99634 13.4882 8.28062L13.9698 12.2515C15.1866 12.1039 16.4799 12.4959 17.9799 13.1463L19.5712 9.47645ZM13.4854 8.28096C10.8196 8.60804 8.75947 10.186 7.34122 11.3616L9.89393 14.4412C11.2819 13.2906 12.5586 12.4247 13.9725 12.2512L13.4854 8.28096ZM7.33215 11.3692C4.23069 13.9711 1.17506 17.1345 -0.681222 20.778L2.88286 22.5938C4.38701 19.6415 6.97926 16.8865 9.903 14.4336L7.33215 11.3692ZM-0.631092 20.6856C-1.61016 22.3809 -2.08601 24.279 -1.98723 26.2051L2.00752 26.0002C1.94993 24.8773 2.22331 23.7413 2.83273 22.6861L-0.631092 20.6856ZM-1.96189 26.4359C-1.7981 27.4051 -1.49196 28.3468 -1.05521 29.2393L2.53761 27.481C2.26522 26.9244 2.08024 26.3496 1.98219 25.7694L-1.96189 26.4359ZM-1.07195 29.2042C0.0585608 31.6326 1.4532 33.9636 3.09185 36.1685L6.3023 33.7825C4.8207 31.7889 3.56687 29.691 2.55435 27.516L-1.07195 29.2042ZM3.05505 36.1173C4.7819 38.6006 6.83204 40.9073 9.16342 42.9968L11.8331 40.018C9.72317 38.1271 7.8816 36.0519 6.33909 33.8336L3.05505 36.1173ZM9.19144 43.0214C9.92737 43.6566 10.9156 44.4757 12.0601 45.1285C13.2039 45.7809 14.6317 46.3424 16.2401 46.3142L16.17 42.3148C15.5382 42.3259 14.8318 42.1045 14.0419 41.654C13.2526 41.2038 12.5076 40.5997 11.805 39.9933L9.19144 43.0214ZM16.2409 46.3142C16.8862 46.3026 17.5297 46.1837 18.1356 45.958L16.7389 42.2097C16.5686 42.2732 16.3741 42.3111 16.1692 42.3148L16.2409 46.3142ZM18.1336 45.9587C18.6536 45.7656 19.2966 45.307 19.5293 44.4626C19.7461 43.6759 19.4796 43.0017 19.203 42.6029C18.6673 41.8306 17.6232 41.3561 16.542 41.6746L17.6722 45.5116C16.9742 45.7172 16.2868 45.4169 15.9162 44.8826C15.7221 44.6028 15.4902 44.0636 15.6731 43.3999C15.8719 42.6784 16.4125 42.3309 16.7409 42.2089L18.1336 45.9587ZM15.1461 43.9861L15.1579 44.045L19.0799 43.2589L19.0681 43.2L15.1461 43.9861Z"
                  fill="#312624"
                  mask="url(#path-5-inside-3_858_9672)"
                />
                <mask id="path-7-inside-4_858_9672" fill="white">
                  <path
                    d="M40.8014 46.7611C43.0476 46.9182 44.5922 45.4901 45.5178 43.954C46.8325 41.7947 47.3985 39.3213 47.8348 36.9461C48.271 34.5708 48.5363 32.0386 48.7839 29.5848C49.0551 26.8366 49.7567 24.1374 49.963 21.3892C50.2106 18.1012 49.2968 14.1801 45.2466 12.7422C44.4344 12.4457 43.5464 12.3219 42.6625 12.3819C41.7785 12.4419 40.9263 12.6837 40.1824 13.0857C39.104 13.7208 38.1714 14.512 37.4292 15.4217C34.5876 18.6312 29.8653 26.2575 36.2501 28.672C42.4227 30.9982 45.7772 23.3719 46.8089 19.6961C46.9504 19.2054 47.0683 18.7146 47.1568 18.2239C47.2216 17.8853 46.5967 17.7331 46.5319 18.0816C46.1298 20.2896 45.3121 22.431 44.1088 24.427C42.9946 26.2575 41.1611 28.6033 38.343 28.5591C37.6732 28.5652 37.0098 28.449 36.3997 28.2188C35.7895 27.9886 35.2474 27.6499 34.8113 27.2266C34.3752 26.8033 34.0559 26.3056 33.8757 25.7685C33.6954 25.2314 33.6587 24.668 33.7681 24.1178C33.945 21.5708 35.3835 19.0582 36.9812 16.9332C38.4491 14.9702 40.5833 12.5606 43.7315 12.9483C44.6512 13.0958 45.5198 13.4119 46.2745 13.8737C47.0291 14.3355 47.6507 14.9313 48.0942 15.618C49.1907 17.1933 49.4265 19.014 49.3499 20.8052C49.232 23.4798 48.4892 26.1054 48.2121 28.7701C47.988 30.8902 47.7994 33.0152 47.481 35.1499C47.1986 37.4993 46.6257 39.8181 45.7714 42.0695C45.1523 43.586 44.1501 45.598 42.1397 46.1477C41.7036 46.2612 41.2442 46.2996 40.7897 46.2606C40.377 46.2311 40.377 46.7513 40.7897 46.8004L40.8014 46.7611Z"
                  />
                </mask>
                <path
                  d="M40.8014 46.7611L40.9409 44.766L39.3456 44.6545L38.8859 46.1862L40.8014 46.7611ZM45.5178 43.954L43.8095 42.9139L43.8048 42.9218L45.5178 43.954ZM48.7839 29.5848L50.7738 29.7856L50.7743 29.7812L48.7839 29.5848ZM49.963 21.3892L47.9687 21.239L47.9687 21.2395L49.963 21.3892ZM45.2466 12.7422L44.561 14.621L44.5692 14.624L44.5775 14.6269L45.2466 12.7422ZM40.1824 13.0857L39.2316 11.3262L39.1992 11.3437L39.1676 11.3623L40.1824 13.0857ZM37.4292 15.4217L38.9266 16.7475L38.9534 16.7173L38.9789 16.686L37.4292 15.4217ZM36.2501 28.672L35.5427 30.5427L35.5448 30.5435L36.2501 28.672ZM46.8089 19.6961L44.8872 19.1421L44.8834 19.1557L46.8089 19.6961ZM47.1568 18.2239L45.1925 17.8477L45.1904 17.8584L45.1885 17.8692L47.1568 18.2239ZM46.5319 18.0816L44.5656 17.7156L44.5642 17.7233L46.5319 18.0816ZM44.1088 24.427L45.8172 25.4669L45.8216 25.4596L44.1088 24.427ZM38.343 28.5591L38.3744 26.5594L38.3497 26.559L38.325 26.5592L38.343 28.5591ZM33.7681 24.1178L35.7297 24.5079L35.7545 24.3832L35.7633 24.2564L33.7681 24.1178ZM36.9812 16.9332L38.5797 18.1351L38.5828 18.131L36.9812 16.9332ZM43.7315 12.9483L44.0482 10.9735L44.0122 10.9677L43.9759 10.9633L43.7315 12.9483ZM48.0942 15.618L46.4141 16.7031L46.4329 16.7322L46.4527 16.7606L48.0942 15.618ZM49.3499 20.8052L51.348 20.8933L51.3481 20.8907L49.3499 20.8052ZM48.2121 28.7701L50.201 28.9803L50.2014 28.977L48.2121 28.7701ZM47.481 35.1499L45.5029 34.8549L45.4987 34.883L45.4953 34.9112L47.481 35.1499ZM45.7714 42.0695L47.623 42.8254L47.6324 42.8024L47.6413 42.7791L45.7714 42.0695ZM42.1397 46.1477L42.6435 48.0832L42.6553 48.0801L42.6672 48.0769L42.1397 46.1477ZM40.7897 46.2606L40.9608 44.2679L40.9464 44.2667L40.932 44.2656L40.7897 46.2606ZM40.7897 46.8004L40.5535 48.7864L42.2221 48.9848L42.7052 47.3754L40.7897 46.8004ZM40.6619 48.7563C43.9827 48.9884 46.1209 46.8283 47.2309 44.9863L43.8048 42.9218C43.0636 44.1519 42.1126 44.8479 40.9409 44.766L40.6619 48.7563ZM47.2261 44.9941C48.7469 42.4962 49.3616 39.7042 49.8019 37.3074L45.8677 36.5848C45.4354 38.9385 44.9181 41.0932 43.8096 42.9139L47.2261 44.9941ZM49.8019 37.3074C50.2549 34.8408 50.5271 32.231 50.7738 29.7856L46.794 29.384C46.5456 31.8461 46.2872 34.3009 45.8677 36.5848L49.8019 37.3074ZM50.7743 29.7812C50.9012 28.495 51.1295 27.2128 51.3687 25.8272C51.6029 24.4702 51.8462 23.0208 51.9574 21.539L47.9687 21.2395C47.8736 22.5058 47.6629 23.7801 47.427 25.1468C47.196 26.4849 46.9379 27.9264 46.7936 29.3884L50.7743 29.7812ZM51.9574 21.5394C52.2296 17.9252 51.2574 12.7538 45.9158 10.8574L44.5775 14.6269C47.3363 15.6063 48.1917 18.2771 47.9687 21.239L51.9574 21.5394ZM45.9323 10.8634C44.851 10.4687 43.6828 10.3081 42.5271 10.3865L42.7978 14.3773C43.41 14.3358 44.0178 14.4227 44.561 14.621L45.9323 10.8634ZM42.5271 10.3865C41.3715 10.4649 40.2393 10.7816 39.2316 11.3262L41.1333 14.8452C41.6133 14.5858 42.1855 14.4189 42.7978 14.3773L42.5271 10.3865ZM39.1676 11.3623C37.8986 12.1095 36.7811 13.0524 35.8796 14.1573L38.9789 16.686C39.5617 15.9716 40.3093 15.332 41.1973 14.8091L39.1676 11.3623ZM35.9318 14.0959C34.4178 15.8059 32.3092 18.7796 31.4552 21.8009C31.0246 23.324 30.8513 25.0767 31.4665 26.7314C32.1137 28.4719 33.5082 29.7733 35.5427 30.5427L36.9575 26.8013C35.7996 26.3634 35.3901 25.8061 35.2157 25.3373C35.0095 24.7827 34.9972 23.9756 35.3043 22.889C35.9256 20.6912 37.599 18.247 38.9266 16.7475L35.9318 14.0959ZM35.5448 30.5435C37.5187 31.2874 39.3839 31.2635 41.0554 30.6426C42.6799 30.0391 43.9787 28.9265 44.9902 27.7194C46.9893 25.334 48.1834 22.2003 48.7345 20.2366L44.8834 19.1557C44.4028 20.8678 43.4037 23.385 41.9245 25.1502C41.1969 26.0184 40.4352 26.6059 39.6624 26.893C38.9366 27.1626 38.0678 27.2197 36.9554 26.8005L35.5448 30.5435ZM48.7307 20.2502C48.8884 19.703 49.023 19.1453 49.1251 18.5786L45.1885 17.8692C45.1137 18.284 45.0124 18.7078 44.8872 19.1421L48.7307 20.2502ZM49.1211 18.6001C49.2695 17.8251 48.9968 17.1353 48.5863 16.6764C48.215 16.2613 47.7525 16.0428 47.3516 15.9484C46.9558 15.8551 46.4123 15.8349 45.8582 16.0796C45.2226 16.3602 44.7095 16.9424 44.5656 17.7156L48.4981 18.4475C48.3866 19.0465 47.976 19.5171 47.4738 19.7388C47.0531 19.9245 46.6739 19.8982 46.4343 19.8418C46.1896 19.7841 45.8753 19.6454 45.6049 19.3431C45.2954 18.9971 45.0765 18.4533 45.1925 17.8477L49.1211 18.6001ZM44.5642 17.7233C44.2073 19.6838 43.4791 21.5978 42.396 23.3944L45.8216 25.4596C47.1452 23.2642 48.0524 20.8953 48.4995 18.4398L44.5642 17.7233ZM42.4004 23.3871C41.2782 25.2307 39.9766 26.5845 38.3744 26.5594L38.3117 30.5589C42.3455 30.6221 44.711 27.2843 45.8172 25.4669L42.4004 23.3871ZM38.325 26.5592C37.8955 26.5631 37.4782 26.4881 37.1057 26.3476L35.6936 30.09C36.5415 30.4099 37.4508 30.5673 38.3611 30.559L38.325 26.5592ZM37.1057 26.3476C36.7331 26.207 36.4297 26.0103 36.2044 25.7916L33.4182 28.6616C34.065 29.2895 34.846 29.7702 35.6936 30.09L37.1057 26.3476ZM36.2044 25.7916C35.9803 25.574 35.8431 25.3449 35.7717 25.1322L31.9796 26.4047C32.2686 27.2662 32.7702 28.0325 33.4182 28.6616L36.2044 25.7916ZM35.7717 25.1322C35.7013 24.9222 35.689 24.7125 35.7297 24.5079L31.8065 23.7278C31.6284 24.6234 31.6896 25.5406 31.9796 26.4047L35.7717 25.1322ZM35.7633 24.2564C35.8987 22.3065 37.0406 20.1822 38.5797 18.1351L35.3826 15.7313C33.7264 17.9341 31.9913 20.8351 31.7729 23.9793L35.7633 24.2564ZM38.5828 18.131C40.1027 16.0986 41.5929 14.7 43.487 14.9333L43.9759 10.9633C39.5737 10.4212 36.7956 13.8418 35.3795 15.7354L38.5828 18.131ZM43.4148 14.9231C44.0907 15.0315 44.7101 15.2611 45.2305 15.5796L47.3184 12.1677C46.3296 11.5627 45.2117 11.1601 44.0482 10.9735L43.4148 14.9231ZM45.2305 15.5796C45.7506 15.8979 46.1465 16.2887 46.4141 16.7031L49.7742 14.5329C49.1549 13.5739 48.3075 12.773 47.3184 12.1677L45.2305 15.5796ZM46.4527 16.7606C47.1946 17.8264 47.4194 19.1387 47.3517 20.7197L51.3481 20.8907C51.4337 18.8893 51.1869 16.5602 49.7357 14.4754L46.4527 16.7606ZM47.3518 20.7172C47.2992 21.9115 47.1055 23.1237 46.8715 24.4417C46.6441 25.7223 46.3709 27.1393 46.2228 28.5633L50.2014 28.977C50.3304 27.7362 50.5671 26.5081 50.8099 25.1411C51.046 23.8114 51.2827 22.3735 51.348 20.8933L47.3518 20.7172ZM46.2232 28.56C45.9945 30.7242 45.8129 32.7762 45.5029 34.8549L49.4592 35.4449C49.7859 33.2541 49.9816 31.0562 50.201 28.9803L46.2232 28.56ZM45.4953 34.9112C45.2326 37.0967 44.6993 39.2575 43.9014 41.36L47.6413 42.7791C48.5521 40.3787 49.1646 37.9019 49.4667 35.3886L45.4953 34.9112ZM43.9197 41.3137C43.6278 42.0287 43.3017 42.7133 42.8856 43.2601C42.4818 43.7909 42.0685 44.0938 41.6123 44.2185L42.6672 48.0769C45.7234 47.2413 47.0304 44.2771 47.623 42.8254L43.9197 41.3137ZM41.636 44.2122C41.4226 44.2677 41.1916 44.2877 40.9608 44.2679L40.6185 48.2532C41.2968 48.3115 41.9845 48.2547 42.6435 48.0832L41.636 44.2122ZM40.932 44.2656C40.4036 44.2279 39.7652 44.3587 39.2363 44.8241C38.7157 45.2823 38.4801 45.912 38.4801 46.501C38.4801 47.7356 39.4317 48.653 40.5535 48.7864L41.0258 44.8144C41.7349 44.8987 42.4801 45.5315 42.4801 46.501C42.4801 46.9576 42.2962 47.4597 41.8788 47.827C41.453 48.2017 40.9694 48.2785 40.6473 48.2555L40.932 44.2656ZM42.7052 47.3754L42.717 47.3361L38.8859 46.1862L38.8741 46.2254L42.7052 47.3754Z"
                  fill="#312624"
                  mask="url(#path-7-inside-4_858_9672)"
                />
                <mask id="path-9-inside-5_858_9672" fill="white">
                  <path
                    d="M44.6921 24.2969C45.3797 24.3954 46.0861 24.3486 46.7463 24.1608C47.4066 23.973 47.9996 23.6503 48.4711 23.2221C48.5296 23.1703 48.5621 23.1019 48.5621 23.0308C48.5621 22.9596 48.5296 22.8912 48.4711 22.8394C48.441 22.8141 48.4052 22.7941 48.3657 22.7805C48.3263 22.7668 48.284 22.7598 48.2412 22.7598C48.1985 22.7598 48.1562 22.7668 48.1167 22.7805C48.0772 22.7941 48.0414 22.8141 48.0113 22.8394C47.6229 23.2013 47.132 23.4767 46.5832 23.6404C46.0344 23.8041 45.4451 23.8509 44.869 23.7767C44.7862 23.7596 44.6988 23.7694 44.6243 23.804C44.5499 23.8387 44.494 23.8956 44.4681 23.9632C44.4461 24.0321 44.4572 24.1055 44.499 24.1678C44.5408 24.23 44.61 24.2764 44.6921 24.2969Z"
                  />
                </mask>
                <path
                  d="M44.6921 24.2969L44.2065 26.237L44.3066 26.2621L44.4086 26.2767L44.6921 24.2969ZM48.4711 23.2221L47.1438 21.7261L47.1352 21.7337L47.1267 21.7415L48.4711 23.2221ZM48.5621 23.0308L50.5621 23.0308L48.5621 23.0308ZM48.4711 22.8394L49.7985 21.3433L49.777 21.3242L49.7549 21.3058L48.4711 22.8394ZM48.2412 22.7598L48.2412 20.7598L48.2412 22.7598ZM48.0113 22.8394L46.7275 21.3058L46.6867 21.34L46.6477 21.3763L48.0113 22.8394ZM44.869 23.7767L44.4653 25.7355L44.5389 25.7507L44.6134 25.7603L44.869 23.7767ZM44.4681 23.9632L42.6006 23.2472L42.5801 23.3008L42.5627 23.3554L44.4681 23.9632ZM44.4086 26.2767C45.3706 26.4144 46.36 26.35 47.2934 26.0845L46.1992 22.2371C45.8121 22.3472 45.3889 22.3763 44.9756 22.3171L44.4086 26.2767ZM47.2934 26.0845C48.2265 25.8191 49.0985 25.3539 49.8156 24.7028L47.1267 21.7415C46.9008 21.9466 46.5867 22.1269 46.1992 22.2371L47.2934 26.0845ZM49.7985 24.7182C50.2374 24.3287 50.5621 23.7341 50.5621 23.0308L46.5621 23.0308C46.5621 22.4696 46.8217 22.0119 47.1438 21.7261L49.7985 24.7182ZM50.5621 23.0308C50.5621 22.3274 50.2374 21.7328 49.7985 21.3433L47.1438 24.3354C46.8217 24.0496 46.5621 23.5919 46.5621 23.0308L50.5621 23.0308ZM49.7549 21.3058C49.527 21.115 49.2748 20.9787 49.02 20.8905L47.7115 24.6704C47.5356 24.6095 47.355 24.5133 47.1873 24.3729L49.7549 21.3058ZM49.02 20.8905C48.7651 20.8023 48.5013 20.7598 48.2412 20.7598L48.2412 24.7598C48.0666 24.7598 47.8874 24.7313 47.7115 24.6704L49.02 20.8905ZM48.2412 20.7598C47.9812 20.7598 47.7174 20.8022 47.4625 20.8905L48.7709 24.6704C48.5949 24.7314 48.4158 24.7598 48.2412 24.7598L48.2412 20.7598ZM47.4625 20.8905C47.2076 20.9787 46.9554 21.115 46.7275 21.3058L49.2951 24.3729C49.1274 24.5133 48.9469 24.6095 48.7709 24.6704L47.4625 20.8905ZM46.6477 21.3763C46.5023 21.5118 46.2887 21.6411 46.0115 21.7238L47.1549 25.5569C47.9753 25.3122 48.7436 24.8908 49.3749 24.3024L46.6477 21.3763ZM46.0115 21.7238C45.7346 21.8064 45.4274 21.8321 45.1246 21.7931L44.6134 25.7603C45.4629 25.8698 46.3341 25.8017 47.1549 25.5569L46.0115 21.7238ZM45.2727 21.8179C44.7825 21.7169 44.2566 21.7693 43.7808 21.9906L45.4679 25.6174C45.1409 25.7695 44.7899 25.8024 44.4653 25.7355L45.2727 21.8179ZM43.7808 21.9906C43.3039 22.2125 42.8378 22.6286 42.6006 23.2472L46.3356 24.6791C46.1502 25.1625 45.7959 25.4649 45.4679 25.6174L43.7808 21.9906ZM42.5627 23.3554C42.3475 24.03 42.4709 24.735 42.8385 25.2825L46.1595 23.053C46.4435 23.476 46.5447 24.0343 46.3735 24.571L42.5627 23.3554ZM42.8385 25.2825C43.1919 25.8091 43.7101 26.1128 44.2065 26.237L45.1777 22.3567C45.51 22.4399 45.8896 22.651 46.1595 23.053L42.8385 25.2825Z"
                  fill="#312624"
                  mask="url(#path-9-inside-5_858_9672)"
                />
                <mask id="path-11-inside-6_858_9672" fill="white">
                  <path
                    d="M41.6367 13.0219C42.2263 9.62585 41.2771 5.51335 36.7081 4.52203C34.6447 4.08035 32.145 4.19322 30.3822 5.26306C28.7669 6.24457 27.9179 7.82479 27.4345 9.3952C26.9426 11.3203 26.7288 13.2874 26.7978 15.2548C26.7978 15.3264 26.8319 15.395 26.8927 15.4456C26.9535 15.4963 27.036 15.5247 27.122 15.5247C27.208 15.5247 27.2905 15.4963 27.3513 15.4456C27.4121 15.395 27.4463 15.3264 27.4463 15.2548C27.4105 13.6969 27.5289 12.1393 27.8 10.5975C28.0948 9.12529 28.6254 7.53034 29.8457 6.37216C32.4633 3.9184 38.0582 4.40915 40.0567 7.23098C41.2358 8.90445 41.3184 11 40.9882 12.8795C40.9293 13.2182 41.5778 13.3703 41.6131 13.0219H41.6367Z"
                  />
                </mask>
                <path
                  d="M41.6367 13.0219V15.0219H43.3194L43.6072 13.3639L41.6367 13.0219ZM36.7081 4.52203L37.1322 2.56749L37.1267 2.56633L36.7081 4.52203ZM30.3822 5.26306L29.3445 3.55331L29.3437 3.55384L30.3822 5.26306ZM27.4345 9.3952L25.523 8.80677L25.5087 8.85311L25.4967 8.90009L27.4345 9.3952ZM26.7978 15.2548L28.7978 15.2548L28.7978 15.2198L28.7965 15.1848L26.7978 15.2548ZM27.4463 15.2548H29.4463V15.2319L29.4457 15.2089L27.4463 15.2548ZM27.8 10.5975L25.8389 10.2049L25.8343 10.228L25.8302 10.2511L27.8 10.5975ZM29.8457 6.37216L28.4779 4.913L28.469 4.92147L29.8457 6.37216ZM40.0567 7.23098L41.6917 6.07903L41.6888 6.07503L40.0567 7.23098ZM40.9882 12.8795L39.0184 12.5335L39.0178 12.5365L40.9882 12.8795ZM41.6131 13.0219V11.0219H39.8059L39.6234 12.8199L41.6131 13.0219ZM43.6072 13.3639C43.9493 11.3936 43.8754 9.07611 42.9197 7.02535C41.9218 4.88417 40.0297 3.19616 37.1322 2.5675L36.284 6.47655C37.9555 6.83921 38.8225 7.70312 39.2941 8.71501C39.8078 9.81734 39.9137 11.2541 39.6662 12.6798L43.6072 13.3639ZM37.1267 2.56633C34.7806 2.06415 31.7017 2.1227 29.3445 3.55331L31.4199 6.97281C32.5882 6.26375 34.5087 6.09655 36.2895 6.47772L37.1267 2.56633ZM29.3437 3.55384C27.1451 4.88969 26.0812 6.99336 25.523 8.80677L29.346 9.98362C29.7546 8.65622 30.3886 7.59944 31.4208 6.97229L29.3437 3.55384ZM25.4967 8.90009C24.9581 11.008 24.7233 13.1654 24.799 15.3248L28.7965 15.1848C28.7344 13.4095 28.927 11.6326 29.3722 9.89031L25.4967 8.90009ZM24.7978 15.2548C24.7978 15.9874 25.1501 16.5973 25.6132 16.9828L28.1723 13.9085C28.5138 14.1928 28.7978 14.6654 28.7978 15.2548L24.7978 15.2548ZM25.6132 16.9828C26.0655 17.3592 26.6121 17.5247 27.122 17.5247V13.5247C27.4599 13.5247 27.8416 13.6333 28.1723 13.9085L25.6132 16.9828ZM27.122 17.5247C27.6319 17.5247 28.1786 17.3592 28.6308 16.9828L26.0718 13.9085C26.4024 13.6333 26.7841 13.5247 27.122 13.5247V17.5247ZM28.6308 16.9828C29.0939 16.5973 29.4463 15.9874 29.4463 15.2548H25.4463C25.4463 14.6654 25.7303 14.1928 26.0718 13.9085L28.6308 16.9828ZM29.4457 15.2089C29.413 13.7831 29.5213 12.3568 29.7698 10.944L25.8302 10.2511C25.5364 11.9217 25.408 13.6107 25.4468 15.3006L29.4457 15.2089ZM29.7611 10.9902C30.0297 9.64839 30.4547 8.55152 31.2225 7.82286L28.469 4.92147C26.796 6.50916 26.1598 8.60218 25.8389 10.2049L29.7611 10.9902ZM31.2135 7.8313C31.9809 7.11201 33.4009 6.67831 35.0132 6.81598C36.6363 6.95457 37.8814 7.62 38.4246 8.38693L41.6888 6.07503C40.2334 4.02013 37.6818 3.02928 35.3535 2.83048C33.0143 2.63075 30.3282 3.17855 28.4779 4.91302L31.2135 7.8313ZM38.4218 8.38293C39.1615 9.43276 39.3061 10.8954 39.0184 12.5335L42.9581 13.2255C43.3306 11.1045 43.3102 8.37614 41.6917 6.07903L38.4218 8.38293ZM39.0178 12.5365C38.8776 13.3419 39.1901 14.0288 39.5989 14.4636C39.9706 14.8589 40.4237 15.0665 40.8148 15.1569C41.1939 15.2446 41.7485 15.2744 42.3191 15.0153C42.9987 14.7067 43.5186 14.0549 43.6029 13.2239L39.6234 12.8199C39.6901 12.163 40.1155 11.6228 40.6654 11.3732C41.1064 11.173 41.4959 11.2089 41.7159 11.2598C41.9477 11.3134 42.2476 11.4412 42.5131 11.7237C42.8158 12.0456 43.0693 12.5865 42.9586 13.2226L39.0178 12.5365ZM41.6131 15.0219H41.6367V11.0219H41.6131V15.0219Z"
                  fill="#312624"
                  mask="url(#path-11-inside-6_858_9672)"
                />
                <mask id="path-13-inside-7_858_9672" fill="white">
                  <path
                    d="M30.4076 5.75304C30.6022 2.69565 27.4186 0.526525 23.9815 0.232073C22.2239 0.0612035 20.4548 0.460129 19.0411 1.34608C17.5908 2.28342 16.96 3.79985 16.7183 5.2721C16.4959 7.12315 16.5812 8.99087 16.9718 10.8225C17.0307 11.166 17.6557 11.0188 17.5967 10.6802C17.322 9.25422 17.2055 7.81022 17.2489 6.36648C17.3314 4.93839 17.6616 3.36307 18.8407 2.25397C21.0043 0.222259 25.0309 0.408743 27.5011 1.91045C28.2412 2.34109 28.837 2.92183 29.2321 3.59769C29.6273 4.27354 29.8086 5.02216 29.7591 5.77267C29.7591 6.1162 30.384 6.1162 30.4076 5.77267V5.75304Z"
                  />
                </mask>
                <path
                  d="M30.4076 5.75304L28.4117 5.62603L28.4076 5.68947V5.75304H30.4076ZM23.9815 0.232073L23.788 2.22269L23.7994 2.2238L23.8108 2.22477L23.9815 0.232073ZM19.0411 1.34608L17.979 -0.348617L17.9672 -0.341206L17.9555 -0.333631L19.0411 1.34608ZM16.7183 5.2721L14.7447 4.94808L14.7377 4.9907L14.7326 5.03358L16.7183 5.2721ZM16.9718 10.8225L18.943 10.4842L18.9362 10.4447L18.9278 10.4054L16.9718 10.8225ZM17.5967 10.6802L19.5671 10.3371L19.564 10.3194L19.5606 10.3018L17.5967 10.6802ZM17.2489 6.36648L15.2522 6.25108L15.2506 6.27875L15.2498 6.30645L17.2489 6.36648ZM18.8407 2.25397L17.4716 0.796008L17.4703 0.79718L18.8407 2.25397ZM27.5011 1.91045L26.4622 3.61943L26.4786 3.62941L26.4952 3.63908L27.5011 1.91045ZM29.7591 5.77267L27.7635 5.64098L27.7591 5.70675L27.7591 5.77267L29.7591 5.77267ZM30.4076 5.77267L32.4029 5.90964L32.4076 5.84123V5.77267H30.4076ZM32.4036 5.88005C32.5522 3.54486 31.3812 1.6554 29.8061 0.394903C28.252 -0.848715 26.2053 -1.58474 24.1522 -1.76063L23.8108 2.22477C25.1948 2.34334 26.4584 2.8391 27.3068 3.51801C28.1341 4.18003 28.4576 4.90383 28.4117 5.62603L32.4036 5.88005ZM24.175 -1.75854C22.0052 -1.96949 19.7898 -1.48345 17.979 -0.348617L20.1032 3.04078C21.1197 2.40371 22.4426 2.09189 23.788 2.22269L24.175 -1.75854ZM17.9555 -0.333631C15.8478 1.02858 15.0352 3.17868 14.7447 4.94808L18.6919 5.59612C18.8848 4.42101 19.3338 3.53826 20.1267 3.0258L17.9555 -0.333631ZM14.7326 5.03358C14.4838 7.10431 14.5795 9.19352 15.0158 11.2396L18.9278 10.4054C18.583 8.78821 18.5081 7.14198 18.704 5.51062L14.7326 5.03358ZM15.0006 11.1608C15.1358 11.9483 15.6544 12.5388 16.2926 12.8215C16.8462 13.0667 17.3883 13.0463 17.7798 12.9556C18.1779 12.8633 18.6369 12.6496 19.0087 12.2427C19.4185 11.7942 19.7022 11.1134 19.5671 10.3371L15.6264 11.0232C15.5207 10.4163 15.7484 9.88089 16.0558 9.54451C16.3251 9.24972 16.6352 9.11478 16.8771 9.05876C17.1124 9.00425 17.4909 8.97738 17.9126 9.16418C18.4189 9.38845 18.8373 9.86847 18.943 10.4842L15.0006 11.1608ZM19.5606 10.3018C19.3135 9.01945 19.2091 7.72247 19.248 6.42651L15.2498 6.30645C15.202 7.89798 15.3304 9.489 15.6328 11.0586L19.5606 10.3018ZM19.2455 6.48188C19.3195 5.20286 19.6039 4.28183 20.211 3.71077L17.4703 0.79718C15.7193 2.44432 15.3434 4.67392 15.2522 6.25108L19.2455 6.48188ZM20.2097 3.71194C20.8193 3.13954 21.8244 2.77258 23.0807 2.75703C24.3286 2.74158 25.5775 3.08157 26.4622 3.61943L28.5401 0.201463C26.9546 -0.762384 24.9551 -1.26648 23.0312 -1.24267C21.1156 -1.21896 19.0257 -0.663305 17.4716 0.796009L20.2097 3.71194ZM26.4952 3.63908C26.9658 3.91287 27.3006 4.25656 27.5055 4.6071L30.9587 2.58827C30.3734 1.5871 29.5166 0.769307 28.507 0.181812L26.4952 3.63908ZM27.5055 4.6071C27.7077 4.95295 27.7856 5.3061 27.7635 5.64098L31.7548 5.90436C31.8317 4.73822 31.5468 3.59414 30.9587 2.58827L27.5055 4.6071ZM27.7591 5.77267C27.7591 6.55165 28.1489 7.19596 28.6796 7.58254C29.1508 7.92573 29.6677 8.03031 30.0745 8.03031C30.485 8.03031 30.9818 7.92452 31.4363 7.60923C31.9363 7.26242 32.3506 6.67186 32.4029 5.90964L28.4123 5.6357C28.4529 5.04524 28.7803 4.58351 29.1564 4.32257C29.4871 4.09316 29.8232 4.03031 30.0745 4.03031C30.3221 4.03031 30.6814 4.09196 31.0346 4.34927C31.4475 4.64997 31.7591 5.16545 31.7591 5.77267L27.7591 5.77267ZM32.4076 5.77267V5.75304H28.4076V5.77267H32.4076Z"
                  fill="#312624"
                  mask="url(#path-13-inside-7_858_9672)"
                />
                <mask id="path-15-inside-8_858_9672" fill="white">
                  <path
                    d="M18.2553 2.73598C16.7579 0.061382 12.8845 -0.483352 9.77762 0.375465C8.2424 0.766706 6.89236 1.54737 5.91608 2.60839C4.56011 4.1788 4.32429 6.49515 4.3125 8.36491C4.39007 10.9082 4.80728 13.4364 5.55644 15.9029C5.64487 16.2415 6.26979 16.0992 6.18136 15.7556C5.15555 11.8983 4.09437 7.53554 5.91608 3.71749C7.05391 1.33734 10.8565 0.22824 13.704 0.591397C14.5601 0.682577 15.3747 0.952106 16.0724 1.37502C16.7701 1.79794 17.3282 2.36057 17.6953 3.01081C17.8721 3.32489 18.4322 3.05006 18.2553 2.73598Z"
                  />
                </mask>
                <path
                  d="M18.2553 2.73598L16.5102 3.71303L16.5126 3.71732L18.2553 2.73598ZM9.77762 0.375465L10.2715 2.31352L10.291 2.30854L10.3105 2.30317L9.77762 0.375465ZM5.91608 2.60839L4.44431 1.25417L4.42293 1.27741L4.40229 1.30131L5.91608 2.60839ZM4.3125 8.36491L2.31254 8.3523L2.31231 8.3891L2.31343 8.42589L4.3125 8.36491ZM5.55644 15.9029L7.49154 15.3975L7.48157 15.3594L7.47011 15.3216L5.55644 15.9029ZM6.18136 15.7556L8.11822 15.2571L8.11623 15.2493L8.11418 15.2416L6.18136 15.7556ZM5.91608 3.71749L4.11166 2.85489L4.11101 2.85624L5.91608 3.71749ZM13.704 0.591397L13.451 2.57533L13.4716 2.57795L13.4922 2.58015L13.704 0.591397ZM17.6953 3.01081L19.438 2.02947L19.437 2.02773L17.6953 3.01081ZM20.0004 1.75894C18.8995 -0.207484 16.9898 -1.26647 15.078 -1.71617C13.1696 -2.16507 11.0819 -2.06008 9.24476 -1.55224L10.3105 2.30317C11.5802 1.95219 12.9827 1.90015 14.1621 2.17756C15.338 2.45416 16.1137 3.00485 16.5102 3.71303L20.0004 1.75894ZM9.28371 -1.56259C7.41142 -1.08545 5.70879 -0.120059 4.44431 1.25417L7.38784 3.96261C8.07593 3.2148 9.07339 2.61886 10.2715 2.31352L9.28371 -1.56259ZM4.40229 1.30131C2.53112 3.4684 2.32447 6.46061 2.31254 8.3523L6.31246 8.37753C6.32411 6.52968 6.5891 4.88919 7.42986 3.91547L4.40229 1.30131ZM2.31343 8.42589C2.39645 11.1479 2.84298 13.851 3.64277 16.4841L7.47011 15.3216C6.77158 13.0218 6.38369 10.6685 6.31157 8.30394L2.31343 8.42589ZM3.62134 16.4082C3.81824 17.1622 4.35336 17.6759 4.93705 17.9182C5.46195 18.1361 5.98213 18.1272 6.3866 18.0335C6.78821 17.9404 7.27801 17.7163 7.66233 17.2606C8.09847 16.7435 8.31251 16.0118 8.11822 15.2571L4.24451 16.2542C4.09443 15.6713 4.26352 15.0862 4.60459 14.6818C4.89384 14.3388 5.23848 14.1935 5.48385 14.1367C5.73209 14.0792 6.08498 14.0638 6.4706 14.2239C6.91501 14.4083 7.33886 14.8129 7.49154 15.3975L3.62134 16.4082ZM8.11418 15.2416C7.05476 11.2579 6.26517 7.63024 7.72114 4.57874L4.11101 2.85624C1.92356 7.44084 3.25633 12.5387 4.24854 16.2697L8.11418 15.2416ZM7.72049 4.58009C7.97411 4.04956 8.65948 3.44118 9.85532 3.00422C11.0144 2.58069 12.3552 2.43558 13.451 2.57533L13.957 -1.39253C12.2053 -1.61594 10.221 -1.38808 8.4825 -0.752818C6.78071 -0.130983 4.99587 1.00526 4.11166 2.85489L7.72049 4.58009ZM13.4922 2.58015C14.0727 2.64198 14.603 2.82306 15.0356 3.08533L17.1091 -0.335283C16.1464 -0.918845 15.0475 -1.27682 13.9158 -1.39735L13.4922 2.58015ZM15.0356 3.08533C15.4677 3.34726 15.7706 3.66973 15.9536 3.99389L19.437 2.02773C18.8859 1.05142 18.0724 0.248621 17.1091 -0.335283L15.0356 3.08533ZM15.9526 3.99215C16.7662 5.43705 18.3234 5.23104 18.989 4.90445C19.3745 4.7153 19.8156 4.36629 20.0791 3.80261C20.3784 3.1623 20.3642 2.40491 19.998 1.75464L16.5126 3.71732C16.2349 3.2241 16.217 2.61883 16.4555 2.10858C16.6583 1.67495 16.9815 1.43391 17.2269 1.31346C17.4778 1.19037 17.829 1.10245 18.2382 1.17647C18.7022 1.26039 19.167 1.54836 19.438 2.02947L15.9526 3.99215Z"
                  fill="#312624"
                  mask="url(#path-15-inside-8_858_9672)"
                />
                <mask id="path-17-inside-9_858_9672" fill="white">
                  <path
                    d="M26.5622 24.947C26.9965 25.3523 27.5553 25.6515 28.1786 25.8123C28.8018 25.9732 29.4659 25.9896 30.0995 25.8598C31.3418 25.544 32.4744 24.9834 33.401 24.2256C33.7075 23.9949 33.2477 23.6122 32.9411 23.8428C32.1348 24.5032 31.1621 25.0061 30.0936 25.3151C29.5475 25.4553 28.9642 25.4604 28.4147 25.3297C27.8651 25.199 27.3731 24.9382 26.9984 24.5789C26.7096 24.3237 26.2556 24.7065 26.5386 24.9617L26.5622 24.947Z"
                  />
                </mask>
                <path
                  d="M26.5622 24.947L27.9268 23.4849L26.805 22.4379L25.5032 23.2504L26.5622 24.947ZM30.0995 25.8598L30.5008 27.8191L30.5468 27.8097L30.5922 27.7981L30.0995 25.8598ZM33.401 24.2256L32.1985 22.6274L32.1662 22.6518L32.1348 22.6774L33.401 24.2256ZM32.9411 23.8428L31.7387 22.2446L31.7057 22.2694L31.6738 22.2956L32.9411 23.8428ZM30.0936 25.3151L30.5911 27.2522L30.6202 27.2447L30.6491 27.2364L30.0936 25.3151ZM26.9984 24.5789L28.3827 23.1354L28.3532 23.1071L28.3226 23.08L26.9984 24.5789ZM26.5386 24.9617L25.1992 26.447L26.3187 27.4566L27.5976 26.6584L26.5386 24.9617ZM25.1976 26.4091C25.8961 27.0611 26.7599 27.5118 27.6788 27.7489L28.6783 23.8758C28.3507 23.7912 28.0969 23.6436 27.9268 23.4849L25.1976 26.4091ZM27.6788 27.7489C28.5982 27.9862 29.5705 28.0097 30.5008 27.8191L29.6982 23.9005C29.3613 23.9695 29.0053 23.9602 28.6783 23.8758L27.6788 27.7489ZM30.5922 27.7981C32.0973 27.4155 33.4985 26.7295 34.6671 25.7738L32.1348 22.6774C31.4502 23.2373 30.5863 23.6724 29.6067 23.9214L30.5922 27.7981ZM34.6034 25.8238C35.1214 25.434 35.5599 24.7507 35.4961 23.8884C35.4403 23.1348 35.0252 22.611 34.6805 22.3241C34.0203 21.7745 32.7947 21.4501 31.7387 22.2446L34.1435 25.441C33.3941 26.0048 32.5517 25.7565 32.1214 25.3983C31.8917 25.2071 31.5532 24.8078 31.507 24.1837C31.4528 23.4508 31.8338 22.9018 32.1985 22.6274L34.6034 25.8238ZM31.6738 22.2956C31.0908 22.7731 30.3642 23.1549 29.5381 23.3938L30.6491 27.2364C31.96 26.8573 33.1788 26.2334 34.2084 25.3901L31.6738 22.2956ZM29.596 23.3779C29.3652 23.4372 29.1115 23.4397 28.8774 23.384L27.9519 27.2755C28.8169 27.4812 29.7298 27.4734 30.5911 27.2522L29.596 23.3779ZM28.8774 23.384C28.6427 23.3282 28.4779 23.2267 28.3827 23.1354L25.6142 26.0225C26.2683 26.6497 27.0875 27.0699 27.9519 27.2755L28.8774 23.384ZM28.3226 23.08C27.2752 22.1548 25.9642 22.464 25.2697 23.0459C24.9107 23.3466 24.5363 23.8517 24.4619 24.5449C24.3786 25.3206 24.7073 26.0034 25.1992 26.447L27.878 23.4765C28.2284 23.7924 28.5077 24.3317 28.439 24.9719C28.3792 25.5294 28.0832 25.907 27.8385 26.112C27.3724 26.5025 26.4329 26.7479 25.6743 26.0778L28.3226 23.08ZM27.5976 26.6584L27.6212 26.6436L25.5032 23.2504L25.4796 23.2651L27.5976 26.6584Z"
                  fill="#312624"
                  mask="url(#path-17-inside-9_858_9672)"
                />
                <mask id="path-19-inside-10_858_9672" fill="white">
                  <path
                    d="M26.8081 25.2758C28.677 26.3211 29.355 28.3234 29.7146 30.0705C30.0271 31.8855 30.1572 33.7191 30.1037 35.5522C30.1037 35.6237 30.1379 35.6924 30.1987 35.743C30.2595 35.7936 30.342 35.8221 30.428 35.8221C30.514 35.8221 30.5964 35.7936 30.6573 35.743C30.7181 35.6924 30.7522 35.6237 30.7522 35.5522C30.8131 33.5812 30.6553 31.6099 30.2806 29.6631C29.8679 27.8424 29.0661 25.8941 27.1324 24.8145C26.7904 24.6182 26.4603 25.0893 26.8081 25.2807V25.2758Z"
                  />
                </mask>
                <path
                  d="M26.8081 25.2758L27.7844 23.5303L24.8081 21.8656V25.2758H26.8081ZM29.7146 30.0705L31.6856 29.7311L31.6801 29.6991L31.6735 29.6672L29.7146 30.0705ZM30.1037 35.5522L28.1046 35.4938L28.1037 35.523L28.1037 35.5522L30.1037 35.5522ZM30.6573 35.743L31.9368 37.2802L30.6573 35.743ZM30.7522 35.5522L28.7532 35.4904L28.7522 35.5213V35.5522H30.7522ZM30.2806 29.6631L32.2446 29.2851L32.2384 29.253L32.2311 29.221L30.2806 29.6631ZM27.1324 24.8145L26.1366 26.549L26.147 26.5549L26.1574 26.5607L27.1324 24.8145ZM26.8081 25.2807L25.844 27.033L28.8081 28.664V25.2807H26.8081ZM25.8318 27.0213C26.88 27.6076 27.4129 28.8085 27.7557 30.4737L31.6735 29.6672C31.2971 27.8382 30.4741 25.0346 27.7844 23.5303L25.8318 27.0213ZM27.7436 30.4098C28.0336 32.0941 28.1542 33.7945 28.1046 35.4938L32.1029 35.6105C32.1603 33.6437 32.0206 31.6769 31.6856 29.7311L27.7436 30.4098ZM28.1037 35.5522C28.1037 36.285 28.4563 36.8949 28.9192 37.2802L31.4782 34.2059C31.8195 34.49 32.1037 34.9625 32.1037 35.5522L28.1037 35.5522ZM28.9192 37.2802C29.3715 37.6567 29.9182 37.8221 30.428 37.8221V33.8221C30.7658 33.8221 31.1475 33.9306 31.4782 34.2059L28.9192 37.2802ZM30.428 37.8221C30.9379 37.8221 31.4846 37.6566 31.9368 37.2802L29.3777 34.2059C29.7083 33.9307 30.09 33.8221 30.428 33.8221V37.8221ZM31.9368 37.2802C32.3997 36.8949 32.7522 36.285 32.7522 35.5522H28.7522C28.7522 34.9625 29.0365 34.49 29.3777 34.2059L31.9368 37.2802ZM32.7513 35.6139C32.8168 33.4948 32.6469 31.376 32.2446 29.2851L28.3166 30.0411C28.6636 31.8438 28.8095 33.6677 28.7532 35.4904L32.7513 35.6139ZM32.2311 29.221C31.7773 27.2187 30.7928 24.5676 28.1074 23.0682L26.1574 26.5607C27.3394 27.2207 27.9586 28.4662 28.3301 30.1052L32.2311 29.221ZM28.1281 23.08C26.9371 22.3963 25.663 22.9104 25.0717 23.7574C24.7789 24.1768 24.571 24.7826 24.6975 25.4644C24.834 26.2 25.3059 26.7369 25.844 27.033L27.7723 23.5285C28.1364 23.7288 28.5192 24.1351 28.6304 24.7346C28.7317 25.2804 28.5625 25.7448 28.3515 26.0471C27.9238 26.6597 26.9857 27.0364 26.1366 26.549L28.1281 23.08ZM28.8081 25.2807V25.2758H24.8081V25.2807H28.8081Z"
                  fill="#312624"
                  mask="url(#path-19-inside-10_858_9672)"
                />
                <mask id="path-21-inside-11_858_9672" fill="white">
                  <path
                    d="M29.9136 25.9825C31.3384 26.6828 32.497 27.7033 33.2564 28.927C33.4568 29.2313 34.0169 28.9565 33.8164 28.6522C33.0001 27.3535 31.7596 26.2733 30.2379 25.5359C30.1641 25.5054 30.0791 25.4995 30.0002 25.5193C29.9213 25.5391 29.8544 25.5831 29.8132 25.6425C29.7719 25.7018 29.7593 25.772 29.778 25.8388C29.7966 25.9056 29.8451 25.964 29.9136 26.0021V25.9825Z"
                  />
                </mask>
                <path
                  d="M29.9136 25.9825L30.7958 24.1876L27.9136 22.771V25.9825H29.9136ZM33.2564 28.927L31.557 29.9816L31.5713 30.0047L31.5862 30.0273L33.2564 28.927ZM33.8164 28.6522L32.1232 29.7166L32.1345 29.7346L32.1463 29.7525L33.8164 28.6522ZM30.2379 25.5359L31.11 23.7361L31.0563 23.7101L31.0012 23.6873L30.2379 25.5359ZM29.9136 26.0021L28.9413 27.7499L31.9136 29.4034V26.0021H29.9136ZM29.0314 27.7774C30.1554 28.3299 31.0152 29.1085 31.557 29.9816L34.9557 27.8724C33.9788 26.2982 32.5213 25.0357 30.7958 24.1876L29.0314 27.7774ZM31.5862 30.0273C32.4403 31.3237 33.8928 31.1445 34.5678 30.8133C34.9502 30.6257 35.4173 30.2646 35.6788 29.6568C35.9819 28.9524 35.8933 28.1694 35.4866 27.5519L32.1463 29.7525C31.8397 29.2872 31.7563 28.6526 32.0045 28.0758C32.2111 27.5956 32.5633 27.3413 32.8057 27.2223C33.2007 27.0285 34.2729 26.8346 34.9265 27.8268L31.5862 30.0273ZM35.5097 27.5878C34.4738 25.9399 32.9332 24.6195 31.11 23.7361L29.3658 27.3358C30.586 27.927 31.5264 28.7671 32.1232 29.7166L35.5097 27.5878ZM31.0012 23.6873C30.5234 23.49 29.9997 23.4574 29.5135 23.5794L30.4869 27.4592C30.1585 27.5416 29.8047 27.5209 29.4746 27.3845L31.0012 23.6873ZM29.5135 23.5794C29.0285 23.7011 28.5233 23.9943 28.1712 24.5005L31.4551 26.7844C31.1856 27.172 30.8142 27.3771 30.4869 27.4592L29.5135 23.5794ZM28.1712 24.5005C27.806 25.0256 27.6649 25.7083 27.8517 26.3769L31.7042 25.3008C31.8537 25.8358 31.7377 26.3781 31.4551 26.7844L28.1712 24.5005ZM27.8517 26.3769C28.0332 27.0268 28.4723 27.489 28.9413 27.7499L30.8859 24.2544C31.2179 24.4391 31.56 24.7845 31.7042 25.3008L27.8517 26.3769ZM31.9136 26.0021V25.9825H27.9136V26.0021H31.9136Z"
                  fill="#312624"
                  mask="url(#path-21-inside-11_858_9672)"
                />
                <mask id="path-23-inside-12_858_9672" fill="white">
                  <path
                    d="M18.5715 23.8042C17.2262 24.4495 15.6896 24.7659 14.1381 24.717C12.6291 24.7778 11.1384 24.4205 9.8992 23.7011C9.58085 23.4852 9.11511 23.8631 9.44526 24.0839C10.7701 24.8817 12.3738 25.2939 14.0084 25.2568C15.7167 25.3254 17.4129 24.9848 18.8957 24.2753C19.2495 24.0888 18.9252 23.6226 18.5715 23.8091V23.8042Z"
                  />
                </mask>
                <path
                  d="M18.5715 23.8042H20.5715V20.6266L17.7065 22.0009L18.5715 23.8042ZM14.1381 24.717L14.2011 22.718L14.1293 22.7157L14.0576 22.7186L14.1381 24.717ZM9.8992 23.7011L8.77654 25.3563L8.8345 25.3956L8.89507 25.4308L9.8992 23.7011ZM9.44526 24.0839L8.33328 25.7463L8.37283 25.7728L8.41359 25.7973L9.44526 24.0839ZM14.0084 25.2568L14.0886 23.2584L14.0258 23.2559L13.963 23.2573L14.0084 25.2568ZM18.8957 24.2753L19.7589 26.0795L19.794 26.0627L19.8284 26.0445L18.8957 24.2753ZM18.5715 23.8091H16.5715V27.1244L19.5042 25.5783L18.5715 23.8091ZM17.7065 22.0009C16.6622 22.5019 15.4454 22.7572 14.2011 22.718L14.0751 26.716C15.9338 26.7746 17.7903 26.3972 19.4365 25.6075L17.7065 22.0009ZM14.0576 22.7186C12.9068 22.765 11.7957 22.4896 10.9033 21.9715L8.89507 25.4308C10.4811 26.3515 12.3513 26.7906 14.2186 26.7154L14.0576 22.7186ZM11.0219 22.046C9.98265 21.3411 8.80976 21.6455 8.15436 22.1876C7.81291 22.47 7.36173 23.0204 7.33336 23.8306C7.30104 24.7535 7.83006 25.4097 8.33328 25.7463L10.5572 22.4216C10.8954 22.6477 11.3588 23.1739 11.3309 23.9706C11.307 24.6545 10.9302 25.0826 10.7037 25.2699C10.2782 25.6218 9.4974 25.8453 8.77654 25.3563L11.0219 22.046ZM8.41359 25.7973C10.082 26.8019 12.063 27.3014 14.0537 27.2563L13.963 23.2573C12.6846 23.2863 11.4582 22.9614 10.4769 22.3706L8.41359 25.7973ZM13.9281 27.2552C15.9486 27.3363 17.9701 26.9353 19.7589 26.0795L18.0326 22.4712C16.8556 23.0343 15.4849 23.3145 14.0886 23.2584L13.9281 27.2552ZM19.8284 26.0445C20.3581 25.7653 20.8496 25.2447 21.0028 24.5015C21.146 23.8071 20.9375 23.1869 20.6408 22.7604C20.0406 21.8974 18.7955 21.4301 17.6388 22.0399L19.5042 25.5783C18.7012 26.0016 17.7951 25.6742 17.357 25.0443C17.1414 24.7343 16.9697 24.254 17.0852 23.6937C17.2109 23.0845 17.6102 22.6921 17.963 22.5061L19.8284 26.0445ZM20.5715 23.8091V23.8042H16.5715V23.8091H20.5715Z"
                  fill="#312624"
                  mask="url(#path-23-inside-12_858_9672)"
                />
                <mask id="path-25-inside-13_858_9672" fill="white">
                  <path
                    d="M15.5876 24.9725C15.0629 26.6754 13.5831 28.0249 12.0503 29.1733C11.7438 29.404 12.2036 29.7818 12.5102 29.5512C14.1314 28.3488 15.6701 26.9109 16.2243 25.1344C16.2428 25.0666 16.2292 24.9954 16.1862 24.9358C16.1433 24.8761 16.0743 24.8326 15.9937 24.8143C15.9131 24.7959 15.8271 24.8042 15.7537 24.8373C15.6802 24.8704 15.6249 24.9259 15.5994 24.9921L15.5876 24.9725Z"
                  />
                </mask>
                <path
                  d="M15.5876 24.9725L17.3023 23.9429L14.9957 20.1014L13.6763 24.3835L15.5876 24.9725ZM12.0503 29.1733L10.8512 27.5727L10.8479 27.5751L12.0503 29.1733ZM12.5102 29.5512L11.3188 27.9447L11.3077 27.953L12.5102 29.5512ZM16.2243 25.1344L18.1336 25.73L18.1443 25.6957L18.1537 25.6611L16.2243 25.1344ZM15.5994 24.9921L13.8847 26.0216L15.9922 29.5315L17.4654 25.7118L15.5994 24.9921ZM13.6763 24.3835C13.3575 25.4182 12.3689 26.4356 10.8512 27.5727L13.2495 30.7739C14.7974 29.6142 16.7683 27.9326 17.4989 25.5614L13.6763 24.3835ZM10.8479 27.5751C10.3347 27.9613 9.89058 28.6431 9.95526 29.5108C10.0119 30.2702 10.4334 30.7952 10.7805 31.0804C11.4472 31.6283 12.6669 31.9361 13.7126 31.1494L11.3077 27.953C12.0468 27.3969 12.8834 27.6312 13.3201 27.99C13.5523 28.1808 13.8972 28.5825 13.9442 29.2134C13.9993 29.9525 13.6127 30.5007 13.2528 30.7715L10.8479 27.5751ZM13.7015 31.1576C15.3628 29.9256 17.375 28.1618 18.1336 25.73L14.3151 24.5388C13.9653 25.66 12.9001 26.7721 11.3188 27.9447L13.7015 31.1576ZM18.1537 25.6611C18.3394 24.981 18.1865 24.2908 17.809 23.7668L14.5634 26.1048C14.2719 25.7 14.1463 25.1522 14.2949 24.6077L18.1537 25.6611ZM17.809 23.7668C17.4455 23.2622 16.9299 22.9763 16.4378 22.8642L15.5496 26.7643C15.2187 26.689 14.841 26.4901 14.5634 26.1048L17.809 23.7668ZM16.4378 22.8642C15.9443 22.7518 15.4128 22.797 14.9314 23.0141L16.5759 26.6604C16.2415 26.8113 15.8819 26.84 15.5496 26.7643L16.4378 22.8642ZM14.9314 23.0141C14.449 23.2317 13.9743 23.6476 13.7334 24.2724L17.4654 25.7118C17.2755 26.2041 16.9114 26.5091 16.5759 26.6604L14.9314 23.0141ZM17.3141 23.9626L17.3023 23.9429L13.873 26.002L13.8847 26.0216L17.3141 23.9626Z"
                  fill="#312624"
                  mask="url(#path-25-inside-13_858_9672)"
                />
                <mask id="path-27-inside-14_858_9672" fill="white">
                  <path
                    d="M35.6528 25.0359C35.9594 23.9071 35.8945 22.4987 36.8319 21.5663C37.0951 21.3119 37.4371 21.1224 37.8207 21.0186C38.2043 20.9148 38.6147 20.9005 39.0073 20.9774C39.375 21.0552 39.716 21.2029 40.0034 21.409C40.2909 21.6151 40.517 21.8738 40.664 22.165C40.8647 22.6007 40.9705 23.0627 40.9764 23.5293C41.0345 24.0898 41.0246 24.6537 40.9469 25.2125C40.9247 25.4332 40.8631 25.6499 40.7642 25.8554C40.6934 25.983 40.6463 26.0419 40.5225 26.0566C40.0381 26.0755 39.5539 26.0172 39.0958 25.8849C38.3863 25.7327 37.6875 25.5475 37.0029 25.3303C36.4904 25.1872 35.9951 25.0048 35.5231 24.7856C35.4621 24.7563 35.3897 24.7484 35.3217 24.7636C35.2537 24.7788 35.1957 24.8158 35.1605 24.8666C35.1253 24.9173 35.1158 24.9776 35.1341 25.0342C35.1523 25.0908 35.1968 25.1391 35.2578 25.1684C35.7283 25.3867 36.2216 25.569 36.7317 25.7131C37.4261 25.9377 38.1346 26.131 38.8541 26.2922C39.4021 26.4467 39.9798 26.5149 40.5578 26.4934C41.0884 26.4443 41.2889 26.037 41.395 25.6444C41.5355 25.0368 41.5791 24.4163 41.5247 23.7992C41.5265 23.2782 41.4412 22.7596 41.2712 22.2582C41.1461 21.9221 40.9398 21.6107 40.6651 21.3432C40.3904 21.0757 40.053 20.8577 39.6735 20.7025C39.2736 20.5478 38.8353 20.4743 38.3947 20.4879C37.954 20.5016 37.5235 20.602 37.1385 20.781C35.4406 21.635 35.5231 23.4998 35.134 24.9181C35.0574 25.1929 35.5703 25.3107 35.6469 25.0359H35.6528Z"
                  />
                </mask>
                <path
                  d="M35.6528 25.0359V27.0359H37.1821L37.5829 25.5601L35.6528 25.0359ZM36.8319 21.5663L35.442 20.1282L35.4316 20.1382L35.4214 20.1483L36.8319 21.5663ZM39.0073 20.9774L39.4215 19.0207L39.4065 19.0175L39.3916 19.0146L39.0073 20.9774ZM40.664 22.165L42.4805 21.3281L42.4655 21.2956L42.4493 21.2636L40.664 22.165ZM40.9764 23.5293L38.9766 23.5547L38.9777 23.6452L38.9871 23.7352L40.9764 23.5293ZM40.9469 25.2125L38.966 24.9374L38.9608 24.9744L38.9571 25.0115L40.9469 25.2125ZM40.7642 25.8554L42.5133 26.8252L42.5414 26.7746L42.5665 26.7224L40.7642 25.8554ZM40.5225 26.0566L40.6003 28.0551L40.6797 28.052L40.7586 28.0426L40.5225 26.0566ZM39.0958 25.8849L39.6508 23.9634L39.5836 23.944L39.5152 23.9294L39.0958 25.8849ZM37.0029 25.3303L37.6077 23.424L37.5745 23.4134L37.5409 23.4041L37.0029 25.3303ZM35.5231 24.7856L34.6573 26.5885L34.6689 26.594L34.6806 26.5995L35.5231 24.7856ZM35.2578 25.1684L34.392 26.9713L34.4039 26.977L34.4159 26.9826L35.2578 25.1684ZM36.7317 25.7131L37.3471 23.8102L37.3114 23.7986L37.2754 23.7884L36.7317 25.7131ZM38.8541 26.2922L39.3967 24.3672L39.3443 24.3525L39.2913 24.3406L38.8541 26.2922ZM40.5578 26.4934L40.6322 28.492L40.6872 28.49L40.742 28.4849L40.5578 26.4934ZM41.395 25.6444L43.3257 26.1663L43.3353 26.1308L43.3436 26.095L41.395 25.6444ZM41.5247 23.7992L39.5247 23.7923L39.5244 23.8837L39.5324 23.9748L41.5247 23.7992ZM41.2712 22.2582L43.1653 21.6161L43.1558 21.5881L43.1455 21.5604L41.2712 22.2582ZM39.6735 20.7025L40.4306 18.8514L40.4129 18.8441L40.3951 18.8372L39.6735 20.7025ZM37.1385 20.781L36.2952 18.9675L36.2673 18.9805L36.2399 18.9943L37.1385 20.781ZM35.134 24.9181L37.0605 25.4554L37.0627 25.4472L35.134 24.9181ZM35.6469 25.0359V23.0359H34.1283L33.7204 24.4986L35.6469 25.0359ZM37.5829 25.5601C37.688 25.1729 37.7552 24.7854 37.8065 24.4824C37.8628 24.15 37.9018 23.9082 37.9556 23.6728C38.06 23.2156 38.1645 23.0616 38.2424 22.9842L35.4214 20.1483C34.5619 21.0033 34.2301 22.0198 34.056 22.7821C33.9705 23.1564 33.9097 23.5367 33.8626 23.8149C33.8105 24.1226 33.7709 24.3344 33.7227 24.5117L37.5829 25.5601ZM38.2218 23.0043C38.2217 23.0045 38.2571 22.9724 38.3433 22.9491L37.2981 19.0881C36.6171 19.2724 35.9685 19.6192 35.442 20.1282L38.2218 23.0043ZM38.3433 22.9491C38.429 22.9259 38.5291 22.9217 38.6231 22.9401L39.3916 19.0146C38.7003 18.8793 37.9796 18.9036 37.2981 19.0881L38.3433 22.9491ZM38.5932 22.934C38.7075 22.9582 38.7894 22.9995 38.8382 23.0345L41.1687 19.7835C40.6426 19.4064 40.0425 19.1521 39.4215 19.0207L38.5932 22.934ZM38.8382 23.0345C38.8862 23.0689 38.889 23.0869 38.8786 23.0663L42.4493 21.2636C42.145 20.6608 41.6956 20.1612 41.1687 19.7835L38.8382 23.0345ZM38.8475 23.0018C38.9343 23.1902 38.9743 23.3764 38.9766 23.5547L42.9763 23.5039C42.9667 22.749 42.7951 22.0111 42.4805 21.3281L38.8475 23.0018ZM38.9871 23.7352C39.0285 24.1353 39.0215 24.5377 38.966 24.9374L42.9279 25.4877C43.0277 24.7696 43.0404 24.0442 42.9658 23.3233L38.9871 23.7352ZM38.9571 25.0115C38.9579 25.0035 38.9593 24.9971 38.9605 24.9928C38.9617 24.9884 38.9626 24.987 38.9618 24.9885L42.5665 26.7224C42.7632 26.3135 42.8905 25.872 42.9368 25.4135L38.9571 25.0115ZM39.0151 24.8856C38.9775 24.9533 39.0862 24.727 39.325 24.512C39.4675 24.3837 39.6381 24.2724 39.8314 24.1916C40.0162 24.1143 40.1776 24.0836 40.2863 24.0706L40.7586 28.0426C41.1438 27.9968 41.5992 27.8469 42.0014 27.4847C42.3125 27.2047 42.4801 26.8851 42.5133 26.8252L39.0151 24.8856ZM40.4446 24.0582C40.1704 24.0688 39.9 24.0354 39.6508 23.9634L38.5407 27.8063C39.2077 27.999 39.9058 28.0822 40.6003 28.0551L40.4446 24.0582ZM39.5152 23.9294C38.8676 23.7904 38.2307 23.6216 37.6077 23.424L36.398 27.2367C37.1443 27.4734 37.9049 27.6749 38.6763 27.8404L39.5152 23.9294ZM37.5409 23.4041C37.1306 23.2894 36.7372 23.1443 36.3656 22.9717L34.6806 26.5995C35.253 26.8653 35.8503 27.0849 36.4648 27.2566L37.5409 23.4041ZM36.3889 22.9827C35.9101 22.7528 35.3778 22.7018 34.8857 22.8117L35.7576 26.7155C35.4015 26.795 35.0142 26.7599 34.6573 26.5885L36.3889 22.9827ZM34.8857 22.8117C34.3951 22.9212 33.8754 23.2098 33.5167 23.7273L36.8043 26.0058C36.516 26.4218 36.1122 26.6363 35.7576 26.7155L34.8857 22.8117ZM33.5167 23.7273C33.1426 24.267 33.0128 24.9722 33.2305 25.6478L37.0376 24.4207C37.2189 24.983 37.108 25.5676 36.8043 26.0058L33.5167 23.7273ZM33.2305 25.6478C33.4408 26.3001 33.9112 26.7404 34.392 26.9713L36.1236 23.3655C36.4824 23.5378 36.8639 23.8815 37.0376 24.4207L33.2305 25.6478ZM34.4159 26.9826C34.9848 27.2465 35.578 27.4655 36.188 27.6378L37.2754 23.7884C36.8652 23.6726 36.4717 23.5269 36.0997 23.3542L34.4159 26.9826ZM36.1162 27.6161C36.8699 27.8598 37.6379 28.0693 38.4168 28.2438L39.2913 24.3406C38.6314 24.1927 37.9824 24.0156 37.3471 23.8102L36.1162 27.6161ZM38.3114 28.2172C39.0632 28.4291 39.8493 28.5211 40.6322 28.492L40.4835 24.4948C40.1104 24.5087 39.7409 24.4643 39.3967 24.3672L38.3114 28.2172ZM40.742 28.4849C41.5599 28.4093 42.2235 28.0212 42.6777 27.4713C43.0757 26.9894 43.2446 26.4663 43.3257 26.1663L39.4643 25.1225C39.4393 25.2151 39.4549 25.092 39.5936 24.9241C39.6739 24.8269 39.7913 24.7195 39.9489 24.6346C40.1077 24.549 40.2586 24.5125 40.3736 24.5019L40.742 28.4849ZM43.3436 26.095C43.5312 25.2836 43.59 24.4518 43.517 23.6235L39.5324 23.9748C39.5682 24.3808 39.5398 24.7899 39.4464 25.1938L43.3436 26.095ZM43.5247 23.8061C43.5273 23.0608 43.405 22.323 43.1653 21.6161L39.3771 22.9004C39.4774 23.1962 39.5257 23.4956 39.5247 23.7923L43.5247 23.8061ZM43.1455 21.5604C42.9101 20.9279 42.5323 20.3698 42.0604 19.9103L39.2699 22.7761C39.3473 22.8516 39.3821 22.9162 39.3969 22.956L43.1455 21.5604ZM42.0604 19.9103C41.5893 19.4516 41.031 19.0969 40.4306 18.8514L38.9165 22.5537C39.0749 22.6185 39.1915 22.6999 39.2699 22.7761L42.0604 19.9103ZM40.3951 18.8372C39.7385 18.5832 39.0332 18.4672 38.3327 18.4889L38.4566 22.487C38.6375 22.4814 38.8087 22.5124 38.9519 22.5678L40.3951 18.8372ZM38.3327 18.4889C37.6324 18.5106 36.9349 18.6701 36.2952 18.9675L37.9817 22.5946C38.112 22.534 38.2756 22.4926 38.4566 22.487L38.3327 18.4889ZM36.2399 18.9943C34.7557 19.7407 34.0827 20.9599 33.7407 22.028C33.5794 22.5316 33.4813 23.0321 33.4076 23.4208C33.3261 23.8505 33.2757 24.1322 33.2053 24.3889L37.0627 25.4472C37.1868 24.9948 37.272 24.5116 37.3376 24.1661C37.4109 23.7795 37.4712 23.4945 37.5502 23.2479C37.6886 22.8155 37.8233 22.6753 38.0371 22.5678L36.2399 18.9943ZM33.2075 24.3808C32.9974 25.1344 33.2098 25.8708 33.6458 26.3848C34.0253 26.8322 34.5047 27.045 34.8853 27.1324C35.2713 27.221 35.768 27.2305 36.2732 27.0263C36.8339 26.7997 37.3676 26.3111 37.5734 25.5731L33.7204 24.4986C33.8879 23.8981 34.3288 23.4978 34.7741 23.3178C35.164 23.1602 35.5229 23.1747 35.7806 23.2338C36.033 23.2918 36.3938 23.4408 36.6962 23.7974C37.0552 24.2206 37.2323 24.8392 37.0605 25.4553L33.2075 24.3808ZM35.6469 27.0359H35.6528V23.0359H35.6469V27.0359Z"
                  fill="#312624"
                  mask="url(#path-27-inside-14_858_9672)"
                />
                <mask id="path-29-inside-15_858_9672" fill="white">
                  <path
                    d="M28.1116 15.7567C27.2921 15.7567 26.4844 15.6143 25.665 15.5996C25.0106 15.5996 24.2088 15.634 23.7843 16.0904C23.2596 16.6842 23.5485 17.6313 23.8845 18.235C24.3849 18.9816 25.2064 19.5427 26.1838 19.8054C27.2803 20.1783 28.4653 20.3354 29.5501 20.7329C29.6115 20.76 29.683 20.7664 29.7499 20.7509C29.8168 20.7354 29.874 20.6991 29.9097 20.6495C30.57 19.7661 30.7233 18.5883 31.979 18.1123C32.2915 17.9945 32.0203 17.6215 31.7137 17.7344C30.346 18.2497 30.1691 19.4667 29.4558 20.4286L29.8154 20.3501C28.1882 19.7612 26.0128 19.6925 24.757 18.5392C24.4349 18.2213 24.2175 17.8391 24.1262 17.4301C23.9942 17.1122 23.9942 16.7665 24.1262 16.4486C24.3738 15.9873 25.1461 15.9873 25.6591 16.002C26.4785 16.002 27.2862 16.1542 28.1057 16.1591C28.176 16.1591 28.2435 16.1358 28.2933 16.0944C28.343 16.053 28.371 15.9968 28.371 15.9382C28.371 15.8797 28.343 15.8235 28.2933 15.7821C28.2435 15.7407 28.176 15.7174 28.1057 15.7174L28.1116 15.7567Z"
                  />
                </mask>
                <path
                  d="M28.1116 15.7567V17.7567H30.4347L30.0894 15.4594L28.1116 15.7567ZM25.665 15.5996L25.7009 13.5999L25.6829 13.5996H25.665V15.5996ZM23.7843 16.0904L22.3198 14.7283L22.3024 14.747L22.2855 14.7661L23.7843 16.0904ZM23.8845 18.235L22.137 19.2078L22.1772 19.2799L22.2231 19.3484L23.8845 18.235ZM26.1838 19.8054L26.8278 17.9119L26.766 17.8909L26.7029 17.8739L26.1838 19.8054ZM29.5501 20.7329L30.3574 18.9031L30.2986 18.8771L30.2382 18.855L29.5501 20.7329ZM29.9097 20.6495L28.3078 19.452L28.297 19.4664L28.2865 19.481L29.9097 20.6495ZM31.979 18.1123L31.2736 16.2408L31.2701 16.2421L31.979 18.1123ZM31.7137 17.7344L31.0227 15.8576L31.0156 15.8602L31.0086 15.8628L31.7137 17.7344ZM29.4558 20.4286L27.8493 19.2372L24.6732 23.5198L29.8823 22.3826L29.4558 20.4286ZM29.8154 20.3501L30.242 22.3041L37.0091 20.8267L30.496 18.4695L29.8154 20.3501ZM24.757 18.5392L23.3522 19.9628L23.3778 19.988L23.4042 20.0123L24.757 18.5392ZM24.1262 17.4301L26.0782 16.9946L26.0402 16.8242L25.9732 16.6629L24.1262 17.4301ZM24.1262 16.4486L22.364 15.5027L22.3172 15.59L22.2792 15.6814L24.1262 16.4486ZM25.6591 16.002L25.6017 18.0012L25.6304 18.002H25.6591V16.002ZM28.1057 16.1591L28.0937 18.1591L28.1057 18.1591L28.1057 16.1591ZM28.371 15.9382L30.371 15.9382L28.371 15.9382ZM28.1057 15.7174V13.7174H25.7826L26.1279 16.0147L28.1057 15.7174ZM28.1116 13.7567C27.8057 13.7567 27.4846 13.7301 27.0715 13.6921C26.6859 13.6566 26.1995 13.6089 25.7009 13.5999L25.629 17.5993C25.9499 17.6051 26.277 17.6359 26.7051 17.6752C27.1055 17.7121 27.598 17.7567 28.1116 17.7567V13.7567ZM25.665 13.5996C25.3274 13.5996 24.795 13.6052 24.2542 13.7111C23.7262 13.8144 22.9426 14.0586 22.3198 14.7283L25.2488 17.4524C25.1467 17.5622 25.0505 17.6152 25.0078 17.635C24.9693 17.6529 24.9669 17.6475 25.0226 17.6366C25.0767 17.626 25.1579 17.6155 25.2736 17.6086C25.3888 17.6017 25.5158 17.5996 25.665 17.5996V13.5996ZM22.2855 14.7661C21.5096 15.6442 21.4365 16.6877 21.5273 17.4087C21.6173 18.1244 21.8877 18.7598 22.137 19.2078L25.632 17.2621C25.5951 17.1959 25.5604 17.1212 25.5342 17.0488C25.5073 16.9745 25.4982 16.9267 25.496 16.9093C25.4936 16.8903 25.5032 16.9395 25.4812 17.0359C25.4565 17.1443 25.3968 17.2859 25.283 17.4147L22.2855 14.7661ZM22.2231 19.3484C23.027 20.5479 24.2831 21.3655 25.6646 21.7368L26.7029 17.8739C26.1297 17.7199 25.7427 17.4152 25.5459 17.1215L22.2231 19.3484ZM25.5397 21.6988C26.1954 21.9219 26.8662 22.0764 27.4077 22.2054C27.9859 22.3432 28.4448 22.4579 28.8619 22.6108L30.2382 18.855C29.5706 18.6103 28.8946 18.4478 28.335 18.3144C27.7386 18.1723 27.2687 18.0618 26.8278 17.9119L25.5397 21.6988ZM28.7428 22.5627C29.2102 22.7689 29.7243 22.8099 30.2018 22.6991L29.2979 18.8026C29.6416 18.7229 30.0127 18.751 30.3574 18.9031L28.7428 22.5627ZM30.2018 22.6991C30.6781 22.5887 31.1787 22.31 31.5329 21.8179L28.2865 19.481C28.5693 19.0881 28.9555 18.882 29.2979 18.8026L30.2018 22.6991ZM31.5116 21.8469C31.7759 21.4934 31.969 21.138 32.1065 20.8756C32.266 20.5713 32.3371 20.4225 32.4374 20.2549C32.5828 20.0117 32.6316 20.0038 32.688 19.9824L31.2701 16.2421C30.0707 16.6968 29.4149 17.5157 29.0048 18.2013C28.8272 18.4981 28.6577 18.8391 28.5635 19.019C28.4473 19.2408 28.3737 19.3639 28.3078 19.452L31.5116 21.8469ZM32.6845 19.9837C33.1815 19.7964 33.8116 19.3495 34.0405 18.5194C34.2554 17.7403 33.9896 17.0713 33.7058 16.6741C33.1523 15.8995 32.0802 15.4682 31.0227 15.8576L32.4047 19.6112C31.6538 19.8877 30.8705 19.5864 30.4512 18.9996C30.2345 18.6962 29.9971 18.1355 30.1845 17.4559C30.386 16.7254 30.9328 16.3693 31.2736 16.2408L32.6845 19.9837ZM31.0086 15.8628C29.7813 16.3252 29.0907 17.1355 28.6414 17.8571C28.4448 18.173 28.2656 18.5226 28.1552 18.7279C28.0253 18.9698 27.9367 19.1194 27.8493 19.2372L31.0622 21.62C31.3314 21.2569 31.5325 20.8936 31.6791 20.6207C31.8453 20.3112 31.9295 20.144 32.0372 19.971C32.1967 19.7148 32.2783 19.6589 32.4188 19.606L31.0086 15.8628ZM29.8823 22.3826L30.242 22.3041L29.3888 18.3961L29.0292 18.4746L29.8823 22.3826ZM30.496 18.4695C29.578 18.1372 28.311 17.8923 27.6499 17.7206C26.7957 17.4986 26.3531 17.2896 26.1099 17.0662L23.4042 20.0123C24.4167 20.9421 25.6897 21.3441 26.644 21.592C27.7914 21.8901 28.4256 21.9741 29.1347 22.2307L30.496 18.4695ZM26.1618 17.1157C26.0903 17.045 26.079 16.9982 26.0782 16.9946L22.1742 17.8657C22.3559 18.6799 22.7794 19.3975 23.3522 19.9628L26.1618 17.1157ZM25.9732 16.6629C26.0452 16.8361 26.0452 17.0426 25.9732 17.2158L22.2792 15.6814C21.9431 16.4905 21.9431 17.3883 22.2792 18.1974L25.9732 16.6629ZM25.8884 17.3945C25.7352 17.68 25.5217 17.845 25.3765 17.9265C25.3073 17.9653 25.2523 17.9863 25.221 17.9968C25.2047 18.0023 25.1925 18.0057 25.1849 18.0076C25.1811 18.0086 25.1782 18.0093 25.1764 18.0097C25.1745 18.0101 25.1736 18.0103 25.1735 18.0103C25.1735 18.0103 25.1743 18.0101 25.176 18.0099C25.1777 18.0096 25.1801 18.0092 25.1834 18.0087C25.1899 18.0078 25.1991 18.0067 25.211 18.0055C25.2353 18.0031 25.2671 18.0009 25.3072 17.9995C25.3907 17.9966 25.4843 17.9978 25.6017 18.0012L25.7164 14.0029C25.4649 13.9956 24.9421 13.9808 24.4127 14.0833C23.9383 14.1752 22.9218 14.4636 22.364 15.5027L25.8884 17.3945ZM25.6591 18.002C25.9593 18.002 26.2738 18.0299 26.6932 18.0697C27.0824 18.1067 27.5795 18.156 28.0937 18.159L28.1177 14.1591C27.8124 14.1573 27.4959 14.128 27.0715 14.0877C26.6774 14.0502 26.1783 14.002 25.6591 14.002V18.002ZM28.1057 18.1591C28.5998 18.1591 29.1315 17.9989 29.5728 17.6315L27.0137 14.5573C27.3555 14.2727 27.7523 14.1591 28.1057 14.1591L28.1057 18.1591ZM29.5728 17.6315C30.0247 17.2554 30.371 16.658 30.371 15.9382L26.371 15.9382C26.371 15.3356 26.6614 14.8506 27.0137 14.5573L29.5728 17.6315ZM30.371 15.9382C30.371 15.2184 30.0246 14.621 29.5728 14.2449L27.0137 17.3192C26.6614 17.0259 26.371 16.5409 26.371 15.9382L30.371 15.9382ZM29.5728 14.2449C29.1316 13.8777 28.5999 13.7174 28.1057 13.7174V17.7174C27.7521 17.7174 27.3554 17.6037 27.0137 17.3192L29.5728 14.2449ZM26.1279 16.0147L26.1338 16.0539L30.0894 15.4594L30.0835 15.4201L26.1279 16.0147Z"
                  fill="#312624"
                  mask="url(#path-29-inside-15_858_9672)"
                />
                <mask id="path-31-inside-16_858_9672" fill="white">
                  <path
                    d="M41.1953 15.3238C41.7969 15.2032 42.4268 15.2233 43.0156 15.3818C43.6044 15.5402 44.1292 15.8309 44.5322 16.2219C43.4386 15.8762 42.325 15.5764 41.1953 15.3238Z"
                  />
                </mask>
                <path
                  d="M41.1953 15.3238L40.8023 13.3628L40.7588 17.2756L41.1953 15.3238ZM44.5322 16.2219L43.9293 18.1289L45.9248 14.7864L44.5322 16.2219ZM41.5883 17.2848C41.8894 17.2245 42.2069 17.2353 42.4959 17.313L43.5354 13.4505C42.6468 13.2113 41.7045 13.182 40.8023 13.3628L41.5883 17.2848ZM42.4959 17.313C42.7853 17.3909 43.0014 17.5233 43.1395 17.6573L45.9248 14.7864C45.2571 14.1386 44.4235 13.6895 43.5354 13.4505L42.4959 17.313ZM45.135 14.3149C43.9862 13.9517 42.817 13.6371 41.6318 13.372L40.7588 17.2756C41.8329 17.5158 42.8911 17.8006 43.9293 18.1289L45.135 14.3149Z"
                  fill="#312624"
                  mask="url(#path-31-inside-16_858_9672)"
                />
                <mask id="path-33-inside-17_858_9672" fill="white">
                  <path
                    d="M41.7812 14.341C42.813 14.1644 44.1748 14.1889 44.8233 14.9937C43.8034 14.6208 42.813 14.6846 41.7812 14.341Z"
                  />
                </mask>
                <path
                  d="M41.7812 14.341L41.4437 12.3697L41.1494 16.2386L41.7812 14.341ZM44.8233 14.9937L44.1364 16.8721L50.8975 19.3445L46.3807 13.7389L44.8233 14.9937ZM42.1188 16.3123C42.4995 16.2471 42.8697 16.2342 43.142 16.2761C43.4326 16.3208 43.3767 16.386 43.266 16.2486L46.3807 13.7389C45.6214 12.7966 44.5603 12.4472 43.75 12.3225C42.9213 12.1951 42.0947 12.2582 41.4437 12.3697L42.1188 16.3123ZM45.5102 13.1154C44.7825 12.8493 44.0892 12.7494 43.5957 12.6773C43.0556 12.5984 42.7312 12.5494 42.4131 12.4434L41.1494 16.2386C41.8631 16.4762 42.5497 16.567 43.0177 16.6353C43.5323 16.7105 43.8442 16.7652 44.1364 16.8721L45.5102 13.1154Z"
                  fill="#312624"
                  mask="url(#path-33-inside-17_858_9672)"
                />
                <mask id="path-35-inside-18_858_9672" fill="white">
                  <path
                    d="M33.332 7.06528C34.0424 6.81407 34.8327 6.76595 35.5795 6.92845C36.3262 7.09095 36.9871 7.4549 37.4589 7.96336C36.2016 7.36817 34.7784 7.05846 33.332 7.06528Z"
                  />
                </mask>
                <path
                  d="M33.332 7.06528L32.6652 5.17971L33.3415 9.06526L33.332 7.06528ZM37.4589 7.96336L36.6032 9.77104L38.925 6.60302L37.4589 7.96336ZM33.9988 8.95085C34.3534 8.82546 34.7653 8.79809 35.1542 8.88271L36.0047 4.97419C34.9002 4.73381 33.7314 4.80268 32.6652 5.17971L33.9988 8.95085ZM35.1542 8.88271C35.5439 8.96752 35.8273 9.14532 35.9928 9.32369L38.925 6.60302C38.1469 5.76447 37.1084 5.21437 36.0047 4.97419L35.1542 8.88271ZM38.3146 6.15567C36.7761 5.42736 35.0559 5.05713 33.3226 5.0653L33.3415 9.06526C34.5009 9.05979 35.627 9.30897 36.6032 9.77104L38.3146 6.15567Z"
                  fill="#312624"
                  mask="url(#path-35-inside-18_858_9672)"
                />
                <mask id="path-37-inside-19_858_9672" fill="white">
                  <path
                    d="M33.6289 5.86274C35.0615 5.59773 36.5413 6.12284 37.6614 6.84424C36.2465 6.57923 35.0497 6.11302 33.6289 5.86274Z"
                  />
                </mask>
                <path
                  d="M33.6289 5.86274L33.2651 3.8961L33.2819 7.83241L33.6289 5.86274ZM37.6614 6.84424L37.2932 8.81006L38.7443 5.16278L37.6614 6.84424ZM33.9927 7.82937C34.7394 7.69124 35.6969 7.95793 36.5785 8.5257L38.7443 5.16278C37.3856 4.28774 35.3836 3.50422 33.2651 3.8961L33.9927 7.82937ZM38.0296 4.87842C37.4202 4.76429 36.8502 4.60574 36.181 4.42047C35.5332 4.24112 34.7928 4.03697 33.9759 3.89306L33.2819 7.83241C33.8858 7.93878 34.4543 8.09289 35.1138 8.27547C35.7519 8.45213 36.4877 8.65919 37.2932 8.81006L38.0296 4.87842Z"
                  fill="#312624"
                  mask="url(#path-37-inside-19_858_9672)"
                />
                <mask id="path-39-inside-20_858_9672" fill="white">
                  <path
                    d="M21.0391 3.30151C21.8571 3.11826 22.714 3.08926 23.5473 3.21661C24.3805 3.34395 25.1692 3.62444 25.8557 4.03763C24.2772 3.68238 22.6662 3.43616 21.0391 3.30151Z"
                  />
                </mask>
                <path
                  d="M21.0391 3.30151L20.6019 1.34987L20.8741 5.29469L21.0391 3.30151ZM25.8557 4.03763L25.4165 5.98883L26.887 2.32405L25.8557 4.03763ZM21.4762 5.25315C22.0502 5.12457 22.6564 5.10367 23.2451 5.19365L23.8494 1.23956C22.7717 1.07485 21.6641 1.11196 20.6019 1.34987L21.4762 5.25315ZM23.2451 5.19365C23.8341 5.28366 24.3729 5.4795 24.8244 5.75122L26.887 2.32405C25.9654 1.76939 24.927 1.40425 23.8494 1.23956L23.2451 5.19365ZM26.2948 2.08644C24.6252 1.71067 22.9226 1.45054 21.204 1.30832L20.8741 5.29469C22.4098 5.42178 23.9292 5.65408 25.4165 5.98883L26.2948 2.08644Z"
                  fill="#312624"
                  mask="url(#path-39-inside-20_858_9672)"
                />
                <mask id="path-41-inside-21_858_9672" fill="white">
                  <path
                    d="M21.8359 2.15787C22.5913 1.92244 23.4085 1.85881 24.2032 1.97353C24.998 2.08825 25.7417 2.37718 26.3578 2.81058C24.8976 2.40778 23.3737 2.18781 21.8359 2.15787Z"
                  />
                </mask>
                <path
                  d="M21.8359 2.15787L21.2408 0.248459L21.797 4.1575L21.8359 2.15787ZM26.3578 2.81058L25.8259 4.73856L27.5085 1.17478L26.3578 2.81058ZM22.431 4.06729C22.8974 3.92194 23.4134 3.88025 23.9175 3.95302L24.489 -0.00595337C23.4036 -0.162622 22.2853 -0.0770598 21.2408 0.248459L22.431 4.06729ZM23.9175 3.95302C24.422 4.02584 24.8651 4.20584 25.207 4.44637L27.5085 1.17478C26.6183 0.548517 25.574 0.150665 24.489 -0.00595337L23.9175 3.95302ZM26.8896 0.882591C25.2663 0.434786 23.5767 0.191386 21.8749 0.158253L21.797 4.1575C23.1707 4.18424 24.529 4.38078 25.8259 4.73856L26.8896 0.882591Z"
                  fill="#312624"
                  mask="url(#path-41-inside-21_858_9672)"
                />
                <mask id="path-43-inside-22_858_9672" fill="white">
                  <path
                    d="M9.16016 3.29984C9.7744 2.85677 10.5365 2.58036 11.3446 2.50757C12.1526 2.43478 12.9681 2.56908 13.682 2.89252C12.1572 2.73447 10.6091 2.87392 9.16016 3.29984Z"
                  />
                </mask>
                <path
                  d="M9.16016 3.29984L7.99012 1.67781L9.72421 5.21866L9.16016 3.29984ZM13.682 2.89252L13.4758 4.88186L14.5074 1.07077L13.682 2.89252ZM10.3302 4.92188C10.6326 4.70373 11.0469 4.54248 11.524 4.4995L11.1651 0.515633C10.0261 0.618238 8.91618 1.0098 7.99012 1.67781L10.3302 4.92188ZM11.524 4.4995C12.0007 4.45656 12.4687 4.53851 12.8566 4.71426L14.5074 1.07077C13.4675 0.599646 12.3046 0.412993 11.1651 0.515633L11.524 4.4995ZM13.8882 0.903176C12.1085 0.718708 10.2986 0.880577 8.5961 1.38103L9.72421 5.21866C10.9196 4.86727 12.2059 4.75023 13.4758 4.88186L13.8882 0.903176Z"
                  fill="#312624"
                  mask="url(#path-43-inside-22_858_9672)"
                />
                <mask id="path-45-inside-23_858_9672" fill="white">
                  <path
                    d="M9.55859 1.8282C10.6357 1.4053 11.8681 1.34723 12.9957 1.66625C11.8645 1.85257 10.7078 1.90708 9.55859 1.8282Z"
                  />
                </mask>
                <path
                  d="M9.55859 1.8282L8.82767 -0.0334544L9.42163 3.8235L9.55859 1.8282ZM12.9957 1.66625L13.3207 3.63966L13.5402 -0.25821L12.9957 1.66625ZM10.2895 3.68985C10.9543 3.42886 11.7384 3.38905 12.4512 3.59071L13.5402 -0.25821C11.9978 -0.694593 10.3172 -0.618269 8.82767 -0.0334544L10.2895 3.68985ZM12.6706 -0.307157C11.6929 -0.146097 10.6911 -0.0987676 9.69556 -0.167106L9.42163 3.8235C10.7244 3.91293 12.0362 3.85125 13.3207 3.63966L12.6706 -0.307157Z"
                  fill="#312624"
                  mask="url(#path-45-inside-23_858_9672)"
                />
                <mask id="path-47-inside-24_858_9672" fill="white">
                  <path
                    d="M14.372 12.2422C13.6685 13.11 13.1684 14.0808 12.8982 15.1033C12.7373 14.5578 12.7942 13.9836 13.0601 13.4675C13.326 12.9513 13.7865 12.5212 14.372 12.2422Z"
                  />
                </mask>
                <path
                  d="M14.372 12.2422L15.9256 13.5017L13.5117 10.4367L14.372 12.2422ZM12.8982 15.1033L10.9798 15.669L13.0037 22.5321L14.8318 15.6143L12.8982 15.1033ZM12.8185 10.9826C11.9469 12.0577 11.3111 13.2809 10.9645 14.5923L14.8318 15.6143C15.0257 14.8806 15.39 14.1624 15.9256 13.5017L12.8185 10.9826ZM14.8165 14.5376C14.8046 14.4971 14.8022 14.4528 14.838 14.3834L11.2821 12.5516C10.7861 13.5144 10.6701 14.6185 10.9798 15.669L14.8165 14.5376ZM14.838 14.3834C14.8802 14.3015 14.9931 14.1617 15.2324 14.0477L13.5117 10.4367C12.5799 10.8807 11.7717 11.6011 11.2821 12.5516L14.838 14.3834Z"
                  fill="#312624"
                  mask="url(#path-47-inside-24_858_9672)"
                />
                <mask id="path-49-inside-25_858_9672" fill="white">
                  <path
                    d="M12.1031 12.7871C11.9699 13.4364 11.7401 14.0694 11.4193 14.6716C11.2839 14.3373 11.2771 13.9762 11.3997 13.6384C11.5222 13.3007 11.7681 13.0032 12.1031 12.7871Z"
                  />
                </mask>
                <path
                  d="M12.1031 12.7871L14.0623 13.1893L15.0194 8.52686L11.0193 11.1063L12.1031 12.7871ZM11.4193 14.6716L9.56535 15.4219L11.1713 19.3898L13.1843 15.6121L11.4193 14.6716ZM10.144 12.3849C10.0504 12.841 9.88758 13.2931 9.65422 13.7311L13.1843 15.6121C13.5927 14.8458 13.8893 14.0319 14.0623 13.1893L10.144 12.3849ZM13.2732 13.9212C13.3224 14.0429 13.3264 14.192 13.2797 14.3207L9.51962 12.9562C9.22782 13.7603 9.2455 14.6317 9.56535 15.4219L13.2732 13.9212ZM13.2797 14.3207C13.2367 14.439 13.1769 14.4745 13.187 14.468L11.0193 11.1063C10.3593 11.5318 9.80767 12.1624 9.51962 12.9562L13.2797 14.3207Z"
                  fill="#312624"
                  mask="url(#path-49-inside-25_858_9672)"
                />
              </svg>