<svg
                width="114"
                height="80"
                viewBox="0 0 114 80"
                fill="none"
                xmlns="http://www.w3.org/2000/svg"
              >
                <g clip-path="url(#clip0_396_12818)">
                  <path
                    fill-rule="evenodd"
                    clip-rule="evenodd"
                    d="M90.9258 49.2988H114.001L107.86 57.3812L114.001 65.1167H90.9258V54.2659H100.063L90.9258 49.2988Z"
                    fill="#312624"
                  />
                  <path
                    d="M38.3347 20.1728C42.6314 15.8691 48.2835 13.1917 54.3283 12.5967C60.3731 12.0017 66.4368 13.526 71.4863 16.9098C76.5359 20.2936 80.2591 25.3277 82.0216 31.1546C83.7841 36.9814 83.477 43.2406 81.1525 48.8659C78.828 54.4912 74.6301 59.1347 69.2736 62.0054C63.9171 64.8761 57.7335 65.7965 51.7761 64.6097C45.8187 63.4229 40.456 60.2024 36.6015 55.4967C32.7469 50.791 30.639 44.8913 30.6367 38.8025C30.6344 35.3441 31.3131 31.9193 32.6342 28.7245C33.9552 25.5297 35.8924 22.6277 38.3347 20.1852V20.1728Z"
                    fill="#312624"
                  />
                  <path
                    d="M39.8357 21.677C43.785 17.7199 48.9807 15.2577 54.5377 14.7099C60.0947 14.1622 65.6693 15.5626 70.3119 18.6728C74.9544 21.783 78.3777 26.4105 79.9987 31.767C81.6196 37.1235 81.3379 42.8776 79.2016 48.0493C77.0652 53.2209 73.2063 57.4902 68.2823 60.1297C63.3583 62.7693 57.6737 63.6158 52.1969 62.5252C46.7201 61.4346 41.7899 58.4743 38.2461 54.1486C34.7023 49.8228 32.7641 44.3992 32.7617 38.8017C32.7596 35.623 33.3834 32.4752 34.5973 29.5387C35.8113 26.6022 37.5914 23.9348 39.8357 21.6893V21.677Z"
                    fill="#FFFCEB"
                  />
                  <path
                    d="M56.9153 0.000680129C49.133 -0.000544108 41.5252 2.31198 35.0541 6.64572C28.583 10.9795 23.5394 17.1397 20.5612 24.3474C17.583 31.555 16.8041 39.4861 18.323 47.1375C19.8418 54.7889 23.5902 61.8169 29.094 67.3325C34.5978 72.8481 41.6097 76.6035 49.2429 78.1237C56.876 79.6439 64.7874 78.8605 71.9764 75.8728C79.1654 72.885 85.3089 67.8271 89.63 61.3387C93.9511 54.8504 96.2555 47.2231 96.2519 39.4216C96.2404 28.9668 92.0924 18.9434 84.7178 11.5507C77.3433 4.15801 67.3445 -0.00024341 56.9153 -0.0117188V0.000680129ZM56.9153 77.1641C49.4711 77.1678 42.1929 74.9584 36.0013 70.8153C29.8096 66.6723 24.9826 60.7817 22.1307 53.8884C19.2788 46.9952 18.5301 39.409 19.9793 32.0892C21.4284 24.7694 25.0104 18.0447 30.2721 12.7657C35.5338 7.48672 42.239 3.89044 49.5397 2.43171C56.8403 0.97298 64.4085 1.71732 71.2872 4.57057C78.1659 7.42383 84.046 12.2578 88.184 18.4613C92.3219 24.6648 94.5319 31.959 94.5343 39.4216C94.5213 49.421 90.5542 59.0074 83.5027 66.0798C76.4511 73.1522 66.8902 77.1337 56.9153 77.1517V77.1641Z"
                    fill="#312624"
                  />
                  <path
                    fill-rule="evenodd"
                    clip-rule="evenodd"
                    d="M44.4654 11.886L41.1848 6.98698L39.3313 8.22566L39.9862 10.5544L40.0851 10.8578L40.3507 11.7807L40.4249 12.0779L40.6905 12.9698L40.7708 13.2671L40.8017 13.36L40.7276 13.298L40.4743 13.1122L39.7576 12.5486L39.5228 12.3443L38.7753 11.7683L38.5405 11.5639L37.725 10.9445L37.4902 10.7526L36.6191 10.0651L34.7656 11.3038L35.4823 12.369L35.6553 12.6044L36.2175 13.4467L36.372 13.682L36.8909 14.4624L37.0639 14.6977L37.5582 15.4348L37.7188 15.6887L37.9536 16.0479L38.8124 17.3175L40.2024 16.3762L39.2819 14.9826L38.9977 14.5739L38.8432 14.3385L38.3428 13.6015L38.1883 13.3538L37.6694 12.6044L37.6385 12.5548H37.6694L37.7003 12.5858L38.454 13.1432L38.7011 13.3352L39.4178 13.8802L39.6711 14.0722L40.0912 14.4005L41.5308 15.4967L42.4698 14.8774L42.0127 13.1866L41.8397 12.5672L41.7655 12.2637L41.1848 10.1023H41.2157L42.9332 12.6725L43.8105 13.9731L45.2191 13.0317L44.4654 11.886ZM70.5435 6.4048L68.2329 11.4462L67.5162 13.0008L69.0484 13.7068L69.7527 12.1523L70.0184 11.5887L70.142 11.3224L70.5003 10.5234L70.5435 10.4181L72.0757 7.11084L70.5435 6.4048ZM72.2055 11.5143L71.6741 12.2142L71.5012 12.4496L71.1737 12.9079L70.284 14.1094L71.6371 15.1127L72.6071 13.7811L72.9036 13.3724L73.0766 13.137L73.6079 12.4372L73.7809 12.2018L74.3308 11.4648H74.3617V11.5143L74.2381 12.5672V12.8955L74.1145 13.9112L74.0775 14.258L74.0342 14.7597L73.8118 16.7292L75.1154 17.7449L76.0668 16.4443L76.2522 16.1965L76.4314 15.9426L76.9565 15.2366L77.1295 15.0074L77.6917 14.2518L77.8647 14.0165L78.4825 13.2175L78.6555 12.9698L79.4525 11.9045L78.0933 10.9012L77.3396 11.824L77.1666 12.0594L76.5487 12.8583L76.3819 13.1122L75.8321 13.8431L75.6591 14.0784L75.3131 14.5367L75.3749 13.8616L75.4243 13.5024L75.5294 12.4248L75.5788 12.0779L75.7023 10.9322V10.5915L75.8568 9.29092L74.4976 8.2876L73.7809 9.27234L73.5956 9.5077L73.0148 10.3066L72.8295 10.542L72.2796 11.2976L72.2055 11.5143ZM60.782 3.74165L59.7811 9.3157L59.4846 10.9136L64.1553 11.7559L64.3901 10.4739L61.3751 9.92264L61.4554 9.53246L61.7026 8.15134L64.2047 8.60965L64.4395 7.32143L61.8941 6.84453L62.1597 5.30858L65.1747 5.85978L65.4095 4.59015L60.782 3.74165ZM52.4229 3.79119L52.738 9.42718L52.8307 11.0436L55.4873 10.8888C56.0358 10.8649 56.5673 10.6913 57.0246 10.3868C57.4819 10.0823 57.8475 9.65842 58.0821 9.16087C58.2647 8.70934 58.3449 8.22277 58.3169 7.73638L58.2366 6.43576C58.2274 6.03926 58.1352 5.64912 57.966 5.29063C57.7968 4.93213 57.5543 4.61331 57.2542 4.35479C56.9572 4.09287 56.6102 3.89414 56.2342 3.77065C55.8583 3.64715 55.4613 3.60147 55.0672 3.63636L52.4229 3.79119ZM54.4246 9.24137L54.1713 4.98033L55.1413 4.93697C55.3232 4.92302 55.5057 4.95218 55.6742 5.02212C55.8428 5.09206 55.9925 5.20081 56.1113 5.33954C56.3902 5.67558 56.5452 6.09771 56.5499 6.53486L56.6241 7.84785C56.6691 8.28174 56.5668 8.71815 56.3337 9.08653C56.3058 9.10844 56.2827 9.13584 56.2657 9.16705C56.1641 9.2996 56.0343 9.40783 55.8858 9.48388C55.7372 9.55994 55.5737 9.60191 55.407 9.60677L54.437 9.66871L54.4246 9.24137ZM46.1582 5.2776L46.0532 11.2171V12.9079L47.7398 12.3876V10.9136L49.7972 10.2942L50.6127 11.5329L52.2993 11.0003L51.3232 9.69349L47.851 4.73878L46.9923 5.00509L46.1582 5.2776ZM47.6842 7.21614H47.7151L49.0249 9.17325L47.6966 9.58201L47.6842 7.21614Z"
                    fill="#312624"
                  />
                  <path
                    fill-rule="evenodd"
                    clip-rule="evenodd"
                    d="M100.063 54.2659L90.9258 49.2988V54.2659H100.063Z"
                    fill="#FFFCEB"
                  />
                  <path
                    fill-rule="evenodd"
                    clip-rule="evenodd"
                    d="M23.0879 49.2988H0L6.15348 57.3812L0 65.1167H23.0879V54.2659H13.938L23.0879 49.2988Z"
                    fill="#312624"
                  />
                  <path
                    fill-rule="evenodd"
                    clip-rule="evenodd"
                    d="M13.9375 54.2659L23.0874 49.2988V54.2659H13.9375Z"
                    fill="#FFFCEB"
                  />
                  <path
                    fill-rule="evenodd"
                    clip-rule="evenodd"
                    d="M13.9375 54.2848C41.6896 44.2592 72.0622 44.2592 99.8143 54.2848V72.4933C72.0601 82.5064 41.6918 82.5064 13.9375 72.4933V54.2848Z"
                    fill="#312624"
                  />
                  <path
                    fill-rule="evenodd"
                    clip-rule="evenodd"
                    d="M15.4648 54.9722V71.7934C42.2439 81.3128 71.4736 81.3128 98.2526 71.7934V54.9722C71.4747 45.4468 42.2428 45.4468 15.4648 54.9722Z"
                    fill="#FFFCEB"
                  />
                  <path
                    fill-rule="evenodd"
                    clip-rule="evenodd"
                    d="M16.25 55.5239V71.2365C42.5477 80.4585 71.1893 80.4585 97.4871 71.2365V55.5239C71.1893 46.3019 42.5477 46.3019 16.25 55.5239Z"
                    fill="#312624"
                  />
                  <path
                    d="M83.6086 19.168L84.3933 20.7163L86.1108 20.9702L84.8628 22.1903L85.1594 23.9121L83.6086 23.1008L82.0764 23.9121L82.3792 22.1903L81.125 20.9702L82.8487 20.7163L83.6086 19.168Z"
                    fill="#312624"
                  />
                  <path
                    d="M88.3783 28.8125L89.3915 30.8873L91.6712 31.2155L90.034 32.8134L90.4109 35.0802L88.3783 34.0149L86.358 35.0802L86.7349 32.8134L85.0977 31.2155L87.3774 30.8873L88.3783 28.8125Z"
                    fill="#312624"
                  />
                  <path
                    d="M88.3783 40.375L89.3915 42.425L91.6589 42.7533L90.0155 44.3697L90.4109 46.6241L88.3783 45.5589L86.3456 46.6241L86.7349 44.3697L85.0977 42.7533L87.3651 42.425L88.3783 40.375Z"
                    fill="#312624"
                  />
                  <path
                    d="M30.1477 19.168L29.3816 20.7163L27.6641 20.9702L28.9182 22.1903L28.6217 23.9121L30.1477 23.1008L31.6984 23.9121L31.4019 22.1903L32.6499 20.9702L30.9323 20.7163L30.1477 19.168Z"
                    fill="#312624"
                  />
                  <path
                    d="M25.3861 28.8125L24.3729 30.8873L22.1055 31.2155L23.7489 32.8134L23.372 35.0802L25.3861 34.0149L27.4187 35.0802L27.0418 32.8134L28.6852 31.2155L26.3993 30.8873L25.3861 28.8125Z"
                    fill="#312624"
                  />
                  <path
                    d="M25.4056 40.375L24.3862 42.425L22.125 42.7533L23.7622 44.3697L23.373 46.6241L25.4056 45.5589L27.4321 46.6241L27.0428 44.3697L28.6862 42.7533L26.4188 42.425L25.4056 40.375Z"
                    fill="#312624"
                  />
                  <path
                    d="M45.6932 44.431H42.2458V28.0495H39.2617V24.4139L45.6932 23.6955V44.431ZM58.3523 36.9432C58.3523 39.371 57.8642 41.2785 56.9252 42.672C56.5366 43.3071 55.9914 43.831 55.3421 44.1933C54.6928 44.5557 53.9614 44.7442 53.2182 44.7407C52.4665 44.7496 51.7253 44.5638 51.0661 44.2015C50.407 43.8391 49.8523 43.3123 49.4557 42.672C48.5166 41.2806 48.0471 39.371 48.0471 36.9432V31.493C48.0471 29.0528 48.5166 27.1576 49.4557 25.7641C49.8544 25.1308 50.4066 24.6091 51.0607 24.2475C51.7148 23.886 52.4496 23.6963 53.1966 23.6963C53.9436 23.6963 54.6784 23.886 55.3326 24.2475C55.9867 24.6091 56.5389 25.1308 56.9375 25.7641C57.889 27.1576 58.377 29.0652 58.377 31.493L58.3523 36.9432ZM54.9111 31.1957C54.9623 30.2217 54.8043 29.248 54.4477 28.3405C54.3596 28.0644 54.1892 27.822 53.9594 27.6459C53.7296 27.4698 53.4516 27.3686 53.1626 27.3558C52.8762 27.3697 52.601 27.4717 52.3744 27.6478C52.1478 27.824 51.9808 28.0659 51.8961 28.3405C51.5515 29.251 51.3979 30.223 51.4451 31.1957V37.2219C51.3974 38.2087 51.5509 39.195 51.8961 40.1204C51.9893 40.3947 52.1631 40.6344 52.3947 40.8079C52.6262 40.9814 52.9047 41.0807 53.1935 41.0927C53.4784 41.0797 53.7525 40.9796 53.979 40.8057C54.2054 40.6319 54.3733 40.3927 54.4601 40.1204C54.8053 39.195 54.9588 38.2087 54.9111 37.2219V31.1957ZM70.4122 36.9432C70.4122 39.371 69.9426 41.2806 69.0035 42.672C68.6033 43.3052 68.05 43.8267 67.3949 44.188C66.7398 44.5493 66.0042 44.7388 65.2565 44.7388C64.5087 44.7388 63.7731 44.5493 63.118 44.188C62.4629 43.8267 61.9096 43.3052 61.5094 42.672C60.5703 41.2806 60.1008 39.371 60.1008 36.9432V31.493C60.1008 29.0528 60.5703 27.1576 61.5094 25.7641C61.8979 25.1291 62.4431 24.6051 63.0924 24.2428C63.7417 23.8805 64.4732 23.692 65.2163 23.6955C65.9659 23.6887 66.7047 23.8754 67.3615 24.2377C68.0183 24.6 68.571 25.1257 68.9665 25.7641C69.9179 27.1576 70.3874 29.0652 70.3874 31.493L70.4122 36.9432ZM66.9894 31.1957C67.0414 30.2211 66.8812 29.2468 66.5199 28.3405C66.4314 28.0658 66.2617 27.8245 66.0333 27.6487C65.8049 27.4728 65.5286 27.3707 65.241 27.3558C64.9543 27.3688 64.6787 27.4704 64.4519 27.6467C64.2251 27.8231 64.0584 28.0654 63.9745 28.3405C63.6298 29.251 63.4763 30.223 63.5235 31.1957V37.2219C63.4758 38.2087 63.6293 39.195 63.9745 40.1204C64.0677 40.3947 64.2415 40.6344 64.473 40.8079C64.7046 40.9814 64.983 41.0807 65.2719 41.0927C65.5504 41.0704 65.8162 40.9662 66.0359 40.7933C66.2557 40.6203 66.4197 40.3863 66.5075 40.1204C66.8528 39.195 67.0062 38.2087 66.9585 37.2219L66.9894 31.1957Z"
                    fill="#312624"
                  />
                  <path
                    d="M71.8527 32.3856C71.8455 32.1839 71.879 31.9829 71.9512 31.7945C72.0234 31.6061 72.1328 31.4343 72.2728 31.2893C72.4362 31.1332 72.6309 31.0137 72.844 30.939C73.057 30.8642 73.2836 30.8359 73.5084 30.8558C73.7331 30.8378 73.9591 30.8671 74.1719 30.9417C74.3847 31.0164 74.5796 31.1348 74.7441 31.2893C74.8846 31.4345 74.9952 31.6061 75.0694 31.7942C75.1436 31.9823 75.18 32.1833 75.1765 32.3856V32.7819C75.1806 32.9861 75.1446 33.1892 75.0704 33.3794C74.9961 33.5696 74.8853 33.7433 74.7441 33.8906C74.5773 34.041 74.3818 34.1559 74.1694 34.2283C73.957 34.3007 73.7321 34.3291 73.5084 34.3117C73.2833 34.3281 73.0573 34.2975 72.8446 34.2218C72.6319 34.1461 72.4372 34.027 72.2728 33.872C72.1323 33.7286 72.0226 33.5579 71.9504 33.3705C71.8781 33.183 71.8449 32.9827 71.8527 32.7819V32.3856ZM72.94 32.7819C72.9378 32.9383 72.9878 33.0909 73.0821 33.2155C73.1345 33.2744 73.1995 33.3207 73.2723 33.3507C73.345 33.3808 73.4237 33.3938 73.5023 33.3889C73.5788 33.3924 73.6552 33.3786 73.7258 33.3486C73.7963 33.3186 73.8593 33.2731 73.91 33.2155C74.0071 33.0924 74.0574 32.9388 74.0521 32.7819V32.3856C74.0581 32.2265 74.0028 32.0713 73.8977 31.952C73.8478 31.8933 73.785 31.8471 73.7142 31.817C73.6435 31.7869 73.5666 31.7737 73.4899 31.7786C73.4133 31.7751 73.3369 31.7889 73.2664 31.8189C73.1958 31.8489 73.1328 31.8944 73.0821 31.952C72.9878 32.0766 72.9378 32.2292 72.94 32.3856V32.7819ZM75.3804 36.5847C75.3701 36.1779 75.5212 35.7836 75.8005 35.4884C75.966 35.335 76.1608 35.2169 76.3733 35.1413C76.5857 35.0657 76.8112 35.0342 77.0362 35.0487C77.2612 35.0331 77.487 35.0641 77.6996 35.1397C77.9122 35.2154 78.107 35.3341 78.2718 35.4884C78.4113 35.6338 78.5203 35.8057 78.5924 35.994C78.6646 36.1823 78.6984 36.3831 78.6919 36.5847V36.9749C78.6988 37.1793 78.6653 37.3831 78.5932 37.5744C78.521 37.7657 78.4118 37.9409 78.2718 38.0897C77.9246 38.3788 77.4875 38.537 77.0362 38.537C76.5848 38.537 76.1477 38.3788 75.8005 38.0897C75.6543 37.9445 75.5397 37.7705 75.4642 37.5785C75.3886 37.3866 75.3538 37.181 75.3619 36.9749L75.3804 36.5847ZM76.4863 36.9749C76.4804 37.1369 76.5381 37.2947 76.647 37.4146C76.6992 37.4703 76.7625 37.5144 76.8327 37.5443C76.9028 37.5741 76.9785 37.589 77.0547 37.588C77.1319 37.5967 77.2101 37.5872 77.283 37.5603C77.3559 37.5334 77.4216 37.4899 77.4748 37.4332C77.558 37.2957 77.5948 37.135 77.5799 36.9749V36.5847C77.5879 36.4323 77.5395 36.2823 77.4439 36.1635C77.391 36.1088 77.3276 36.0654 77.2575 36.0357C77.1875 36.006 77.1122 35.9907 77.0362 35.9907C76.9601 35.9907 76.8849 36.006 76.8148 36.0357C76.7448 36.0654 76.6814 36.1088 76.6284 36.1635C76.5307 36.2814 76.4801 36.4315 76.4863 36.5847V36.9749ZM73.737 37.8543L72.94 37.4456L76.5666 31.6176L77.3822 32.0263L73.737 37.8543Z"
                    fill="#312624"
                  />
                  <path
                    d="M38.9354 68.7527H36.1367V57.0781H38.9354V68.7527Z"
                    fill="#FFFCEB"
                  />
                  <path
                    d="M50.6112 68.7527H47.8187L43.6916 61.4878V68.7527H40.8867V57.0781H43.6916L47.8125 64.343V57.0781H50.6112V68.7527Z"
                    fill="#FFFCEB"
                  />
                  <path
                    d="M52.3867 68.753V57.0785H56.1369C56.8816 57.07 57.6206 57.2089 58.3116 57.4872C58.9603 57.7409 59.5494 58.1269 60.0415 58.6206C60.5282 59.1294 60.9066 59.732 61.1536 60.3919C61.4268 61.1138 61.563 61.8805 61.5552 62.6525V63.1418C61.5636 63.9179 61.4274 64.6888 61.1536 65.4148C60.9049 66.0702 60.5267 66.6685 60.0415 67.1737C59.5582 67.6683 58.9804 68.0601 58.3425 68.3257C57.6576 68.6029 56.9249 68.7418 56.1863 68.7345L52.3867 68.753ZM55.1916 59.24V66.573H56.1678C56.5234 66.5921 56.8782 66.5236 57.2013 66.3735C57.5244 66.2234 57.8059 65.9964 58.0212 65.7121C58.5054 64.9489 58.7327 64.0502 58.6699 63.148V62.6463C58.7331 61.748 58.5056 60.8531 58.0212 60.0947C57.7987 59.8094 57.5104 59.5825 57.1811 59.4336C56.8518 59.2848 56.4913 59.2183 56.1307 59.24H55.1916Z"
                    fill="#FFFCEB"
                  />
                  <path
                    d="M65.9628 68.7527H63.1641V57.0781H65.9628V68.7527Z"
                    fill="#FFFCEB"
                  />
                  <path
                    d="M74.6751 66.5664H70.8261L70.1527 68.7527H67.1562L71.4254 57.0781H74.0635L78.3882 68.7527H75.3733L74.6751 66.5664ZM71.4995 64.3987H74.0017L72.7661 60.3482L71.4995 64.3987Z"
                    fill="#FFFCEB"
                  />
                </g>
                <defs>
                  <clipPath id="clip0_396_12818">
                    <rect width="114" height="80" fill="white" />
                  </clipPath>
                </defs>
              </svg>