<svg
                width="200"
                height="200"
                viewBox="0 0 80 80"
                fill="none"
                xmlns="http://www.w3.org/2000/svg"
              >
                <mask id="path-1-inside-1_369_8315" fill="white">
                  <path
                    d="M79.9993 40C79.9994 39.7993 79.9575 39.6008 79.8762 39.4172C79.795 39.2337 79.6762 39.0692 79.5276 38.9343L73.3764 33.3584L76.9345 25.8553C77.0207 25.6736 77.0679 25.4758 77.073 25.2747C77.0781 25.0737 77.0409 24.8738 76.964 24.688C76.887 24.5021 76.7719 24.3345 76.6261 24.196C76.4803 24.0574 76.3071 23.951 76.1176 23.8835L68.2952 21.0963L68.7037 12.8036C68.7135 12.603 68.6813 12.4026 68.6091 12.2153C68.5368 12.028 68.4261 11.8578 68.2841 11.7159C68.1422 11.5739 67.972 11.4632 67.7847 11.3909C67.5973 11.3187 67.397 11.2865 67.1964 11.2964L58.9037 11.7048L56.1165 3.88242C56.049 3.69293 55.9426 3.5197 55.804 3.37391C55.6655 3.22812 55.4979 3.11301 55.312 3.03603C55.1262 2.95905 54.9263 2.9219 54.7253 2.92698C54.5242 2.93205 54.3264 2.97925 54.1447 3.06552L46.6416 6.62363L41.0657 0.472441C40.9309 0.323669 40.7664 0.204771 40.5829 0.123402C40.3993 0.0420343 40.2008 0 40 0C39.7992 0 39.6007 0.0420343 39.4171 0.123402C39.2336 0.204771 39.0691 0.323669 38.9343 0.472441L33.3584 6.62363L25.8553 3.06552C25.6736 2.97925 25.4758 2.93205 25.2747 2.92698C25.0737 2.9219 24.8738 2.95905 24.688 3.03603C24.5021 3.11301 24.3345 3.22812 24.196 3.37391C24.0574 3.5197 23.951 3.69293 23.8835 3.88242L21.0963 11.7048L12.8036 11.2964C12.603 11.2865 12.4026 11.3187 12.2153 11.3909C12.028 11.4632 11.8578 11.5739 11.7159 11.7159C11.5739 11.8578 11.4632 12.028 11.3909 12.2153C11.3187 12.4026 11.2865 12.603 11.2964 12.8036L11.7048 21.0963L3.88242 23.8835C3.69293 23.951 3.5197 24.0574 3.37391 24.196C3.22812 24.3345 3.11301 24.5021 3.03603 24.688C2.95905 24.8738 2.9219 25.0737 2.92698 25.2747C2.93205 25.4758 2.97925 25.6736 3.06552 25.8553L6.62363 33.3584L0.472441 38.9343C0.323669 39.0691 0.204771 39.2336 0.123402 39.4171C0.0420343 39.6007 0 39.7992 0 40C0 40.2008 0.0420343 40.3993 0.123402 40.5829C0.204771 40.7664 0.323669 40.9309 0.472441 41.0657L6.62363 46.6416L3.06552 54.1447C2.97925 54.3264 2.93205 54.5242 2.92698 54.7253C2.9219 54.9263 2.95905 55.1262 3.03603 55.312C3.11301 55.4979 3.22812 55.6655 3.37391 55.804C3.5197 55.9426 3.69293 56.049 3.88242 56.1165L11.7048 58.9037L11.2964 67.1964C11.2865 67.397 11.3187 67.5973 11.3909 67.7847C11.4632 67.972 11.5739 68.1422 11.7159 68.2841C11.8578 68.4261 12.028 68.5368 12.2153 68.6091C12.4026 68.6813 12.603 68.7135 12.8036 68.7037L21.0963 68.2952L23.8835 76.1176C23.951 76.3071 24.0574 76.4803 24.196 76.6261C24.3345 76.7719 24.5021 76.887 24.688 76.964C24.8738 77.0409 25.0737 77.0781 25.2747 77.073C25.4758 77.0679 25.6736 77.0207 25.8553 76.9345L33.3584 73.3764L38.9343 79.5276C39.0691 79.6763 39.2336 79.7952 39.4171 79.8766C39.6007 79.958 39.7992 80 40 80C40.2008 80 40.3993 79.958 40.5829 79.8766C40.7664 79.7952 40.9309 79.6763 41.0657 79.5276L46.6416 73.3764L54.1447 76.9345C54.3264 77.0207 54.5242 77.0679 54.7253 77.073C54.9263 77.0781 55.1262 77.0409 55.312 76.964C55.4979 76.887 55.6655 76.7719 55.804 76.6261C55.9426 76.4803 56.049 76.3071 56.1165 76.1176L58.9037 68.2952L67.1964 68.7037C67.397 68.7135 67.5973 68.6813 67.7847 68.6091C67.972 68.5368 68.1422 68.4261 68.2841 68.2841C68.4261 68.1422 68.5368 67.972 68.6091 67.7847C68.6813 67.5973 68.7135 67.397 68.7037 67.1964L68.2952 58.9037L76.1176 56.1165C76.3071 56.049 76.4803 55.9426 76.6261 55.804C76.7719 55.6655 76.887 55.4979 76.964 55.312C77.0409 55.1262 77.0781 54.9263 77.073 54.7253C77.0679 54.5242 77.0207 54.3264 76.9345 54.1447L73.3764 46.6416L79.5276 41.0657C79.6762 40.9308 79.795 40.7663 79.8762 40.5828C79.9575 40.3992 79.9994 40.2007 79.9993 40ZM40 69.3825C23.7728 69.3825 10.6175 56.2272 10.6175 40C10.6175 23.7728 23.7728 10.6175 40 10.6175C56.2272 10.6175 69.3825 23.7728 69.3825 40C69.3825 56.2272 56.2272 69.3825 40 69.3825Z"
                  />
                </mask>
                <path
                  d="M79.9993 40C79.9994 39.7993 79.9575 39.6008 79.8762 39.4172C79.795 39.2337 79.6762 39.0692 79.5276 38.9343L73.3764 33.3584L76.9345 25.8553C77.0207 25.6736 77.0679 25.4758 77.073 25.2747C77.0781 25.0737 77.0409 24.8738 76.964 24.688C76.887 24.5021 76.7719 24.3345 76.6261 24.196C76.4803 24.0574 76.3071 23.951 76.1176 23.8835L68.2952 21.0963L68.7037 12.8036C68.7135 12.603 68.6813 12.4026 68.6091 12.2153C68.5368 12.028 68.4261 11.8578 68.2841 11.7159C68.1422 11.5739 67.972 11.4632 67.7847 11.3909C67.5973 11.3187 67.397 11.2865 67.1964 11.2964L58.9037 11.7048L56.1165 3.88242C56.049 3.69293 55.9426 3.5197 55.804 3.37391C55.6655 3.22812 55.4979 3.11301 55.312 3.03603C55.1262 2.95905 54.9263 2.9219 54.7253 2.92698C54.5242 2.93205 54.3264 2.97925 54.1447 3.06552L46.6416 6.62363L41.0657 0.472441C40.9309 0.323669 40.7664 0.204771 40.5829 0.123402C40.3993 0.0420343 40.2008 0 40 0C39.7992 0 39.6007 0.0420343 39.4171 0.123402C39.2336 0.204771 39.0691 0.323669 38.9343 0.472441L33.3584 6.62363L25.8553 3.06552C25.6736 2.97925 25.4758 2.93205 25.2747 2.92698C25.0737 2.9219 24.8738 2.95905 24.688 3.03603C24.5021 3.11301 24.3345 3.22812 24.196 3.37391C24.0574 3.5197 23.951 3.69293 23.8835 3.88242L21.0963 11.7048L12.8036 11.2964C12.603 11.2865 12.4026 11.3187 12.2153 11.3909C12.028 11.4632 11.8578 11.5739 11.7159 11.7159C11.5739 11.8578 11.4632 12.028 11.3909 12.2153C11.3187 12.4026 11.2865 12.603 11.2964 12.8036L11.7048 21.0963L3.88242 23.8835C3.69293 23.951 3.5197 24.0574 3.37391 24.196C3.22812 24.3345 3.11301 24.5021 3.03603 24.688C2.95905 24.8738 2.9219 25.0737 2.92698 25.2747C2.93205 25.4758 2.97925 25.6736 3.06552 25.8553L6.62363 33.3584L0.472441 38.9343C0.323669 39.0691 0.204771 39.2336 0.123402 39.4171C0.0420343 39.6007 0 39.7992 0 40C0 40.2008 0.0420343 40.3993 0.123402 40.5829C0.204771 40.7664 0.323669 40.9309 0.472441 41.0657L6.62363 46.6416L3.06552 54.1447C2.97925 54.3264 2.93205 54.5242 2.92698 54.7253C2.9219 54.9263 2.95905 55.1262 3.03603 55.312C3.11301 55.4979 3.22812 55.6655 3.37391 55.804C3.5197 55.9426 3.69293 56.049 3.88242 56.1165L11.7048 58.9037L11.2964 67.1964C11.2865 67.397 11.3187 67.5973 11.3909 67.7847C11.4632 67.972 11.5739 68.1422 11.7159 68.2841C11.8578 68.4261 12.028 68.5368 12.2153 68.6091C12.4026 68.6813 12.603 68.7135 12.8036 68.7037L21.0963 68.2952L23.8835 76.1176C23.951 76.3071 24.0574 76.4803 24.196 76.6261C24.3345 76.7719 24.5021 76.887 24.688 76.964C24.8738 77.0409 25.0737 77.0781 25.2747 77.073C25.4758 77.0679 25.6736 77.0207 25.8553 76.9345L33.3584 73.3764L38.9343 79.5276C39.0691 79.6763 39.2336 79.7952 39.4171 79.8766C39.6007 79.958 39.7992 80 40 80C40.2008 80 40.3993 79.958 40.5829 79.8766C40.7664 79.7952 40.9309 79.6763 41.0657 79.5276L46.6416 73.3764L54.1447 76.9345C54.3264 77.0207 54.5242 77.0679 54.7253 77.073C54.9263 77.0781 55.1262 77.0409 55.312 76.964C55.4979 76.887 55.6655 76.7719 55.804 76.6261C55.9426 76.4803 56.049 76.3071 56.1165 76.1176L58.9037 68.2952L67.1964 68.7037C67.397 68.7135 67.5973 68.6813 67.7847 68.6091C67.972 68.5368 68.1422 68.4261 68.2841 68.2841C68.4261 68.1422 68.5368 67.972 68.6091 67.7847C68.6813 67.5973 68.7135 67.397 68.7037 67.1964L68.2952 58.9037L76.1176 56.1165C76.3071 56.049 76.4803 55.9426 76.6261 55.804C76.7719 55.6655 76.887 55.4979 76.964 55.312C77.0409 55.1262 77.0781 54.9263 77.073 54.7253C77.0679 54.5242 77.0207 54.3264 76.9345 54.1447L73.3764 46.6416L79.5276 41.0657C79.6762 40.9308 79.795 40.7663 79.8762 40.5828C79.9575 40.3992 79.9994 40.2007 79.9993 40ZM40 69.3825C23.7728 69.3825 10.6175 56.2272 10.6175 40C10.6175 23.7728 23.7728 10.6175 40 10.6175C56.2272 10.6175 69.3825 23.7728 69.3825 40C69.3825 56.2272 56.2272 69.3825 40 69.3825Z"
                  stroke="#312624"
                  stroke-width="4"
                  mask="url(#path-1-inside-1_369_8315)"
                />
                <path
                  d="M39.9981 70.1016C23.3998 70.1016 9.89648 56.5983 9.89648 40C9.89648 23.4017 23.3998 9.89844 39.9981 9.89844C56.5964 9.89844 70.0996 23.4017 70.0996 40C70.0996 56.5983 56.5964 70.1016 39.9981 70.1016ZM39.9981 11.3366C24.1937 11.3366 11.3347 24.1956 11.3347 40C11.3347 55.8044 24.1937 68.6634 39.9981 68.6634C55.8025 68.6634 68.6614 55.8044 68.6614 40C68.6614 24.1956 55.8025 11.3366 39.9981 11.3366Z"
                  fill="#312624"
                />
                <path
                  d="M40.043 19.7285L41.6048 24.5364H46.6601L42.5713 27.5078L44.1332 32.3157L40.043 29.3443L35.9527 32.3157L37.516 27.5078L33.4258 24.5364H38.4811L40.043 19.7285Z"
                  fill="#312624"
                />
                <path
                  d="M22.5959 45.6879H18.2812L18.3776 44.9012L19.6101 44.4323V37.8425L18.3488 37.5678L18.4222 36.6919C19.7497 36.4888 21.0892 36.3745 22.4319 36.3496C23.2737 36.3496 23.9641 36.4522 24.5029 36.6574C25.0418 36.8626 25.4339 37.1325 25.6794 37.4671C25.9186 37.7818 26.048 38.1663 26.0475 38.5616C26.0456 38.8447 25.9849 39.1244 25.8692 39.3828C25.7464 39.6628 25.5683 39.9152 25.3457 40.1249C25.112 40.3476 24.8321 40.516 24.5259 40.6182V40.6858C24.9569 40.6952 25.3773 40.8209 25.7426 41.0497C26.0561 41.2532 26.3102 41.536 26.479 41.8694C26.6407 42.1774 26.726 42.5197 26.7278 42.8675C26.7357 43.3875 26.5797 43.8967 26.282 44.323C25.9857 44.7487 25.5279 45.0843 24.9085 45.3297C24.2891 45.5752 23.5182 45.6946 22.5959 45.6879ZM21.7042 37.3722V40.4312H23.3006C23.5301 40.2872 23.7161 40.0833 23.8385 39.8416C23.9629 39.5714 24.0229 39.276 24.0139 38.9786C24.0316 38.5405 23.8767 38.1129 23.5825 37.7878C23.2948 37.4781 22.8308 37.3233 22.1903 37.3233C22.0248 37.326 21.8598 37.3424 21.697 37.3722H21.7042ZM21.7042 41.3589V44.6409H22.9367C23.243 44.6481 23.5464 44.5794 23.8198 44.4409C24.0628 44.3161 24.266 44.1258 24.4066 43.8915C24.5466 43.6527 24.6187 43.3802 24.6151 43.1034C24.6165 42.8026 24.5433 42.5062 24.4022 42.2405C24.2605 41.9731 24.0454 41.7516 23.7824 41.6019C23.4905 41.4387 23.1603 41.3568 22.826 41.3646L21.7042 41.3589Z"
                  fill="#312624"
                />
                <path
                  d="M30.4375 37.2681L30.5482 36.4512H38.6022L38.3721 39.1838L37.4142 39.0399L36.954 37.422H33.9338V40.5989H35.6783L36.0048 39.6411L37.0748 39.4412L36.8217 42.588L35.7891 42.7591L35.5446 41.505H33.9338V44.5554H37.118L38.024 42.8785L38.9445 42.9892L38.723 45.6772H30.5252L30.5986 44.8905L31.8239 44.4217V37.6852L30.4375 37.2681Z"
                  fill="#312624"
                />
                <path
                  d="M45.6128 45.8663C45.0012 45.8758 44.3932 45.7699 43.8208 45.5542C43.2925 45.3452 42.9147 45.083 42.6875 44.7675L42.8586 42.4362L43.8985 42.5915L44.1947 43.9808C44.3655 44.2167 44.5964 44.4025 44.8635 44.5187C45.1553 44.6584 45.4748 44.7306 45.7983 44.7301C46.0265 44.7293 46.252 44.6803 46.4599 44.5863C46.6596 44.5017 46.8325 44.3645 46.9604 44.1894C47.0894 44.0105 47.1561 43.7942 47.1502 43.5738C47.1518 43.3508 47.0709 43.1352 46.923 42.9683C46.7623 42.7843 46.5717 42.6287 46.3592 42.5081C46.133 42.3767 45.8223 42.2171 45.4273 42.0292C44.962 41.8131 44.5096 41.5701 44.0725 41.3014C43.719 41.0752 43.4159 40.7785 43.1822 40.4299C42.9235 40.0371 42.7924 39.574 42.8069 39.1039C42.7961 38.5477 42.9741 38.0042 43.3117 37.5621C43.6453 37.1309 44.089 36.7975 44.596 36.5971C45.1275 36.3807 45.6962 36.2707 46.2701 36.2735C46.7169 36.2784 47.1609 36.3461 47.5889 36.4748C47.97 36.5665 48.326 36.7414 48.6316 36.9868C48.6316 37.0357 48.6043 37.3881 48.5496 38.041C48.495 38.694 48.4576 39.1398 48.4389 39.3771L47.4321 39.2132L47.1833 37.9864C47.0362 37.7666 46.8325 37.5907 46.5937 37.4773C46.3374 37.3366 46.0504 37.2615 45.7581 37.2587C45.4732 37.2452 45.1945 37.345 44.9829 37.5362C44.8824 37.6407 44.805 37.7651 44.7554 37.9013C44.7059 38.0375 44.6854 38.1826 44.6952 38.3272C44.6942 38.5666 44.7812 38.798 44.9397 38.9773C45.1138 39.1756 45.3199 39.3434 45.5495 39.4735C45.7911 39.6173 46.1248 39.787 46.5663 39.9898C47.0529 40.2155 47.5264 40.4686 47.9844 40.7477C48.3504 40.9805 48.6671 41.283 48.9164 41.638C49.1824 42.0264 49.3188 42.489 49.3061 42.9597C49.3214 43.5486 49.1162 44.122 48.7308 44.5676C48.3451 45.0081 47.8551 45.3449 47.3056 45.547C46.7656 45.7561 46.1918 45.8643 45.6128 45.8663Z"
                  fill="#312624"
                />
                <path
                  d="M53.0117 36.4531H61.8236L61.5791 39.3712L60.5465 39.2001L60.1682 37.434H58.3561V44.4941L59.7943 44.8278L59.6821 45.6907H54.9418L55.0151 44.8954L56.2994 44.4639V37.434H54.5405L54.0213 39.3928L53.0477 39.249L53.0117 36.4531Z"
                  fill="#312624"
                />
                <path
                  d="M20.0548 52.5775C19.7189 52.5873 19.3865 52.5063 19.0927 52.3431C18.8291 52.1919 18.6171 51.9649 18.4843 51.6916C18.3409 51.3925 18.2695 51.064 18.2758 50.7323C18.2696 50.3841 18.3538 50.0402 18.5203 49.7342C18.6837 49.4478 18.9258 49.2142 19.2178 49.0611C19.5443 48.8912 19.9084 48.8066 20.2763 48.8152C20.6102 48.8061 20.9408 48.8823 21.237 49.0367C21.5043 49.183 21.7202 49.4079 21.8555 49.681C22.0051 49.995 22.078 50.34 22.0683 50.6877C22.0711 50.9659 22.0163 51.2416 21.9072 51.4974C21.8046 51.7399 21.6488 51.9562 21.4513 52.1302C21.2534 52.3027 21.018 52.4268 20.7639 52.4927C20.8572 52.683 21.0082 52.839 21.1953 52.9385C21.4537 53.069 21.7315 53.1569 22.018 53.1988C22.018 53.2161 22.018 53.2679 21.9993 53.3541C21.9806 53.4404 21.9777 53.498 21.9748 53.498C21.7616 53.5802 21.5346 53.6207 21.3061 53.6173C21.1127 53.6196 20.9212 53.5793 20.7452 53.4994C20.5776 53.4248 20.4362 53.3016 20.3396 53.1456C20.2344 52.9729 20.1842 52.7722 20.1958 52.5703C20.149 52.5758 20.1019 52.5782 20.0548 52.5775ZM20.1066 49.2697C19.9713 49.2607 19.8359 49.2862 19.7132 49.3438C19.5904 49.4014 19.4843 49.4892 19.4048 49.599C19.2342 49.8808 19.1539 50.208 19.1746 50.5367C19.1747 50.7866 19.2155 51.0348 19.2955 51.2716C19.3721 51.5071 19.5078 51.719 19.6895 51.8872C19.8863 52.06 20.1356 52.1613 20.3971 52.1748C20.5673 52.1253 20.7209 52.0305 20.8414 51.9006C20.962 51.7707 21.045 51.6104 21.0817 51.437C21.1247 51.242 21.1449 51.0427 21.1421 50.8431C21.1418 50.5959 21.1049 50.3502 21.0328 50.1139C20.9686 49.8879 20.8518 49.6804 20.692 49.5084C20.6166 49.4297 20.5256 49.3678 20.4247 49.3266C20.3239 49.2855 20.2155 49.2661 20.1066 49.2697Z"
                  fill="#312624"
                />
                <path
                  d="M25.8444 49.3804L25.3008 49.2122L25.3626 48.8828H27.2006L27.1575 49.2122L26.6685 49.366V50.9696C26.6685 51.3234 26.7519 51.5838 26.9188 51.7535C27.0095 51.8407 27.1173 51.9083 27.2353 51.9521C27.3533 51.9959 27.4791 52.0149 27.6048 52.008C27.7203 52.0147 27.8359 51.9963 27.9436 51.9541C28.0514 51.9119 28.1487 51.8469 28.229 51.7635C28.3785 51.6015 28.4533 51.3527 28.4533 51.0171V49.3804L27.9327 49.2122L27.9744 48.8828H29.5205L29.4788 49.2122L28.997 49.366L28.984 50.9308C28.984 51.4888 28.8402 51.903 28.5856 52.1734C28.3311 52.4438 27.9341 52.579 27.4106 52.579C27.1539 52.582 26.8981 52.5476 26.6513 52.4769C26.4158 52.403 26.2128 52.2507 26.076 52.0454C25.9022 51.7654 25.8203 51.438 25.8415 51.1091L25.8444 49.3804Z"
                  fill="#312624"
                />
                <path
                  d="M32.75 52.4985L32.7903 52.1907L33.2375 51.9606L34.4413 48.9505L35.1604 48.8066L36.2937 51.9707L36.7094 52.172L36.6777 52.4999H34.8771L34.9174 52.1922L35.4092 51.9621L35.1935 51.358H34.0171L33.8013 51.9678L34.345 52.1663L34.3076 52.4971L32.75 52.4985ZM34.1738 50.9064H35.0482L34.6168 49.6394L34.1738 50.9064Z"
                  fill="#312624"
                />
                <path
                  d="M39.9948 52.4979L40.0337 52.1902L40.504 52.0075V49.4187L39.9805 49.2045L40.0279 48.8809H41.9077L41.8645 49.2045L41.3295 49.4159V52.0665L42.3636 52.0981L42.8051 51.3402L43.1718 51.392L43.0496 52.4965L39.9948 52.4979Z"
                  fill="#312624"
                />
                <path
                  d="M46.4102 49.2122L46.4533 48.8828H48.3028L48.264 49.2265L47.7649 49.3776V52.0109L48.2899 52.1547L48.2554 52.5028H46.4245L46.4476 52.1892L46.948 52.0066V49.3804L46.4102 49.2122Z"
                  fill="#312624"
                />
                <path
                  d="M51.5742 48.8828H55.0259L54.9295 50.0334L54.5254 49.9658L54.3816 49.274H53.6611V52.0382L54.222 52.1691L54.1788 52.5056H52.3235L52.3537 52.195L52.8557 52.0267V49.2668H52.1668L51.964 50.0348L51.5828 49.9787L51.5742 48.8828Z"
                  fill="#312624"
                />
                <path
                  d="M58.2539 49.2208L58.3172 48.8828H60.0143L59.9567 49.2208L59.6188 49.3646L60.2386 50.495L60.8398 49.3732L60.4328 49.2294L60.4788 48.8914H61.8163L61.7646 49.2294L61.418 49.3732L60.4558 51.0128V52.0195L60.939 52.1878L60.9031 52.5071H59.1485L59.1887 52.1993L59.636 52.0167V51.0718L58.648 49.3804L58.2539 49.2208Z"
                  fill="#312624"
                />
              </svg>