<svg width="460" height="490" viewBox="0 0 460 490" fill="none" xmlns="http://www.w3.org/2000/svg">
<path d="M112.025 258.677C118.425 263.545 124.842 268.519 132.124 272.033C139.908 275.789 148.438 277.981 156.819 279.962C161.044 280.962 165.3 281.825 169.537 282.781C171.608 283.24 173.679 283.714 175.75 284.203C176.6 284.475 177.471 284.683 178.353 284.824C178.545 284.824 179.136 285.109 179.266 285.041C179.533 284.904 179.962 283.588 180.21 283.302C180.478 283.78 181.279 284.83 180.801 285.401C181.192 285.494 184.044 286.363 184.305 285.829C185.355 283.737 153.694 274.579 150.986 273.734C144.45 271.704 137.939 269.506 131.944 266.134C126.619 263.129 121.68 259.478 116.791 255.827C106.254 248.016 96.4873 239.429 86.4972 230.947C75.8112 221.857 64.4046 213.363 53.0601 205.105C40.0817 195.655 27.7307 185.118 16.8832 173.253C17.2498 174.693 17.6474 176.407 17.2436 177.872C14.5286 176.63 14.1993 173.799 13.9756 171.142C14.3442 171.13 14.7125 171.172 15.0691 171.266C11.9254 167.826 8.93089 164.218 6.07302 160.543C5.56357 159.922 4.83046 159.363 5.11625 158.761C5.33369 158.258 6.5017 157.674 6.90553 157.382C8.76935 156.004 10.6767 154.681 12.6523 153.464C20.2752 148.773 28.7391 145.609 37.5717 144.151C46.7604 142.654 56.0547 143.07 65.2495 144.219C74.2332 145.343 83.0243 146.908 91.6848 149.59C100.345 152.272 108.907 155.439 117.623 158.059C126.298 160.56 134.773 163.706 142.977 167.472C158.882 174.973 173.544 185.646 186.007 198.039C191.859 203.863 196.83 210.402 201.595 217.114C202.506 218.531 203.491 219.898 204.546 221.212C205.061 221.795 205.863 222.876 206.143 221.764C206.254 221.305 205.788 220.342 205.639 219.933C205.323 219.241 205.19 218.48 205.254 217.722C205.404 216.048 205.458 214.367 205.416 212.687C204.956 204.323 201.688 196.338 198.718 188.602C195.556 180.281 192.673 172.11 192.213 163.144C191.822 155.507 192.742 147.584 194.077 140.071C195.475 132.067 197.995 124.299 201.564 116.998C209.528 100.613 219.196 85.1893 226.763 68.5676C234.218 52.1881 242.916 35.7588 254.546 21.894C257.449 18.376 260.596 15.0667 263.965 11.9905C265.621 10.5127 267.33 9.10948 269.09 7.78074C269.923 7.15983 270.774 6.53892 271.631 5.95527C272.346 5.47096 273.731 4.15464 274.582 4.03666C275.756 3.86902 277.819 7.06049 278.608 8.13466C279.92 9.92651 281.079 11.8248 282.075 13.8098C284.026 17.77 285.568 21.9183 286.678 26.1907C287.25 28.2521 287.753 30.3259 288.232 32.3997C288.468 33.4429 288.542 34.8151 288.977 35.7775C289.028 35.945 289.117 36.0987 289.236 36.2268C289.356 36.3548 289.503 36.4539 289.667 36.5164L289.114 36.4294C290.586 43.3463 292.121 50.1888 294.562 56.8511C296.88 63.1657 299.495 69.201 301.049 75.7888C304.205 89.1135 305.447 103.109 303.938 116.713C303.522 120.514 302.917 124.292 302.123 128.032C301.918 129.001 301.689 129.963 301.502 130.925C301.397 131.385 300.794 132.788 300.943 133.198C300.993 133.328 301.459 133.335 301.564 133.515C301.782 133.931 302.111 134.322 302.335 134.756C302.695 135.579 303.127 136.369 303.627 137.116C306.683 126.17 308.086 114.829 307.789 103.469C307.305 89.4301 304.938 74.9754 299.645 61.9177C295.917 52.7655 293.519 43.5388 291.493 33.9085C290.083 27.2027 288.462 20.4969 285.678 14.2071C284.395 11.3237 282.813 8.58285 280.957 6.02978C280.069 4.80105 279.113 3.62357 278.092 2.50302C277.62 1.98146 277.136 1.47852 276.639 0.988005C275.632 0.000761053 275.558 -0.322111 274.34 0.367097C262.157 7.29643 252.471 17.678 244.376 28.9785C236.082 40.5585 229.192 53.374 223.122 66.233C220.252 72.3179 217.388 78.3656 214.113 84.2393C210.684 90.3801 207.087 96.4091 203.713 102.581C200.34 108.753 196.879 114.8 194.226 121.252C191.744 127.428 189.948 133.857 188.871 140.425C187.268 149.472 186.386 158.904 187.492 168.068C189.157 181.933 197.221 193.985 201.402 207.092C202.211 209.622 202.844 212.205 203.297 214.822C198.081 205.491 191.28 197.137 183.199 190.135C175.072 183.094 166.586 176.295 157.254 170.887C147.405 165.195 136.942 160.635 126.066 157.295C114.921 153.88 103.831 150.285 92.7099 146.914C82.111 143.697 71.2262 141.903 60.211 140.835C48.5683 139.705 36.7889 140.295 25.5997 143.94C20.4426 145.61 15.4907 147.858 10.8382 150.639C8.39746 152.09 6.04111 153.678 3.78051 155.395C2.68748 156.137 1.64934 156.957 0.67413 157.848C-0.369614 158.916 0.0528541 158.103 0.276513 158.848C0.531237 159.804 1.93532 161.039 2.52553 161.816L4.32724 164.2C7.64485 168.546 11.2607 172.675 14.8889 176.742C32.0113 195.872 53.2092 210.625 73.2888 226.415C86.6028 236.734 98.6307 248.507 112.025 258.677Z" fill="#312624" fill-opacity="0.6"/>
<path d="M271.158 196.915C271.879 196.35 272.552 195.727 273.171 195.052C273.73 194.301 273.637 194.543 273.532 193.413C273.345 191.433 273.886 190.892 271.755 190.458C270.593 190.228 271.606 189.769 270.469 190.681C269.809 191.35 269.22 192.084 268.71 192.873C267.108 194.91 265.716 197.151 264.026 199.082C261.709 201.719 259.601 204.532 257.72 207.495C256.278 209.714 255.068 212.076 254.11 214.543C253.943 214.984 252.918 217.442 253.533 217.734C254.148 218.026 255.477 215.778 255.813 215.251C259.416 210.047 263.094 204.838 267.617 200.349C268.779 199.231 269.953 198.058 271.158 196.915Z" fill="#312624" fill-opacity="0.6"/>
<path d="M451.907 142.748C447.597 143.238 443.256 143.394 438.922 143.213C430.28 142.909 421.713 141.68 413.083 141.226C404.454 140.773 396.079 141.742 387.642 143.089C379.02 144.46 370.495 146.385 362.12 148.851C362.543 149.683 363.363 150.714 363.108 151.689C364.226 151.341 365.344 151.006 366.475 150.689C367.004 150.539 367.499 150.29 367.935 149.956C368.264 149.733 368.351 149.248 368.855 149.236C369.613 149.236 369.258 149.733 369.706 149.801C370.207 149.727 370.699 149.598 371.172 149.416C372.545 149.068 373.912 148.727 375.291 148.404C379.847 147.336 384.451 146.432 389.102 145.691C397.986 144.269 406.777 143.486 415.767 144.182C421.626 144.629 427.46 145.349 433.318 145.809C438.422 146.264 443.551 146.372 448.67 146.131C451.006 145.995 453.323 145.511 455.647 145.38C458.567 145.231 454.299 147.094 453.429 147.578C444.843 152.359 436.245 157.177 428.056 162.629C426.093 163.933 424.167 165.28 422.253 166.659C421.412 167.175 420.612 167.756 419.861 168.397C418.501 169.751 419.656 168.434 419.296 169.173C419.035 169.701 419.091 170.26 418.675 170.738C417.898 171.576 417.32 171.135 416.42 171.359C415.519 171.582 414.618 172.514 413.835 173.166C412.064 174.656 410.344 176.202 408.685 177.823C394.911 191.234 384.722 207.794 371.066 221.286C364.496 227.864 357.482 233.984 350.074 239.603C342.413 245.334 334.212 250.295 326.31 255.573C319.19 260.304 311.964 264.886 304.037 268.115C295.667 271.612 287.109 274.643 278.403 277.193C277.348 277.433 276.328 277.804 275.365 278.298C274.576 278.745 273.855 279.26 273.017 279.639C271.637 280.26 268.208 281.775 266.698 281.229C266.282 281.073 266.077 280.508 265.729 280.384C265.196 280.433 264.671 280.543 264.163 280.713L261.144 281.334C258.702 281.8 256.261 282.234 253.801 282.576C250.023 283.116 246.233 283.532 242.437 283.923C241.412 284.023 237.859 283.836 237.063 284.675C236.442 285.345 237.821 285.42 238.443 285.544C241.022 285.98 243.636 286.188 246.252 286.165C254.928 286.238 263.586 285.364 272.072 283.557C280.77 281.8 289.226 279.099 297.545 276.143C305.982 273.199 314.063 269.321 321.638 264.582C328.671 260.155 335.529 255.405 342.438 250.792C350.227 245.594 357.629 239.84 364.587 233.574C367.979 230.527 371.28 227.386 374.49 224.149C374.266 224.043 373.868 223.447 373.75 223.285C374.463 223.096 375.163 222.86 375.844 222.578C376.561 222.072 377.199 221.463 377.739 220.771C379.209 219.173 380.644 217.544 382.044 215.884C384.529 212.966 386.859 209.967 389.201 206.956C393.799 201.032 398.415 195.102 403.261 189.378C413.462 177.32 425.764 167.956 439.165 159.692C443.047 157.302 446.98 155.004 450.925 152.725L456.778 149.397C458.536 148.392 460.375 147.268 459.934 144.908C459.17 140.891 454.616 142.425 451.907 142.748Z" fill="#312624" fill-opacity="0.6"/>
<path d="M279.713 184.523C288.871 173.054 295.836 159.289 300.905 145.554C299.88 145.554 298.836 144.822 297.799 144.933C296.923 145.033 297.178 144.89 296.774 145.852C296.525 146.473 296.27 147.094 296.016 147.678C295.649 148.572 295.276 149.46 294.879 150.342C292.748 155.079 290.53 159.773 288.088 164.368C285.727 168.832 283.193 173.154 280.416 177.37C279.227 179.17 278.428 181.198 278.067 183.324C277.788 185.628 278.688 187.969 278.645 190.291C295.811 176.196 317.164 167.665 337.908 160.32C343.419 158.37 348.93 156.408 354.465 154.52C355.751 154.086 357.037 153.651 358.33 153.229C359.367 152.887 360.436 152.85 359.51 151.708C357.702 149.472 354.938 151.087 352.763 151.832C342.102 155.346 331.422 158.879 320.979 163.008C309.46 167.535 297.755 172.44 287.312 179.152C284.684 180.797 282.155 182.61 279.713 184.523Z" fill="#312624" fill-opacity="0.6"/>
<path d="M125.208 374.27L126.681 373.55L125.171 373.389C125.158 373.683 125.171 373.978 125.208 374.27Z" fill="#312624" fill-opacity="0.6"/>
<path d="M182.39 288.313C178.184 288.891 173.984 290.493 169.965 291.834C157.875 296.031 145.623 300.44 134.105 306.071C127.96 309.076 122.53 313.125 117.107 317.248C112.36 320.855 107.359 324.127 102.966 328.188C97.6792 333.168 93.1758 338.918 89.609 345.244C90.868 344.809 92.1604 344.477 93.4733 344.251C94.8091 344.021 95.4676 344.325 96.2691 343.164C97.7734 340.992 99.3974 338.904 101.134 336.912C104.256 333.381 107.752 330.198 111.559 327.418C118.753 322.022 126.047 316.074 134.043 311.895C137.988 309.828 142.119 308.17 146.22 306.413C150.718 304.444 155.154 302.346 159.652 300.378C167.213 297.062 175.233 294.082 182.322 289.822C183.751 288.965 184.776 287.99 182.39 288.313ZM136.82 309.176C136.82 310.188 135.136 310.356 134.335 310.138C133.894 310.025 133.493 309.791 133.179 309.461C132.446 308.741 132.614 308.766 133.111 308.22C133.484 307.791 135.298 306.525 135.931 306.587C137.317 306.717 136.869 308.282 136.82 309.176Z" fill="#312624" fill-opacity="0.6"/>
<path d="M319.016 401.096C319.258 400.024 319.426 398.937 319.519 397.842C319.77 395.1 319.745 392.34 319.444 389.603C318.885 384.636 318.481 379.886 316.027 375.409C313.468 370.752 312.113 365.692 309.727 360.948C307.162 355.863 303.956 351.349 301.086 346.456C300.286 345.094 299.47 343.745 298.638 342.408C298.184 341.681 297.203 339.347 296.507 339.061C295.457 338.633 293.823 339.508 292.63 338.831C291.735 338.322 290.977 337.13 291.331 336.124C291.561 335.466 292.257 335.211 292.63 334.665C293.425 333.498 293.121 334.572 292.779 333.578C292.381 332.405 290.834 331.026 290.064 330.052C288.064 327.531 285.933 325.122 283.739 322.775C279.937 318.72 276.067 314.79 271.444 311.673C269.132 310.018 266.913 308.238 264.797 306.339C262.402 304.389 259.853 302.636 257.174 301.099C252.34 298.212 247.482 295.393 242.549 292.692C240.238 291.45 237.579 290.059 234.938 289.624C234.727 289.587 234.429 289.885 234.155 289.817C233.679 289.581 233.216 289.318 232.77 289.028C231.238 288.477 229.66 288.062 228.054 287.786C227.135 287.582 222.718 286.408 222.308 287.898C221.898 289.388 226.886 290.903 227.899 291.301C230.335 292.226 232.807 292.99 235.286 293.784C238.093 294.78 240.81 296.014 243.406 297.473C248.376 300.105 253.496 302.57 258.367 305.445C262.827 308.072 266.58 311.753 270.86 314.659C274.588 317.199 277.694 320.614 280.677 323.973C284.729 328.449 288.395 333.259 291.636 338.353C294.953 343.743 297.724 349.461 301.204 354.751C304.782 360.197 306.832 366.207 308.951 372.298C309.833 374.838 311.312 377.054 312.374 379.507C313.573 382.251 313.617 385.238 314.157 388.144C314.387 389.386 314.654 390.565 314.859 391.789C314.983 392.534 315.101 393.285 315.207 394.036C315.275 394.496 315.338 394.961 315.4 395.421C315.257 396.098 315.493 396.296 316.102 396.042C316.94 396.346 318.003 396.091 318.227 397.246C318.525 398.805 316.76 398.917 315.785 398.488C315.859 398.997 315.915 399.506 315.977 400.016C312.908 397.582 308.994 396.29 305.497 394.595C301.963 392.99 298.336 391.596 294.637 390.423C291.102 389.181 287.424 388.231 283.982 386.753C280.31 385.182 276.912 383.17 273.153 381.786C266.909 379.532 261.249 375.645 255.888 371.801C249.668 367.361 243.985 362.215 238.952 356.465C234.019 350.809 228.502 345.388 225.532 338.341C224.053 334.839 222.885 331.368 221.152 327.965C219.493 324.699 219.381 321.489 218.897 317.919C218.431 314.504 218.04 311.089 217.704 307.674C217.555 306.128 217.083 304.396 217.176 302.862C217.275 300.888 218.363 298.888 218.804 296.945C218.971 296.218 219.531 294.138 218.263 294.188C217.219 294.231 216.076 296.672 215.629 297.429C213.865 300.653 212.607 304.13 211.901 307.736C209.896 316.405 209.167 325.32 209.739 334.199C210.038 338.322 210.907 342.395 211.355 346.506C211.782 351.071 212.58 355.593 213.74 360.029C213.225 359.632 212.653 365.394 212.628 365.717C212.448 368.858 212.498 372 212.342 375.142C212.157 378.28 212.305 381.429 212.784 384.536C213.25 387.523 212.914 390.472 213.107 393.471C212.417 387.448 211.727 381.426 211.156 375.39C210.603 369.61 210.243 363.711 209.205 358.005C208.214 352.351 207.641 346.631 207.49 340.893C207.397 338.105 207.726 335.305 207.801 332.548C207.781 329.643 207.609 326.742 207.285 323.855C206.875 318.664 208.205 313.585 208.714 308.438C208.919 306.364 210.516 304.52 211.069 302.421C211.722 299.67 211.913 296.828 211.634 294.014C211.205 288.339 209.547 282.912 208.609 277.324C208.191 274.877 208.113 272.385 208.379 269.917C208.689 267.029 210.286 265.049 212.293 263C221.575 253.531 236.734 256.027 248.718 255.872C248.277 257.169 248.898 260.05 249.656 261.23C250.079 261.888 250.843 262.056 251.383 262.571C251.818 262.987 252.042 263.552 252.44 263.993C253.427 265.08 254.626 265.539 255.944 266.086C258.851 267.278 261.212 268.439 264.436 268.737C265.977 268.88 267.406 268.476 268.916 268.638C270.464 268.787 272.025 268.743 273.563 268.507C274.607 268.346 275.371 267.638 276.464 267.477C277.359 267.34 278.744 268.097 279.31 267.303C280.757 265.223 274.905 266.315 274.178 266.346C271.475 266.477 268.823 267.16 266.139 267.234C264.082 267.29 261.603 266.452 259.796 265.521C258.497 264.85 257.18 264.099 255.925 263.379C254.776 262.72 254.353 261.814 253.62 260.814C252.887 259.815 252.185 259.641 251.756 258.517C251.444 257.553 250.971 256.648 250.358 255.841C264.474 255.381 278.459 252.569 290.337 244.664C302.216 236.76 310.709 225.416 319.662 214.513C325.287 207.641 331.496 201.267 338.219 195.464C337.362 195.464 336.871 195.048 336.119 194.843C335.796 194.303 335.498 194.346 335.144 194.986L334.001 195.967C332.476 197.37 330.981 198.804 329.515 200.269C326.545 203.231 323.669 206.305 320.985 209.527C315.654 215.935 310.777 222.666 305.285 228.943C303.08 231.476 300.644 234.724 298.01 236.512C295.376 238.3 292.996 240.858 290.263 242.721C284.141 247.006 277.223 250.023 269.916 251.594C272.73 249.452 276.023 246.08 277.291 242.752C277.993 240.889 279.26 239.523 280.155 237.785C281.101 235.759 281.943 233.687 282.677 231.576C284.473 227.012 286.659 222.573 288.511 218.021C289.412 215.805 290.058 213.458 290.996 211.278C291.841 209.31 293.108 207.379 294.102 205.473C293.164 205.802 292.238 205.702 291.617 206.379C291.176 206.895 290.847 208.037 290.511 208.646C289.548 210.365 289.145 212.067 288.443 213.874C287.399 216.562 286.051 219.182 284.833 221.79C283.019 225.665 281.049 229.415 279.372 233.333C278.129 236.208 275.843 238.443 274.669 241.274C273.495 244.106 271.27 246.161 269.624 248.675C269.17 249.323 268.773 250.009 268.437 250.724C268.065 251.619 268.22 251.749 267.35 252.066C265.443 252.755 263.001 252.786 260.976 253.047C252.427 254.139 243.996 253.593 235.417 253.668C226.247 253.717 216.642 254.76 210.149 261.95C213.448 251.792 220.208 243.454 224.389 233.736C228.974 223.075 232.726 212.228 236.479 201.263C236.889 202.362 238.61 202.598 239.585 202.852C241.126 203.262 241.319 203.095 242.773 202.672C243.86 202.362 244.935 202.672 246.059 202.244C247.513 201.716 249.004 200.884 250.408 200.226C252.06 199.466 253.591 198.466 254.95 197.258C255.447 196.811 255.714 196.24 256.192 195.787C256.776 195.24 257.565 194.961 258.174 194.421C259.18 193.526 264.138 190.316 263.076 188.603C262.013 186.889 257.783 192.216 256.9 193.148C255.355 194.876 253.519 196.321 251.477 197.419C249.923 198.202 248.271 198.394 246.693 199.04C245.686 199.45 244.953 199.99 243.785 199.996C242.996 199.98 242.206 200.028 241.424 200.139C240.799 200.181 240.171 200.131 239.561 199.99C238.653 199.897 237.504 199.891 236.746 200.45C241.273 187.176 244.775 173.576 247.221 159.768C247.488 161.009 254.465 160.556 255.652 160.302C256.521 160.109 257.205 159.532 258.037 159.271C258.87 159.01 259.901 159.097 260.802 158.929C262.715 158.563 264.225 157.688 265.959 156.955C267.822 156.154 269.817 155.713 271.656 154.831C273.647 153.865 275.56 152.746 277.378 151.485C278.775 150.535 279.738 149.256 281.068 148.25C282.508 147.152 283.843 145.924 285.057 144.58C286.228 143.414 287.334 142.182 288.368 140.892C289.12 139.874 290.518 137.241 290.381 135.894C290.163 133.789 288.604 135.77 288.076 136.639C287.225 138.234 286.259 139.765 285.187 141.221C284.367 142.239 283.578 143.289 282.758 144.326C281.664 145.704 280.341 146.505 279.117 147.722C276.846 149.933 274.146 151.655 271.184 152.782C269.164 153.627 266.996 153.962 264.971 154.713C262.945 155.465 261.019 156.222 258.758 156.346C257.447 156.415 256.745 156.849 255.521 157.222C254.502 157.526 253.552 157.359 252.495 157.483C251.191 157.632 247.979 158.166 247.314 159.519C249.799 145.332 251.775 130.958 253.39 116.677C254.161 109.847 255.179 103.159 256.584 96.4412C256.956 94.653 257.341 92.8648 257.714 91.0704C257.994 89.7106 258.565 88.0776 258.746 87.078C259.367 83.8617 259.882 80.248 260.609 76.9199C260.106 77.5098 259.597 77.3856 259.031 77.7333C258.522 77.5656 258.317 77.7333 258.41 78.2983L258.186 79.4408C257.758 81.6015 257.354 83.7871 256.944 85.9417C256.103 85.4831 255.349 84.8823 254.713 84.1659C254.426 83.7406 254.106 83.3379 253.757 82.9613C253.135 82.4336 252.396 82.3032 251.893 81.6574C251.154 80.7447 250.681 79.596 249.892 78.6833C248.972 77.7548 248.212 76.6806 247.643 75.5042C245.543 70.7853 243.232 65.3896 244.425 60.1802C244.649 59.224 245.668 54.443 243.68 55.0702C242.182 55.542 242.145 60.4472 242.151 61.5649C242.151 66.4017 243.959 71.4435 245.456 76.0258C246.005 77.6072 246.829 79.0788 247.892 80.3721C248.718 81.4774 249.203 82.8558 250.035 83.93C250.75 84.8489 251.899 85.3332 252.725 86.2025C253.703 87.3142 255.066 88.0133 256.54 88.1583C255.037 95.9756 253.278 103.731 252.359 111.647C251.793 116.472 251.222 121.29 250.538 126.102C251.16 126.021 251.122 127.282 250.42 126.94C247.935 144.375 245.624 161.947 240.977 178.972C239.492 178.004 237.871 177.246 236.417 176.222C235.796 175.799 235.299 175.253 234.69 174.849C233.77 174.229 232.702 174.092 231.732 173.608C230.223 172.875 228.85 171.304 227.508 170.267C226.035 169.131 224.401 168.193 223.084 166.871C217.654 161.413 211.808 154.254 210.423 146.511C210.044 144.406 210.305 142.351 210.423 140.234C210.479 139.365 211.547 136.347 210.423 135.987C208.776 135.447 208.186 139.905 208.136 140.693C207.917 142.689 207.995 144.706 208.366 146.679C208.807 148.585 209.677 150.305 210.33 152.143C210.982 153.981 212.044 155.161 213.02 156.756C215.028 160.15 217.24 163.42 219.642 166.548C222.27 169.895 225.892 172.571 229.117 175.352C229.992 176.006 230.968 176.514 232.006 176.855C232.887 177.312 233.72 177.857 234.491 178.482C236.28 179.67 238.327 180.413 240.461 180.649C237.355 191.757 233.702 202.79 229.695 213.6C228.141 212.93 226.588 212.508 225.302 211.315C224.83 210.875 224.526 210.297 224.06 209.844C223.438 209.223 222.668 209.024 221.954 208.496C220.842 207.671 220.09 206.224 219.077 205.224C217.642 203.784 216.083 202.672 214.772 201.077C212.665 198.506 210.597 195.644 208.223 193.315C206.103 191.247 204.395 188.794 203.191 186.088C202.775 185.063 201.905 178.345 200.252 180.879C199.457 182.089 200.153 183.598 200.526 184.796C201.035 186.559 201.899 188.199 203.067 189.615C203.968 190.701 204.639 191.9 205.502 192.992C206.123 193.756 206.95 194.29 207.577 195.048C209.491 197.364 211.199 199.916 212.926 202.374C214.017 203.84 215.247 205.198 216.598 206.429C217.928 207.739 218.742 209.676 220.177 210.812C220.798 211.284 221.5 211.539 222.072 212.054C222.643 212.57 223.053 213.296 223.693 213.743C225.19 214.848 227.421 215.463 229.216 214.83C225.805 223.758 222.277 232.836 217.381 241.038C212.902 248.582 208.186 256.35 206.117 264.974C205.079 261.636 203.661 258.428 201.893 255.412C201.147 254.115 200.029 252.755 199.47 251.383C199.016 250.259 199.171 249.073 198.14 248.185C198.14 248.278 198.14 248.377 198.14 248.471C196.388 247.626 195.065 244.826 193.686 243.125C191.449 240.362 188.989 237.779 186.491 235.251C185.354 234.109 184.199 232.985 183.018 231.892C182.037 230.973 181.359 229.564 180.247 228.875C180.186 228.838 180.117 228.819 180.045 228.819C179.974 228.819 179.904 228.838 179.844 228.875C179.614 229.16 179.371 229.036 179.129 228.502C178.398 227.991 177.716 227.413 177.091 226.776C175.749 225.634 174.422 224.47 173.109 223.287C173.854 222.749 174.556 222.156 175.209 221.511C176.122 220.586 176.01 219.785 176.613 218.698C177.75 216.496 178.564 214.141 179.03 211.707C177.166 211.862 177.501 210.279 178.408 209.397C179.129 208.708 179.03 209.67 179.384 208.776C179.53 208.101 179.555 207.405 179.458 206.721C179.309 205.231 179.291 203.765 179.11 202.269C178.961 201.027 179.16 199.549 178.881 198.332C178.289 198.499 177.68 198.599 177.066 198.63L178.849 198.22C178.582 197.32 177.371 194.421 176.221 196.047C175.743 196.724 176.358 197.811 176.545 198.463C176.683 199.075 176.768 199.698 176.799 200.325C177.079 202.61 177.824 204.815 177.806 207.093C177.728 208.764 177.347 210.408 176.681 211.943C176.134 213.296 175.737 214.699 175.178 216.01C174.966 216.494 174.692 216.949 174.364 217.363C173.934 217.937 173.577 218.563 173.301 219.226C172.823 220.188 171.885 220.753 171.376 221.796C167.508 218.427 163.458 215.275 159.242 212.352C157.465 211.154 155.098 209.956 153.619 208.385C153.191 207.931 151.93 204.759 151.377 206.845C139.849 198.981 127.905 191.746 115.597 185.169C116.051 184.927 117.598 184.132 117.927 183.691C118.169 183.356 117.983 183.07 118.132 182.785C118.328 182.423 118.578 182.092 118.871 181.804C119.253 181.319 119.549 180.773 119.747 180.189C120.783 177.102 121.487 173.913 121.847 170.677C122.028 169.336 122.667 167.076 121.847 165.865C121.444 165.244 120.866 164.816 120.189 165.418C119.511 166.02 119.996 166.753 120.027 167.448C120.151 170.298 120.3 173.272 119.108 175.924C120.636 175.694 120.207 176.954 119.418 177.65C118.884 178.115 117.865 178.215 117.436 178.637C117.293 178.78 117.07 179.78 116.865 180.071C116.442 180.655 115.827 180.891 115.423 181.462C115.187 181.804 115.181 182.213 114.87 182.598C114.398 183.219 113.808 183.17 113.628 184.144C108.223 181.58 102.911 178.861 97.3381 176.694C92.3679 174.732 87.2548 172.918 82.1914 171.149C82.6449 170.565 83.465 169.535 83.5395 168.833C83.5768 168.473 83.2599 168.119 83.2786 167.746C83.2972 167.374 83.6203 166.976 83.7135 166.56C83.7968 165.883 83.7375 165.196 83.5395 164.542C83.2848 163.139 83.2848 161.643 82.8623 160.246C82.6475 159.427 82.3455 158.634 81.9615 157.88C81.6384 157.327 80.9736 156.893 80.8183 156.272C80.284 156.893 79.6317 156.396 79.3956 155.85C79.0726 155.111 79.7187 154.496 79.5758 153.85C79.391 153.2 79.0752 152.594 78.6479 152.07C78.2206 151.546 77.6907 151.114 77.0907 150.802C76.3824 150.541 75.6307 150.547 75.5126 151.51C75.3946 152.472 76.3203 152.751 76.7863 153.267C77.7062 154.333 78.5373 155.473 79.2714 156.676C79.7588 157.366 80.1969 158.09 80.5823 158.842C81.2035 160.395 81.0793 162.065 81.0109 163.692C81.0109 164.362 81.16 164.84 81.1849 165.474C81.2284 166.424 80.5326 166.989 80.4269 167.802C80.3213 168.616 80.6009 168.796 80.1784 169.503C79.9987 169.753 79.8661 170.032 79.787 170.329C71.9403 167.759 64.367 164.89 56.1785 163.443C48.3442 162.053 40.7709 159.786 32.8496 158.805C31.3089 158.613 14.0622 156.52 13.9504 158.023C13.8634 159.109 30.9174 161.214 32.5887 161.506C41.4356 163.034 50.0776 165.455 58.937 166.927C58.3157 167.802 58.7568 169.311 58.5642 170.317C58.3716 171.323 58.4772 172.391 58.2039 173.353C57.7652 175.269 56.8089 177.028 55.4392 178.438C54.6005 179.295 53.4946 179.798 52.6435 180.624C52.2583 180.99 52.0719 181.394 51.6432 181.742C51.0219 182.226 50.3634 182.182 49.7794 182.53C49.1954 182.878 49.009 183.418 48.3691 183.716C48.0895 183.846 47.6733 183.778 47.3626 183.896C46.6792 184.157 45.5423 184.977 45.7908 185.821C46.2257 187.292 50.0776 186.243 50.9225 185.566C51.3655 185.142 51.8505 184.763 52.3701 184.436C52.8816 184.176 53.3457 183.832 53.7431 183.418C54.5197 182.53 55.1969 181.661 56.0419 180.792C57.9802 178.805 58.7071 176.476 59.7695 174.073C60.5958 172.18 61.4469 169.236 60.6331 167.274C68.0884 168.963 75.612 171.621 82.8126 174.21C84.6765 174.874 86.4782 175.557 88.3233 176.191C89.3112 176.538 90.3114 176.849 91.3055 177.178L92.7965 177.687L93.8962 178.072C94.3 178.072 94.387 178.258 94.1633 178.606C94.6231 179.804 93.5048 181.946 93.2501 183.139C92.9021 184.827 92.3057 186.299 91.846 187.92C91.001 190.869 88.6153 192.924 86.4595 194.973C85.4717 195.904 84.7821 197.121 83.5271 197.78C82.9939 197.951 82.473 198.159 81.9677 198.401C81.2097 198.935 81.129 199.493 80.2095 199.878C79.29 200.263 78.3456 200.499 77.5442 201.362C75.7611 203.287 78.3705 203.299 79.7249 202.946C80.7148 202.768 81.6803 202.474 82.6014 202.07C83.2227 201.667 83.4463 200.921 84.0303 200.462C84.6143 200.002 85.4034 199.791 86.0371 199.264C87.4722 198.059 88.665 196.246 89.889 194.805C91.1449 193.295 92.1765 191.612 92.9519 189.807C93.3619 188.832 93.4799 187.864 93.9397 186.901C94.3556 186.032 94.7005 185.131 94.971 184.207C95.5364 182.344 96.3502 180.934 96.3067 178.972C106.489 182.816 116.393 187.802 125.873 193.129C125.003 194.048 124.581 195.78 124.009 196.892C123.438 198.003 122.413 198.885 121.959 200.04C121.686 200.735 121.698 201.449 121.294 202.107C120.841 202.859 120.052 203.461 119.511 204.175C118.362 205.721 117.598 207.453 116.33 208.9C112.112 213.731 107.949 218.946 102.749 222.703C102.004 223.243 95.3935 226.838 96.9404 228.186C97.8289 228.955 99.8542 227.335 100.507 226.826C102.103 225.584 103.812 224.621 105.278 223.193C109.254 219.307 112.982 215.258 117.082 211.427C118.381 210.143 119.542 208.728 120.549 207.205C121.58 205.771 123.233 204.597 124.072 203.082C124.488 202.325 124.55 201.449 124.972 200.692C125.345 200.034 125.911 199.524 126.252 198.829C126.979 197.364 127.402 195.253 126.874 193.669C130.197 195.532 133.527 197.395 136.783 199.388C138.926 200.704 141.132 201.971 143.213 203.331C144.338 204.057 145.437 204.827 146.543 205.578C147.786 206.404 149.494 207.211 150.519 208.254C151.029 208.776 150.991 208.441 151.141 209.155C151.168 209.757 151.118 210.36 150.991 210.949C150.941 211.663 150.843 212.372 150.699 213.073C150.24 215.184 150.699 217.034 150.041 219.108C149.295 221.461 149.227 224.019 148.295 226.298C147.448 228.271 146.498 230.199 145.45 232.072C144.418 233.997 143.107 235.761 142.076 237.661C141.101 239.48 139.709 240.709 138.348 242.261C137.193 243.583 135.89 244.769 134.465 245.794C133.583 246.415 129.961 249.098 129.992 250.395C130.036 252.258 132.477 250.495 133.204 249.905C134.894 248.548 136.495 247.086 138.001 245.527C139.299 244.137 140.355 242.578 141.666 241.181C142.71 240.076 143.201 238.803 144.021 237.561C146.674 233.525 150.389 229.26 151.433 224.435C151.954 222.026 153.433 219.406 153.52 216.984C153.57 215.699 153.346 214.706 153.601 213.433C153.805 212.463 153.851 211.467 153.737 210.483C156.713 212.681 159.913 214.563 162.845 216.81C165.778 219.058 168.642 221.598 171.407 224.087C172.773 225.329 174.115 226.571 175.495 227.776C176.557 228.707 178.924 230.03 179.564 231.309C180.129 232.451 179.527 234.513 179.446 235.717C179.365 237.04 180.067 238.114 179.875 239.443C179.44 242.969 179.757 246.422 179.396 249.998C179.104 252.873 179.054 256.002 178.415 258.809C177.835 260.707 176.919 262.486 175.712 264.062C174.917 265.117 173.879 265.924 173.003 266.93C172.531 267.458 170.773 268.793 171.282 269.693C171.966 270.848 173.997 269.196 174.525 268.582C172.767 267.837 174.73 266.353 175.693 266.197C175.917 266.166 176.346 266.545 176.47 266.502C176.743 266.415 177.091 265.676 177.265 265.44C177.826 264.568 178.281 263.632 178.62 262.652C179.135 261.236 179.924 259.964 180.055 258.449C180.124 257.612 180.254 256.782 180.446 255.965C181.359 252.097 182.31 247.893 182.148 243.913C182.086 242.125 182.695 240.504 182.838 238.766C182.817 238.021 182.698 237.282 182.484 236.568C182.427 235.766 182.454 234.961 182.565 234.165C187.535 239.101 192.213 244.31 196.04 250.215C196.296 250.517 196.481 250.872 196.579 251.255C196.678 251.638 196.689 252.038 196.612 252.426C196.458 252.887 196.344 253.361 196.27 253.841C196.27 254.562 196.786 255.145 196.773 255.866C196.773 256.896 196.227 257.958 196.202 259.045C196.242 260.508 196.081 261.971 195.723 263.391C194.909 266.129 194.599 269.495 193.356 272.115C192.791 273.301 192.462 274.598 191.859 275.747C191.2 277.039 190.616 277.895 190.306 279.348C190.126 280.211 189.759 281.969 191.287 281.428C192.387 281.043 192.499 279.255 192.872 278.361C193.897 275.877 195.152 273.276 195.543 270.643C195.891 268.327 196.972 266.055 197.798 263.857C198.786 261.212 198.755 258.542 199.581 255.859C201.446 259.047 203.002 262.404 204.229 265.887C204.608 267.005 205.316 268.489 205.347 269.662C205.397 271.233 204.409 273.065 204.347 274.729C204.266 276.251 204.446 277.776 204.881 279.237C205.082 279.896 205.351 280.532 205.682 281.137C206.096 281.619 206.483 282.123 206.844 282.645C206.844 283.061 204.757 284.434 204.285 284.763C202.674 285.77 201.141 286.897 199.699 288.134C198.73 289.041 197.5 289.618 196.593 290.543C196.009 291.121 195.593 291.785 194.947 292.325C191.971 294.759 188.336 296.523 185.503 299.093C184.342 300.149 183.403 301.359 182.068 302.247C181.387 302.588 180.729 302.971 180.098 303.396C179.551 303.874 179.328 304.588 178.856 305.091C177.954 305.905 176.992 306.65 175.979 307.32C175.227 307.867 175.681 307.941 174.687 307.531C174.305 307.357 173.934 307.16 173.575 306.941C173.115 306.559 172.591 306.261 172.028 306.06C171.282 305.892 170.568 306.172 169.81 305.985C168.275 305.607 167.201 305.147 165.56 305.246C162.056 305.451 158.366 304.625 154.905 305.799C153.259 306.352 151.656 306.625 149.979 307.122C148.575 307.538 146.928 307.612 145.63 308.214C144.853 308.562 142.579 309.736 143.033 310.785C143.654 312.182 145.934 310.474 146.698 310.164C148.078 309.642 149.519 309.326 150.911 308.767C151.599 308.478 152.318 308.27 153.054 308.146C153.961 307.978 154.638 307.525 155.539 307.302C158.093 306.631 161.131 307.146 163.684 307.587C165.101 307.836 166.499 307.587 167.89 308.053C168.369 308.233 168.838 308.441 169.294 308.674C170.096 309.022 170.642 308.773 171.45 308.935C172.258 309.152 173.02 309.514 173.699 310.003C174.575 310.717 174.457 311.294 176.072 310.45C177.074 309.842 178.044 309.185 178.98 308.481C179.738 307.991 180.577 307.724 181.173 307.016C181.639 306.457 181.838 305.774 182.416 305.253C183.963 303.874 185.565 302.899 186.957 301.285C188.2 299.863 189.852 298.857 191.306 297.659C192.903 296.343 194.475 294.977 196.028 293.611C197.078 292.685 197.792 291.648 199.01 290.916C201.989 289.101 204.857 287.109 207.596 284.949C208.018 286.619 208.838 288.674 208.838 290.413C208.838 291.655 207.745 293.244 207.285 294.461C207.136 293.654 206.08 288.532 204.8 288.83C203.819 289.053 204.682 294.033 204.701 295.039C204.77 297.812 204.489 300.582 203.862 303.284C203.549 304.612 203.163 305.922 202.706 307.208C202.408 308.047 202.085 308.872 201.737 309.692C201.389 310.512 200.594 311.244 201.458 311.741L200.942 311.499C195.525 323.035 186.522 331.324 176.979 339.316C172.133 343.376 167.039 347.133 161.895 350.79C159.317 352.615 156.72 354.422 154.067 356.142C153.309 356.639 152.576 356.893 152.364 357.676C152.209 358.247 152.719 358.887 152.191 359.396C151.389 360.178 150.594 359.352 150.202 358.576C144.536 361.997 138.541 364.785 132.552 367.598C126.563 370.411 120.71 373.633 114.498 375.999C105.092 379.581 95.4866 382.605 86.0805 386.194C78.9462 388.819 72.0059 391.944 65.3113 395.545C66.8583 394.303 68.2686 392.645 69.9522 391.608C71.5178 390.64 73.2574 389.907 74.8603 389.001C77.5504 387.479 80.4518 386.132 82.9866 384.412C85.8072 382.549 88.1991 380.14 91.1129 378.358C94.4553 376.315 97.6301 374.086 100.786 371.764C103.942 369.442 107.055 366.729 110.31 364.351C113.417 362.09 116.523 359.886 119.574 357.521C126.053 352.553 132.9 347.704 138.864 342.116C138.317 342.917 138.665 342.811 138.51 343.556C138.416 344.118 138.284 344.672 138.112 345.214C137.958 345.741 137.876 346.286 137.87 346.835C137.783 347.816 137.564 348.781 137.218 349.703C136.385 352.348 136.342 354.994 134.764 357.322C134.242 358.098 132.695 360.11 134.062 360.923C135.428 361.737 136.298 358.998 136.696 358.166C137.646 356.204 137.634 354.112 138.46 352.131C139.007 350.809 139.982 349.412 140.324 348.033C140.498 347.344 140.424 346.704 140.666 346.003C141.045 345.2 141.309 344.347 141.449 343.469C141.517 342.668 141.939 342.01 141.983 341.172C142.039 340.117 141.542 340.048 142.126 339.272C142.71 338.496 143.921 337.943 144.648 337.409C145.475 336.788 146.307 336.217 147.133 335.596C147.425 335.373 147.786 334.932 148.134 334.82C148.481 334.708 148.587 334.864 149.028 334.82C149.649 334.82 150.178 335.174 150.457 334.46C150.606 334.088 150.159 333.796 150.196 333.523C150.258 333.038 150.463 332.902 150.967 332.455C154.234 329.729 157.596 327.046 161.044 324.557C162.46 323.538 176.762 312.312 175.532 311.263C174.494 310.375 168.866 315.398 168.077 316.038C164.92 318.646 161.764 321.191 158.546 323.725C156.931 324.966 155.371 326.332 153.787 327.643C152.998 328.294 152.203 328.94 151.42 329.598C150.849 330.083 149.792 331.418 149.103 331.616C148.177 331.883 147.531 330.449 146.698 329.884C145.866 329.319 145.245 329.561 144.443 329.263C143.642 328.965 143.039 328.307 142.238 327.965C140.716 327.345 139.131 327.295 137.553 326.842C135.552 326.243 133.488 325.876 131.403 325.749C127.569 325.538 123.835 326.301 120.002 326.512C118.654 326.587 116.094 326.854 115.181 328.096C113.789 329.958 117.045 329.412 117.958 329.126C119.561 328.63 121.207 328.506 122.854 328.152C123.973 327.905 125.113 327.765 126.258 327.736C127.097 327.736 127.861 327.345 128.688 327.301C132.353 327.102 135.522 328.971 138.939 329.741C140.629 330.12 141.56 330.822 142.971 331.709C143.716 332.175 144.592 332.082 145.325 332.535C145.816 332.84 146.164 333.392 146.636 333.777C138.995 340.048 131.328 346.239 123.382 352.15C122.91 351.107 121.462 350.709 120.524 350.287C120.134 350.044 119.729 349.824 119.313 349.629C118.536 349.374 118.151 349.728 117.393 349.747C116.312 349.747 115.318 349.182 114.168 349.213C112.597 349.269 111.006 349.53 109.403 349.61C107.585 349.702 105.787 350.04 104.06 350.616C103.439 350.84 102.936 351.237 102.308 351.498C101.538 351.783 100.693 351.74 99.9101 352.019C98.6676 352.466 92.5356 353.882 93.1134 355.975C93.5669 357.601 99.0217 354.546 100.121 353.975C102.133 352.895 104.325 352.188 106.589 351.889C108.32 351.787 110.056 351.817 111.783 351.976C112.957 351.976 114.057 351.703 115.231 351.976C115.759 352.094 116.231 352.423 116.734 352.535C117.592 352.727 118.238 352.392 119.077 352.609C120.126 352.876 120.611 353.329 121.791 353.342C117.498 356.509 113.094 359.551 108.745 362.581C104.657 365.443 100.792 368.579 96.6919 371.429C92.9643 374.037 88.7893 376.08 85.217 378.917C81.8434 381.581 78.2214 383.437 74.6553 385.784C78.5196 380.395 81.4893 374.496 84.2291 368.461C86.8571 362.631 88.8452 356.502 91.7279 350.784C90.5227 351 89.299 351.095 88.0748 351.069C86.59 351.069 86.5838 351.305 85.9936 352.715C84.9933 355.112 84.1297 357.552 83.1916 359.979C81.3899 364.748 79.3459 369.442 77.0969 374.018C74.9802 378.481 72.3466 382.68 69.2502 386.529C66.8272 389.454 63.9631 391.838 61.1053 394.303C58.6201 396.452 59.4278 401.083 63.317 400.512C65.361 400.227 67.5727 398.308 69.3744 397.327C71.7042 396.054 74.0899 394.881 76.4942 393.763C85.8134 389.417 95.4929 385.94 105.147 382.407C110.198 380.544 115.312 378.818 120.226 376.62C120.978 376.284 121.35 376.26 121.586 375.595C121.823 374.931 121.239 374.024 121.636 373.472C122.257 372.59 123.668 372.851 124.581 372.621C125.755 372.323 129.75 368.61 130.216 371.814C136.92 368.529 143.834 365.692 150.333 361.985C157.044 358.093 163.539 353.842 169.791 349.25C182.037 340.396 195.127 330.586 202.334 316.963C201.968 320.378 202.047 323.826 202.57 327.22C203.023 330.784 202.793 334.286 202.706 337.863C202.526 345.413 203.949 352.982 205.328 360.352C206.061 364.214 206.372 368.182 206.881 372.075C207.142 374.068 207.397 376.055 207.627 378.048C207.857 380.041 208.391 381.686 208.441 383.636C208.59 389.224 210.062 394.968 210.789 400.543C211.597 406.752 211.97 412.961 212.926 419.171C214.126 426.907 213.336 434.96 212.995 442.765C212.737 446.776 212.233 450.768 211.485 454.718C210.864 458.604 209.429 462.286 208.497 466.105C207.652 469.57 206.819 473.003 205.701 476.387C205.136 478.076 204.533 479.765 204.03 481.479C203.781 482.317 203.085 483.962 203.446 484.887C204.328 487.067 206.776 482.367 207.173 481.696C209.086 478.055 210.531 474.187 211.473 470.184C212.523 466.099 213.74 462.026 214.579 457.897C215.387 453.548 215.902 449.151 216.12 444.733C216.499 449.409 215.871 454.357 215.629 459.045C215.359 463.48 214.835 467.896 214.057 472.271C213.734 474.171 213.622 476.077 213.436 477.995C213.231 480.187 212.709 482.342 212.653 484.558C212.653 485.092 212.454 486.8 213.349 486.496C214.244 486.191 214.747 482.77 214.915 482.062C215.921 477.784 216.275 473.276 216.822 468.911C217.358 464.432 217.613 459.924 217.586 455.413C217.586 451.011 217.903 446.72 217.586 442.33C217.337 439.127 217.437 435.873 217.406 432.663C217.344 427.199 217.101 421.741 217.083 416.277C217.083 415.389 217.406 413.545 217.014 412.781C216.623 412.018 215.53 411.502 215.07 410.695C214.449 409.615 214.492 409.565 214.852 408.609C215.169 407.783 215.759 406.566 216.853 406.852C216.71 403.232 216.201 399.631 216.045 395.998C215.871 392.155 216.3 388.262 215.809 384.443C214.952 377.681 215.586 370.889 214.753 364.096C216.269 373.366 217.443 382.723 218.891 391.975C219.719 397.356 220.355 402.77 220.798 408.218C221.196 413.241 221.736 418.475 221.568 423.517C221.394 428.67 221.003 433.998 220.326 439.108C219.909 441.675 219.687 444.269 219.661 446.869C219.705 449.229 220.071 451.563 220.214 453.917C220.525 458.834 219.487 463.795 219.431 468.731C219.375 473.668 219.257 478.666 219.81 483.633C219.872 484.155 219.928 486.527 220.649 486.738C221.5 486.955 221.891 484.912 222.078 484.36C223.401 479.864 223.786 474.903 224.172 470.246C224.557 465.59 225.414 460.883 225.414 456.226C225.414 451.154 224.408 446.366 224.948 441.275C225.489 436.183 225.569 430.943 225.905 425.752C226.147 421.729 225.563 417.761 225.284 413.75C224.569 402.543 222.32 391.559 220.313 380.531C219.63 376.732 219.071 372.919 218.4 369.113C217.853 365.965 217.375 362.805 216.536 359.712C215.705 356.866 215.092 353.96 214.703 351.02C213.517 340.191 211.69 328.86 213.889 318.062C214.138 320.893 214.132 323.799 215.002 326.544C215.927 329.437 217.785 331.896 218.99 334.659C220.233 337.534 221.127 340.439 222.761 343.147C224.384 346.024 226.279 348.74 228.421 351.256C231.975 355.186 235.702 359.098 239.523 362.767C241.033 364.22 242.549 365.679 244.133 367.052C244.754 367.623 245.456 368.175 246.14 368.716L246.724 369.163C247.003 369.628 247.345 369.728 247.761 369.467C248.221 369.684 249.787 370.485 249.209 371.05C255.36 375.626 262.256 380.302 269.351 383.294C272.581 384.654 275.793 385.778 278.887 387.461C282.29 389.239 285.82 390.76 289.449 392.012C292.891 393.254 296.351 394.564 299.737 395.973C302.931 397.308 305.95 399.078 309.094 400.487C312.086 401.825 314.886 403.556 317.419 405.635C317.928 406.045 319.115 407.293 319.904 407.081C321.364 406.709 319.904 404.349 319.488 403.667C318.798 402.344 318.668 402.599 319.016 401.096ZM209.671 300.509C209.671 300.745 209.64 300.981 209.621 301.223C209.565 301.901 209.467 302.575 209.329 303.241C209.416 302.334 209.509 301.428 209.652 300.515L209.671 300.509ZM208.571 144.288C208.67 144.244 208.776 144.221 208.884 144.22C208.992 144.22 209.099 144.243 209.198 144.287C209.296 144.331 209.385 144.395 209.457 144.476C209.529 144.556 209.582 144.651 209.615 144.754L208.571 144.288Z" fill="#312624" fill-opacity="0.6"/>
<path d="M219.824 488.046C219.054 487.791 217.14 488.145 216.301 488.195C215.357 488.244 214.854 488.356 213.816 487.723C213.276 487.394 212.574 487.102 212.089 486.767C211.866 486.611 211.704 486.382 211.499 486.233C211.754 486.413 210.337 485.388 210.666 485.705C210.399 485.45 210.412 485.041 210.045 484.867C208.803 484.246 208.666 485.73 208.902 486.543C209.085 487.022 209.316 487.482 209.592 487.915C209.977 488.22 210.101 487.859 210.362 488.04C210.623 488.22 210.722 488.567 210.946 488.66C211.9 489.051 212.882 489.369 213.885 489.61C215.251 489.977 216.37 489.567 217.699 489.79C218.268 489.984 218.874 490.043 219.47 489.964C220.265 489.722 220.93 488.412 219.824 488.046Z" fill="#312624" fill-opacity="0.6"/>
<path d="M267.357 61.5205C268.935 61.9117 268.842 61.7192 270.271 61.2659C271.439 60.8934 272.657 61.2659 273.85 60.645C275.043 60.0241 276.273 59.3535 277.528 58.714C279.106 57.9082 280.525 56.8226 281.715 55.5101C282.175 54.9885 282.336 54.4421 282.746 53.9082C283.243 53.2873 283.989 52.8961 284.449 52.2379C285.368 50.9961 288.723 47.2707 287.555 45.5073C286.604 44.0233 285.598 45.9668 285.256 46.836C284.765 48.0778 283.976 49.0651 283.392 50.2634C282.684 51.8739 281.638 53.313 280.323 54.483C279.009 55.653 277.458 56.5264 275.776 57.0438C274.39 57.4846 272.967 58.4098 271.514 58.5215C270.762 58.5774 270.122 58.3601 269.376 58.478C268.786 58.6592 268.174 58.7594 267.556 58.7761C266.618 58.7326 265.879 58.5153 264.909 58.9437C267.332 49.4811 270.103 40.1178 272.452 30.6365C271.728 30.4727 271.014 30.2653 270.315 30.0156C266.662 43.9923 262.859 57.9565 259.697 72.0325C260.088 72.0462 260.464 72.1879 260.767 72.4358C261.07 72.6837 261.284 73.024 261.374 73.4047C262.397 69.0749 263.447 64.7534 264.524 60.4401C265.32 61.179 266.388 61.2783 267.357 61.5205Z" fill="#312624" fill-opacity="0.6"/>
<path d="M273.352 27.1235C273.669 25.8817 277.975 10.8247 276.776 10.5515C275.409 10.241 271.495 25.7575 271.128 27.0614C271.638 27.0304 273.272 27.4464 273.352 27.1235Z" fill="#312624" fill-opacity="0.6"/>
<path d="M225.402 294.46C222.141 291.976 217.214 288.984 212.977 289.052C211.883 289.052 211.299 289.269 212.306 290.045C213.847 291.238 216.27 291.728 218.009 292.635C222.855 295.168 226.465 298.31 230.267 302.178C229.024 303.289 227.285 305.388 227.061 307.027C226.9 308.232 226.347 309.014 225.993 310.175C225.639 311.336 225.701 312.578 225.57 313.845C225.266 316.707 224.806 319.259 225.023 322.171C225.141 323.792 225.645 325.22 225.725 326.847C225.812 328.244 226.347 329.616 226.558 331C226.732 332.118 227.397 336.589 229.248 336.309C230.863 336.067 228.875 331.677 228.627 330.721C228.049 328.194 227.142 325.754 226.707 323.27C226.359 321.258 226.775 318.725 227.241 316.769C227.819 314.286 228.055 311.696 229.323 309.517C229.944 308.455 229.845 307.375 230.472 306.344C231.025 305.566 231.464 304.713 231.777 303.811C237.704 310.063 243.301 316.595 249.135 322.91C254.522 328.74 259.473 335.117 264.412 341.332C265.17 342.282 265.394 342.456 264.978 343.624C264.841 343.99 264.648 344.369 264.537 344.741C264.257 345.716 264.642 345.94 264.76 346.858C264.866 347.622 264.537 348.392 264.537 349.168C264.537 350.652 265.232 351.956 265.444 353.409C265.721 355.519 266.329 357.573 267.245 359.494C267.674 360.376 268.326 361.04 268.724 361.915C269.011 362.664 269.341 363.396 269.712 364.107C270.451 365.349 270.923 366.982 271.855 368.062C272.626 368.957 275.316 370.794 274.794 368.292C274.607 367.373 273.663 366.808 273.16 366.076C272.657 365.343 272.396 364.654 271.917 363.983C269.911 361.183 268.351 358.625 267.836 355.123C267.581 353.359 267.413 351.534 267.214 349.795C267.177 349.105 267.238 348.413 267.394 347.74C267.475 347.225 267.699 347.063 267.643 346.449C267.599 345.989 267.22 345.635 267.332 345.132C271.184 350.1 275.359 354.688 279.273 359.562C279.549 359.952 279.847 360.326 280.168 360.68C280.547 360.984 281.019 361.028 281.41 361.431C282.28 362.344 282.684 363.797 283.43 364.84C285.076 367.317 286.91 369.665 288.915 371.862C292.556 375.631 295.346 380.052 298.75 384.032C300.587 386.298 302.602 388.414 304.777 390.359C305.715 391.154 306.827 391.893 306.069 390.154C304.826 387.379 302.639 384.833 300.869 382.399C299.098 379.965 297.234 377.401 295.464 374.855C295.998 374.911 296.998 376.172 297.62 376.438C299.174 377.213 300.669 378.101 302.093 379.096C302.658 379.444 303.279 379.587 303.801 379.885C304.323 380.183 304.422 380.505 304.801 380.835C305.671 381.598 306.56 382.654 307.423 383.318C308.181 383.896 310.039 384.367 309.939 382.803C309.884 381.909 307.585 380.319 306.87 379.909C305.522 379.127 304.162 378.568 302.962 377.569C301.881 376.681 300.962 375.489 299.856 374.669C299.334 374.29 298.763 374.135 298.222 373.781C297.421 373.266 297.029 372.49 296.215 372.086C295.538 371.751 295.122 371.359 294.439 370.956C293.755 370.552 293.289 370.745 292.575 370.683C292.047 370.645 292.575 370.95 291.953 370.683C291.531 370.509 291.077 369.813 290.711 369.441C288.17 366.877 286.312 363.803 284.014 361.034C281.528 358.022 278.975 355.067 276.272 352.223C274.788 350.665 273.464 348.976 272.097 347.324C270.731 345.673 268.761 343.984 267.848 342.146C267.394 341.221 267.457 341.159 266.767 340.606C266.051 339.944 265.391 339.226 264.791 338.458C263.234 336.632 261.668 334.811 260.094 332.994C261.076 333.205 262.182 333.664 263.151 333.826C263.903 333.95 264.232 333.583 264.934 333.54C265.636 333.497 266.065 333.875 266.661 334.012C267.904 334.298 269.196 334.012 270.439 334.235C272.129 334.527 273.862 335.173 275.515 335.626C278.335 336.396 281.106 337.092 283.399 339.029C284.163 339.65 286.225 341.252 287.238 340.476C288.741 339.321 285.424 337.75 284.691 337.303C282.518 336.04 280.162 335.122 277.708 334.583C274.682 333.826 272.073 331.864 268.935 331.646C267.693 331.566 266.68 330.969 265.518 330.727C264.962 330.692 264.403 330.736 263.859 330.858C263.064 330.858 262.443 330.566 261.654 330.498C261.237 330.477 260.82 330.511 260.411 330.597C260.057 330.659 258.889 331.367 258.659 331.342C258.15 331.292 256.795 329.218 256.423 328.778L254.006 325.996C251.216 322.78 248.073 319.849 245.358 316.577C242.394 313.007 239.394 309.492 236.387 305.959C233.044 302.01 229.59 297.614 225.402 294.46Z" fill="#312624" fill-opacity="0.6"/>
<path d="M348.608 186.869C349.273 186.335 349.931 185.801 350.602 185.274C351.459 184.597 351.689 184.578 351.845 183.647C351.981 182.865 351.845 182.306 352.323 181.579C352.801 180.853 353.566 180.629 353.752 179.686C348.16 183.672 342.836 188.235 337.636 192.725C338.259 193.249 338.756 193.907 339.09 194.649C342.221 192.023 345.408 189.428 348.608 186.869Z" fill="#312624" fill-opacity="0.6"/>
<path d="M392.321 155.203C390.668 156.097 389.065 157.066 387.487 158.078C386.065 158.997 384.114 159.878 382.964 161.095C382.194 161.909 382.405 161.617 382.256 162.871C382.182 163.455 382.182 164.411 381.703 164.852C380.641 165.852 379.268 164.852 379.007 163.697C372.831 167.559 366.457 171.018 360.369 175.091C360.937 175.804 361.377 176.611 361.667 177.475C369.228 172.508 377.298 168.354 384.859 163.368C385.218 163.074 385.605 162.816 386.015 162.598C387.052 162.269 386.307 162.343 387.164 162.759C387.683 163.061 388.176 163.406 388.637 163.79C389.179 164.29 389.768 164.736 390.395 165.125C391.327 165.566 392.346 165.367 393.29 165.715C395.079 166.379 396.502 167.205 398.49 167.342C400.832 167.503 403.181 167.963 405.542 168.056C407.486 168.086 409.43 167.97 411.357 167.708C412.898 167.516 414.233 166.864 415.793 166.708C417.818 166.51 419.682 165.74 421.639 165.206C423.596 164.672 425.161 164.194 426.789 162.971C428.56 161.642 428.032 160.4 425.876 161.151C424.174 161.741 422.596 162.629 420.906 163.244C417.961 164.281 415.004 165.448 411.935 166.007C407.486 166.814 402.454 165.566 398.124 164.709C396.167 164.324 394.688 162.995 392.793 162.623C391.258 162.319 390.351 161.307 388.941 160.698C393.992 157.445 399.503 155.017 405.094 152.757C410.866 150.403 416.899 148.69 423.149 148.51C425.947 148.507 428.739 148.773 431.486 149.304C434.742 149.832 431.275 148.174 430.094 147.758C424.459 145.765 418.166 146.132 412.425 147.411C412.637 147.532 412.812 147.71 412.931 147.923C413.049 148.137 413.107 148.379 413.098 148.623C413.089 148.867 413.014 149.104 412.88 149.308C412.746 149.513 412.559 149.677 412.338 149.783C411.015 150.348 410.158 148.851 410.822 147.796C404.383 149.523 398.172 152.01 392.321 155.203Z" fill="#312624" fill-opacity="0.6"/>
<path d="M149.208 191.985C147.807 193.865 146.146 195.537 144.275 196.952C143.654 197.424 140.293 198.939 142.337 200.1C143.126 200.547 144.294 199.938 145.033 199.702C145.651 199.55 146.207 199.214 146.63 198.74C148.196 197.393 149.246 195.635 150.451 193.829C151.768 191.842 151.967 189.619 152.663 187.508C153.035 186.44 154.396 180.727 151.979 181.355C150.83 181.659 151.221 183.342 151.153 184.192C151.06 185.31 150.948 186.496 150.786 187.582C150.532 189.321 150.308 190.445 149.208 191.985Z" fill="#312624" fill-opacity="0.6"/>
<path d="M205.384 233.842C205.253 227.885 203.59 222.063 200.556 216.934C199.871 215.757 198.939 214.742 197.823 213.96C196.363 213.004 195.816 214.06 196.53 215.407C197.058 216.394 197.99 217.021 198.599 217.946C199.628 219.442 200.578 220.99 201.445 222.585C202.066 223.746 202.066 224.826 202.563 225.956C202.922 226.686 203.155 227.471 203.253 228.278C203.632 231.929 202.594 235.295 202.575 238.877C202.621 240.212 202.423 241.544 201.991 242.808C201.686 243.406 201.464 244.043 201.333 244.701C201.37 245.311 201.37 245.923 201.333 246.533C201.109 247.508 198.668 252.5 200.892 252.649C202.072 252.73 202.979 249.731 203.377 248.924C203.613 248.408 203.967 247.918 204.172 247.39C204.508 246.514 204.172 245.794 204.271 244.906C204.396 243.304 205.228 241.845 205.241 240.169C205.228 238.027 205.359 235.934 205.384 233.842Z" fill="#312624" fill-opacity="0.6"/>
<path d="M235.542 119.743C236.163 120.153 236.635 120.892 237.443 120.985C235.274 119.563 233.479 116.477 232.031 114.372C230.857 112.659 229.341 110.504 229.062 108.437C228.779 107.054 228.662 105.643 228.714 104.233C228.918 103.224 229.199 102.232 229.552 101.265C229.795 100.315 231.205 96.1861 228.857 97.6638C227.39 98.5828 226.844 101.942 226.688 103.482C226.533 105.022 226.98 106.53 227.31 108.089C227.515 109.132 227.558 110.063 228.105 111.001C230.248 114.689 232.199 118.533 234.864 121.91C234.616 121.289 233.827 120.315 234.137 119.613C234.212 119.485 234.321 119.38 234.453 119.312C234.585 119.244 234.734 119.216 234.881 119.229C235.029 119.243 235.17 119.299 235.287 119.39C235.404 119.481 235.492 119.604 235.542 119.743Z" fill="#312624" fill-opacity="0.6"/>
<path d="M246.165 131.634C247.749 132.093 250.893 131.888 248.371 130.15C247.37 129.541 246.403 128.878 245.475 128.163C244.761 127.542 244.283 126.704 243.475 126.182C242.444 125.505 241.86 125.387 241.04 124.406C240.268 123.411 239.4 122.494 238.449 121.668C238.598 122.537 239.312 122.655 239.225 123.407C239.163 123.953 238.548 123.891 238.604 124.71C238.685 125.698 238.604 125.331 239.53 125.536C240.909 125.865 243.021 126.536 241.12 128.337C243.059 129.237 243.966 131 246.165 131.634Z" fill="#312624" fill-opacity="0.6"/>
<path d="M272.595 105.587C273.216 105.383 273.9 105.302 274.502 105.085C274.689 105.016 275.304 105.041 275.434 104.898C275.565 104.755 275.434 103.88 275.67 103.532C276.366 102.421 277.777 102.738 278.901 102.762C279.622 102.762 280.473 103.029 281.144 103.011C281.915 102.872 282.648 102.572 283.293 102.129C287.804 99.7075 291.327 95.92 294.383 91.8716C295.477 90.4187 297.533 86.9044 296.57 84.9485C295.402 82.6015 294.035 88.0034 293.762 88.674C292.992 90.6174 291.463 92.3994 290.239 94.1255C289.498 95.1145 288.62 95.9926 287.63 96.7333C286.822 97.3915 286.245 98.2546 285.437 98.8941C283.505 100.403 280.821 101.34 278.479 101.955C277.078 102.293 275.656 102.537 274.223 102.688C272.651 102.887 271.191 103.389 269.607 103.489C270.005 103.929 270.247 104.487 270.296 105.078C270.203 105.631 269.538 105.581 269.396 106.208C270.482 106.121 271.555 105.912 272.595 105.587Z" fill="#312624" fill-opacity="0.6"/>
<path d="M256.019 105.146C256.765 105.817 258.741 105.96 259.747 106.109C261.462 106.369 261.226 104.954 261.928 103.519C261.496 103.399 261.052 103.33 260.604 103.314C259.641 103.321 254.087 103.395 256.019 105.146Z" fill="#312624" fill-opacity="0.6"/>
<path d="M261.547 40.6016C261.77 41.9614 262.392 42.3029 262.976 43.5199C263.771 45.1964 267.039 46.7486 265.976 43.6317C265.778 43.0418 265.399 42.4954 265.225 41.8931C265.178 41.4442 265.058 41.0058 264.87 40.5954C264.653 40.2477 264.206 40.2477 263.976 39.8007C263.932 39.7137 263.87 38.8134 263.814 38.5961C263.619 38.1051 263.395 37.6261 263.143 37.1618C262.64 35.8269 262.802 34.0573 262.976 32.5919C263.137 31.2818 263.143 30.6795 263.765 29.5743C264.335 28.6555 265.029 27.8198 265.827 27.0907C266.486 26.3891 267.3 24.4456 265.722 24.2966C264.827 24.2097 263.858 25.7061 263.361 26.2587C262.659 27.0472 262.528 27.9413 262.149 28.8727C261.963 29.3384 261.609 29.5805 261.528 30.1145C261.453 30.4933 261.627 30.9093 261.528 31.3004C260.994 33.0017 260.217 35.6468 260.584 37.4102C260.826 38.503 261.354 39.4592 261.547 40.6016Z" fill="#312624" fill-opacity="0.6"/>
<path d="M258.255 224.831C256.888 225.378 255.273 226.694 254.117 227.625C253.377 228.264 252.68 228.951 252.03 229.681C251.085 230.637 251.234 231.053 251.346 232.394C253.251 230.879 255.256 229.496 257.348 228.253C258.179 227.705 258.924 227.038 259.56 226.272C260.405 225.018 259.572 224.31 258.255 224.831Z" fill="#312624" fill-opacity="0.6"/>
<path d="M235.721 250.904C235.416 253.742 237.286 252.146 238.262 250.867C238.939 249.985 240.126 248.862 240.61 247.905C241.853 245.422 238.38 246.484 237.336 247.458C236.416 248.387 235.846 249.604 235.721 250.904Z" fill="#312624" fill-opacity="0.6"/>
<path d="M295.588 199.187C294.083 201.275 292.831 203.534 291.86 205.918C292.879 205.682 293.774 205.638 294.426 204.912C295.079 204.185 295.594 202.919 296.203 202.043C296.812 201.168 297.57 200.317 298.247 199.442C299.498 197.859 300.6 196.165 301.54 194.381C302.782 191.898 300.676 192.798 299.502 193.953C297.924 195.48 296.899 197.442 295.588 199.187Z" fill="#312624" fill-opacity="0.6"/>
<path d="M342.065 170.273C340.301 169.776 337.716 172.322 336.474 173.147C332.989 175.506 329.927 178.434 327.416 181.809C326.583 182.908 326.117 184.243 325.328 185.373C324.086 187.137 322.942 188.931 321.855 190.781C320.613 192.899 319.37 195.028 318.277 197.22C317.363 199.033 316.928 200.946 316.189 202.808C315.45 204.671 314.102 206.732 313.648 208.732C313.456 209.558 313.493 210.408 313.257 211.215C312.946 212.296 312.281 213.227 311.933 214.32C311.411 215.94 310.691 218.294 311.02 219.989C311.548 222.472 312.977 219.194 313.406 218.269C314.17 216.617 314.866 214.941 315.642 213.302C316.015 212.528 316.26 211.7 316.369 210.849C316.537 209.466 316.933 208.121 317.544 206.869C319.227 203.144 319.836 199.157 321.718 195.475C322.961 193.091 324.073 190.657 325.446 188.354C326.583 186.41 327.677 184.007 329.174 182.331C332.425 178.69 336.208 175.561 340.394 173.048C341.22 172.533 344.128 170.856 342.065 170.273Z" fill="#312624" fill-opacity="0.6"/>
<path d="M355.726 176.55C356.316 175.63 356.538 174.521 356.347 173.445C355.484 174.066 352.352 177.866 353.862 178.667C354.549 178.022 355.173 177.313 355.726 176.55Z" fill="#312624" fill-opacity="0.6"/>
<path d="M380.908 153.625C379.74 154.277 378.497 154.811 377.367 155.525C375.232 156.92 373.224 158.499 371.365 160.244C369.42 162.007 366.973 163.429 364.842 164.951C362.499 166.621 360.915 168.943 358.554 170.601C359.368 171.16 359.238 173.246 359.76 174.103C360.381 172.675 361.269 172.159 362.313 171.104C363.357 170.048 363.997 168.831 364.991 167.825C367.221 165.553 369.961 163.746 372.297 161.585C374.404 159.547 376.862 157.907 379.553 156.742C380.374 156.419 385.692 154.072 383.728 152.849C382.939 152.352 381.604 153.253 380.908 153.625Z" fill="#312624" fill-opacity="0.6"/>
<path d="M352.179 197.959C352.761 198.453 353.404 198.871 354.093 199.201C355.665 199.983 357.46 200.443 359.063 201.12C361.933 202.312 365.593 203.355 368.742 203.088C370.002 203.046 371.264 203.08 372.52 203.187C374.259 203.243 376.036 202.883 377.776 202.839C378.596 202.839 385.399 201.685 383.367 199.958C382.622 199.338 380.82 200.114 380.037 200.331C378.54 200.753 376.968 200.759 375.427 200.995C372.952 201.402 370.442 201.563 367.935 201.473C364.996 201.306 361.958 200.101 359.38 198.754C358.007 198.04 356.497 197.58 355.18 196.779C353.863 195.978 353.316 194.873 352.26 193.992C351.061 193.017 350.85 192.793 350.328 191.315C350.061 190.558 349.551 188.354 348.464 188.608C346.992 188.956 347.582 191.911 347.843 192.781C347.978 193.547 348.293 194.269 348.763 194.889C349.233 195.509 349.844 196.008 350.545 196.345C351.229 196.674 351.608 197.462 352.179 197.959Z" fill="#312624" fill-opacity="0.6"/>
<path d="M331.516 240.672C330.478 241.111 329.388 241.415 328.273 241.579C326.062 241.922 323.831 242.129 321.595 242.199C319.519 242.237 317.432 241.908 315.382 241.957C313.332 242.007 311.319 242.231 309.237 241.721C308.412 241.426 307.555 241.228 306.684 241.131C305.677 241.131 304.82 241.33 303.832 241.051C302.236 240.512 300.583 240.158 298.906 239.995C297.769 239.927 295.103 239.939 296.787 241.423C298.067 242.553 300.26 242.833 301.813 243.392C303.72 244.081 304.646 244.062 306.659 244.05C308.672 244.037 310.542 244.782 312.567 244.764C314.313 244.764 316.04 244.435 317.805 244.41C325.695 244.292 333.138 242.237 340.624 240.001C342.594 239.412 344.352 239.058 346.216 238.064C346.955 237.667 350.291 236.139 348.508 235.239C347.085 234.519 343.805 236.885 342.494 237.276C340.627 237.788 338.791 238.41 336.996 239.138C335.182 239.915 333.287 239.977 331.516 240.672Z" fill="#312624" fill-opacity="0.6"/>
<path d="M240.946 330.311C240.847 332.329 241.201 334.403 241.276 336.445C241.356 342.53 244.22 348.038 247.091 353.21C247.705 354.461 248.575 355.569 249.644 356.463C250.265 356.954 251.986 358.525 252.459 357.14C252.757 356.265 251.216 354.961 250.7 354.452C249.539 353.328 248.781 351.925 247.867 350.583C244.58 345.976 243.063 340.34 243.593 334.707C243.699 333.198 243.456 331.757 243.643 330.255C243.829 328.752 244.488 327.647 244.432 326.2C244.37 324.648 246.569 320.264 244.991 318.985C243.661 317.911 241.387 323.915 241.338 325.257C241.3 326.194 241.611 326.908 241.387 327.846C241.16 328.651 241.012 329.477 240.946 330.311Z" fill="#312624" fill-opacity="0.6"/>
<path d="M242.641 310.572C243.027 310.634 243.424 310.311 243.884 310.367C244.226 310.411 244.679 310.783 245.052 310.876C246.251 311.181 247.419 310.876 248.655 311.075C249.96 311.332 251.291 311.434 252.619 311.379C253.569 311.274 254.527 311.274 255.477 311.379C256.465 311.491 257.515 311.541 258.503 311.646C259.31 311.733 261.143 311.801 261.423 310.715C261.826 309.125 259.956 309.548 259.161 309.554C258.062 309.554 256.968 309.554 255.868 309.585C255.446 309.585 255.005 309.423 254.626 309.448C254.123 309.448 253.706 309.759 253.222 309.784C251.265 309.877 249.494 308.852 247.63 308.492C245.564 308.145 243.527 307.642 241.536 306.989C240.952 306.785 239.858 306.654 239.361 307.101C238.199 308.151 239.914 309.2 240.827 309.647C241.442 309.926 241.977 310.467 242.641 310.572Z" fill="#312624" fill-opacity="0.6"/>
<path d="M286.337 377.892C285.206 376.65 284.076 375.52 283.044 374.229C282.336 373.341 282.032 371.652 281.883 370.565C281.746 369.628 281.92 368.703 281.808 367.759C281.639 367.024 281.559 366.271 281.572 365.517C281.117 365.622 280.645 365.62 280.191 365.513C279.738 365.405 279.315 365.194 278.956 364.896C278.335 366.138 279.435 368.324 279.609 369.584C279.863 371.447 280.503 373.639 281.69 375.11C282.74 376.402 283.678 377.755 284.691 379.146C285.368 380.065 287.281 382.909 288.704 381.736C289.537 381.053 288.748 380.22 288.188 379.699C287.53 379.134 286.952 378.581 286.337 377.892Z" fill="#312624" fill-opacity="0.6"/>
<path d="M165.504 331.734C165.138 332.914 164.79 334.106 164.417 335.285C163.715 337.539 163.112 339.768 161.41 341.569C160.789 342.19 159.633 343.339 159.689 344.357C159.726 345.077 160.124 345.518 160.876 345.394C161.77 345.245 161.982 344.214 162.417 343.618C163.862 341.724 164.899 339.55 165.461 337.235C166.001 335.012 167.61 333.044 168.232 330.833C168.871 328.262 169.286 325.64 169.474 322.998C169.586 322.166 169.313 320.148 168.337 319.893C167.095 319.601 166.89 321.855 166.697 322.606C166.439 323.209 166.231 323.832 166.076 324.469C166.032 325.14 166.511 325.556 166.424 326.251C166.337 326.947 165.914 327.549 165.877 328.356C165.917 329.494 165.792 330.632 165.504 331.734Z" fill="#312624" fill-opacity="0.6"/>
<path d="M189.939 318.284C189.678 318.961 189.112 319.433 188.858 320.079C188.534 320.886 188.112 322.823 189.479 322.916C190.554 322.991 191.144 320.749 191.479 320.004C191.927 319.011 191.821 318.054 192.026 317.03C192.306 315.652 192.703 313.23 192.368 311.92C192.243 311.417 191.889 311.02 191.976 310.442C192.088 309.734 192.598 309.691 192.927 309.2C193.592 308.145 192.927 306.996 192.927 305.785C192.896 304.96 193.2 304.121 192.995 303.302C192.871 302.811 192.467 302.519 192.374 301.985C192.175 301.029 192.455 300.557 191.846 299.663C189.696 296.559 189.684 301.271 189.696 302.681C189.696 303.817 190.243 304.332 190.28 305.481C190.318 306.723 190.839 307.797 190.902 308.995C191.032 311.392 191.026 314.503 190.342 316.682C190.168 317.247 190.137 317.775 189.939 318.284Z" fill="#312624" fill-opacity="0.6"/>
</svg>
