<svg
                width="80"
                height="80"
                viewBox="0 0 80 80"
                fill="none"
                xmlns="http://www.w3.org/2000/svg"
              >
                <path
                  d="M60.132 45.1673C58.732 46.5339 57.932 48.5006 58.132 50.6006C58.432 54.2006 61.7321 56.8339 65.3321 56.8339H71.6654V60.8006C71.6654 67.7006 66.032 73.334 59.132 73.334H25.432C26.4654 72.4673 27.3654 71.4006 28.0654 70.2006C29.2987 68.2006 29.9987 65.834 29.9987 63.334C29.9987 55.9673 24.032 50.0007 16.6654 50.0007C13.532 50.0007 10.632 51.1007 8.33203 52.934V38.3673C8.33203 31.4674 13.9653 25.834 20.8653 25.834H59.132C66.032 25.834 71.6654 31.4674 71.6654 38.3673V43.1674H64.932C63.0653 43.1674 61.3653 43.9006 60.132 45.1673Z"
                  stroke="#312624"
                  stroke-width="2"
                  stroke-linecap="round"
                  stroke-linejoin="round"
                />
                <path
                  d="M8.33203 41.3663V26.1332C8.33203 22.1665 10.7654 18.633 14.4654 17.233L40.932 7.23305C45.0654 5.66638 49.4987 8.73314 49.4987 13.1665V25.8331"
                  stroke="#312624"
                  stroke-width="2"
                  stroke-linecap="round"
                  stroke-linejoin="round"
                />
                <path
                  d="M75.1947 46.5678V53.4347C75.1947 55.268 73.7281 56.7679 71.8614 56.8346H65.3281C61.7281 56.8346 58.4281 54.2012 58.1281 50.6012C57.9281 48.5012 58.728 46.5346 60.128 45.1679C61.3614 43.9012 63.0614 43.168 64.928 43.168H71.8614C73.7281 43.2346 75.1947 44.7345 75.1947 46.5678Z"
                  stroke="#312624"
                  stroke-width="2"
                  stroke-linecap="round"
                  stroke-linejoin="round"
                />
                <path
                  d="M23.332 40H46.6654"
                  stroke="#312624"
                  stroke-width="2"
                  stroke-linecap="round"
                  stroke-linejoin="round"
                />
                <path
                  d="M29.9987 63.3333C29.9987 65.8333 29.2987 68.2 28.0654 70.2C27.3654 71.4 26.4654 72.4667 25.432 73.3333C23.0987 75.4333 20.032 76.6667 16.6654 76.6667C11.7987 76.6667 7.56537 74.0667 5.26537 70.2C4.03204 68.2 3.33203 65.8333 3.33203 63.3333C3.33203 59.1333 5.26536 55.3667 8.33203 52.9333C10.632 51.1 13.532 50 16.6654 50C24.032 50 29.9987 55.9667 29.9987 63.3333Z"
                  stroke="#312624"
                  stroke-width="2"
                  stroke-miterlimit="10"
                  stroke-linecap="round"
                  stroke-linejoin="round"
                />
                <path
                  d="M11.4688 63.3311L14.7687 66.631L21.8687 60.0645"
                  stroke="#312624"
                  stroke-width="2"
                  stroke-linecap="round"
                  stroke-linejoin="round"
                />
              </svg>