<svg width="270" height="470" viewBox="0 0 270 470" fill="none" xmlns="http://www.w3.org/2000/svg">
<path d="M266.264 79.389C268.091 77.1736 269.304 74.4989 269.777 71.6427C270.251 68.7865 269.967 65.853 268.955 63.1469C267.932 60.3751 266.14 57.9682 263.798 56.2213C260.941 54.1027 257.692 52.7159 254.835 50.6059L254.785 50.24C254.201 46.6504 253.077 43.1748 251.453 39.9366C250.759 38.4534 249.762 37.1392 248.529 36.0824C247.021 34.8657 244.289 34.5935 243.789 32.577C243.422 31.0455 244.222 29.6332 244.014 28.0507C243.805 26.7211 243.227 25.4808 242.348 24.4772C240.999 23.0193 239.394 21.8332 237.616 20.9804C235.811 19.8845 233.876 19.0269 231.86 18.4279C230.258 17.9832 228.576 17.9365 226.953 18.2918C225.179 18.7087 223.221 20.6911 221.33 20.6656C219.376 19.6518 217.216 19.1241 215.024 19.1256C215.574 15.382 213.458 11.8851 211.134 9.06891C209.543 7.13755 207.91 6.65258 205.561 6.21016C202.745 5.68265 200.563 4.10013 198.13 2.6197C194.723 0.509672 190.775 -0.655951 186.809 0.390555C182.503 1.51364 179.87 5.41038 176.896 8.52438C174.229 8.49196 171.595 9.13816 169.233 10.4047C166.743 11.8281 164.617 13.8306 163.026 16.2498C162.631 16.843 162.275 17.4627 161.96 18.1046C158.82 18.5215 155.637 16.8964 152.439 17.1772C149.423 17.4249 146.552 18.5984 144.201 20.5436C141.85 22.4887 140.131 25.1146 139.268 28.0762C138.252 31.4795 138.594 35.3677 136.703 38.5157C134.512 42.1487 130.538 42.7018 127.389 45.0245C126.262 45.8003 125.364 46.8764 124.793 48.1362C124.222 49.396 123.999 50.7915 124.149 52.1714C124.441 55.5321 125.815 58.8418 127.123 61.8962C127.836 63.5616 128.643 65.1837 129.539 66.7544C130.42 68.0814 131.147 69.5091 131.705 71.0085C130.745 72.3606 130.08 73.9069 129.755 75.5433C129.089 79.2359 130.23 82.971 131.08 86.5274C132.144 91.0354 132.381 95.7058 131.779 100.302C131.413 103.399 131.321 106.853 134.179 108.768C135.886 109.908 138.019 110.019 139.785 111.022C142.067 112.324 142.284 114.979 143.725 116.978C145 118.68 147.157 119.454 148.357 121.232C149.556 123.011 149.715 125.104 150.539 126.958C154.613 136.079 166.142 131.383 172.823 128.575L173.306 128.805C176.454 130.011 179.895 130.169 183.136 129.256C185.218 128.754 187.226 127.988 189.25 127.299L189.55 127.197L190.641 126.975C190.878 126.934 191.118 126.909 191.358 126.899C192.313 128.464 193.196 130.072 194.007 131.723C194.173 132.148 194.332 132.574 194.473 132.991C195.973 137.194 197.805 141.278 199.155 145.532C200.504 149.786 201.163 154.346 201.887 158.821C202.717 163.129 203.287 167.485 203.595 171.864C203.251 177.627 202.937 183.387 202.654 189.145C201.543 211.833 200.732 234.553 200.221 257.304C200.138 261.274 200.06 265.259 199.988 269.258C199.988 269.139 199.921 269.019 199.88 268.9C199.905 268.835 199.905 268.762 199.88 268.696L199.605 268.016V267.956C198.781 265.247 197.822 262.584 196.731 259.975C196.289 258.903 195.831 257.848 195.356 256.793C196.281 245.503 191.958 233.362 186.351 223.969C179.687 212.865 169.691 203.617 157.637 199.057C150.686 196.307 143.138 195.52 135.786 196.776C135.654 196.796 135.527 196.846 135.416 196.922C135.304 196.997 135.21 197.097 135.141 197.214C135.072 197.332 135.029 197.463 135.015 197.599C135.001 197.735 135.017 197.873 135.062 198.002C138.766 209.574 144.222 220.484 151.231 230.333C157.62 239.275 165.576 248.753 176.13 252.454C179.031 253.368 182.005 254.017 185.018 254.394C187.886 254.844 190.686 255.668 193.349 256.844L193.432 257.023L193.582 257.355C193.832 257.976 194.107 258.588 194.415 259.201L194.465 259.78C194.469 259.815 194.48 259.849 194.497 259.879C194.515 259.909 194.539 259.936 194.567 259.956C194.596 259.976 194.628 259.99 194.662 259.996C194.696 260.002 194.731 260.001 194.765 259.992C195.706 262.196 196.581 264.425 197.414 266.671C198.247 268.917 198.938 271.606 199.913 273.963C199.291 313.668 199.569 353.372 200.746 393.077C201.521 418.602 202.321 444.126 204.653 469.583C204.711 470.212 205.611 470.093 205.594 469.472C204.986 447.028 203.712 424.558 202.879 402.139C202.129 379.978 201.662 357.805 201.479 335.622C201.418 328.509 201.393 321.393 201.404 314.275C202.171 312.241 202.745 310.131 203.578 308.115C203.67 307.893 203.77 307.681 203.862 307.459C205.386 305.196 207.644 304.694 209.959 304.175C211.856 303.876 213.73 303.438 215.566 302.865C221.539 301.47 227.67 300.227 233.151 297.309C243.555 291.77 252.244 282.309 258.45 272.261C259.913 269.904 261.253 267.47 262.465 264.97C263.398 263.055 264.906 260.605 264.373 258.367C263.798 255.959 261.324 255.619 259.275 255.525C256.317 255.407 253.355 255.541 250.42 255.925C238.552 257.615 227.401 262.724 218.273 270.653C213.523 274.649 209.565 279.535 206.611 285.049C204.882 288.208 203.752 291.672 203.278 295.259C203.056 296.417 203.028 297.605 203.195 298.773C203.171 298.873 203.171 298.978 203.195 299.079C203.195 299.138 203.237 299.189 203.262 299.241C203.287 299.292 203.262 299.317 203.262 299.351C203.148 301.001 203.207 302.658 203.437 304.294C202.64 305.91 201.966 307.585 201.421 309.306C201.487 279.663 202.043 250.029 203.087 220.404C203.92 218.583 205.036 216.83 205.878 215.299C206.436 214.32 207.027 213.35 207.627 212.397C209.734 212.882 211.984 212.066 213.95 211.019C217.19 209.372 220.291 207.454 223.221 205.285C229.369 200.571 232.276 194.096 235.1 187.026C235.775 185.324 236.466 183.623 237.258 181.921C237.758 180.849 238.832 179.624 237.708 178.569C236.816 177.718 235.333 178.075 234.284 178.229C232.555 178.489 230.847 178.87 229.169 179.369C222.268 181.408 216.112 185.488 211.476 191.093C207.86 195.509 204.345 202.571 205.253 208.747C205.253 209.266 205.253 209.785 205.253 210.304C205.267 211.04 205.14 211.772 204.878 212.457C204.595 212.78 204.336 213.104 204.137 213.359C203.937 213.614 203.62 214.023 203.303 214.414C203.47 209.99 203.648 205.563 203.837 201.133C204.309 190.123 204.839 179.116 205.428 168.112C205.886 165.373 206.686 162.65 207.369 160.021C208.393 156.039 209.551 152.1 210.901 148.229C213.524 140.782 216.982 133.67 221.205 127.035C222.843 126.784 224.498 126.673 226.153 126.703C228.442 126.801 230.728 126.472 232.901 125.733C235.817 124.525 237.474 121.743 240.682 121.071C243.676 120.584 246.57 119.592 249.245 118.135C252.04 116.488 254.642 114.522 257.001 112.273C261.016 108.453 264.181 103.033 263.373 97.2307C262.94 94.1082 260.774 91.275 261.066 88.0334C261.332 84.528 264.223 81.967 266.264 79.389ZM189.259 245.205C183.547 235.735 176.473 227.197 168.275 219.876C163.646 215.741 158.577 212.151 153.163 209.173C152.73 208.935 152.289 209.649 152.697 209.939C164.109 217.877 174.522 227.338 182.728 238.722C186.332 243.71 189.52 248.998 192.257 254.53C187.593 251.91 181.078 252.454 176.213 250.608C169.316 247.987 163.676 242.78 158.878 237.224C149.155 225.876 141.741 212.664 137.069 198.359C162.06 194.573 184.26 216.456 191.216 239.411C192.534 244.04 193.421 248.786 193.865 253.586C192.444 250.721 190.908 247.928 189.259 245.205ZM209.818 282.896C211.758 279.919 214.009 277.166 216.532 274.686C223.997 267.361 233.138 262.061 243.122 259.269C248.301 257.783 253.674 257.123 259.05 257.312C260.716 257.38 262.732 257.312 262.74 259.652C262.74 260.707 261.965 262.034 261.532 262.962C260.447 265.307 259.243 267.593 257.925 269.811C252.73 278.684 245.806 286.372 237.583 292.4C232.623 295.853 227.065 298.311 221.205 299.64C218.215 300.398 215.224 301.18 212.225 301.929C210.384 302.389 208.552 302.908 206.869 301.682C206.919 301.606 206.952 301.529 207.002 301.461C209.715 296.949 212.991 292.816 216.749 289.167C224.754 281.314 234.617 275.307 244.147 269.598C244.555 269.351 244.147 268.637 243.755 268.849C233.509 274.099 223.638 279.757 215.316 287.959C211.841 291.35 208.783 295.162 206.211 299.309C206.49 293.668 207.71 288.118 209.818 282.896ZM207.16 203.523C207.83 200.418 209.071 197.47 210.817 194.837C214.275 189.756 219.016 185.727 224.537 183.18C227.298 181.868 230.213 180.924 233.209 180.373C233.962 180.164 234.737 180.047 235.517 180.024C236.35 180.083 236.175 180.024 235.758 180.875C235.109 182.219 234.525 183.597 233.967 184.984C231.627 190.71 229.577 196.759 225.137 201.201C222.575 203.605 219.749 205.698 216.715 207.437C214.424 208.841 211.426 211.138 208.577 210.977C209.543 209.513 210.562 208.095 211.634 206.723C215.767 201.534 220.434 196.813 225.554 192.641C225.62 192.58 225.662 192.495 225.672 192.404C225.681 192.312 225.657 192.221 225.605 192.146C225.552 192.072 225.475 192.019 225.387 191.999C225.299 191.979 225.207 191.993 225.129 192.037C219.004 195.8 213.672 200.769 209.443 206.654C208.593 207.789 207.78 208.972 207.002 210.202C206.717 207.981 206.77 205.728 207.16 203.523ZM225.595 20.4188C229.069 18.5896 232.734 20.0274 235.942 21.7546C239.149 23.4818 243.231 25.6514 242.431 29.931C242.023 32.1771 241.739 33.9213 243.914 35.2996C245.263 36.1505 246.821 36.4908 248.012 37.6139C249.329 38.9821 250.331 40.633 250.944 42.4465C251.939 44.8045 252.698 47.2587 253.21 49.7721C253.163 49.8013 253.123 49.8402 253.091 49.8862C253.059 49.9323 253.037 49.9845 253.027 50.0396C253.016 50.0947 253.016 50.1515 253.027 50.2065C253.039 50.2615 253.062 50.3135 253.094 50.3591L253.36 50.7505C253.445 51.3652 253.492 51.9846 253.502 52.6053C253.552 55.7959 252.586 58.9184 252.827 62.1089C253.14 64.6836 253.732 67.2148 254.593 69.6557C255.593 72.9313 256.592 76.5643 255.218 79.8655C254.491 81.5978 253.309 83.0908 251.802 84.1792C250.47 85.1236 247.862 86.4593 246.088 85.7447C245.78 84.8938 245.43 84.1451 245.047 83.3624C243.73 80.6653 241.973 77.6449 239.565 75.705C239.432 74.4905 239.212 73.2877 238.907 72.106C238.832 71.7827 238.741 71.4594 238.666 71.1446C243.031 65.9376 245.33 58.1781 245.58 51.4822C245.696 48.0789 245.163 44.531 243.272 41.6893C241.381 38.8475 238.657 37.7415 235.675 36.7631C233.784 36.1334 231.743 35.5549 230.219 34.168C228.694 32.7812 228.128 31.02 227.52 29.1993C226.52 26.2214 225.47 23.5158 222.938 21.5929C223.857 21.2845 224.746 20.8915 225.595 20.4188ZM166.134 70.3448C164.951 66.5076 162.06 64.823 159.619 61.9388C156.512 58.2632 157.887 52.7159 161.427 49.8997C164.967 47.0835 168.741 47.5514 172.823 46.9558C176.655 46.3943 178.029 43.3569 180.47 40.7108C182.155 38.8737 184.125 37.333 186.301 36.1505C186.347 36.1595 186.395 36.1556 186.439 36.1391C186.483 36.1226 186.522 36.0942 186.551 36.0569L186.593 36.0058C188.149 35.1849 189.796 34.5593 191.499 34.1425C196.436 33.1016 201.518 32.992 206.494 33.8192C210.239 34.522 213.765 36.1261 216.782 38.4987C216.798 38.553 216.827 38.6026 216.865 38.6433C218.837 40.429 220.93 42.0695 223.13 43.5526C225.629 45.4244 226.978 47.4749 227.153 50.708C227.278 53.218 226.962 55.7306 226.22 58.1271C225.825 59.4727 225.265 60.762 224.554 61.9643C223.954 62.8859 223.261 63.7413 222.488 64.5167C222.338 64.0318 222.18 63.5553 222.03 63.0789C220.447 58.1186 219.256 52.5457 216.34 48.1725C213.558 44.012 209.343 42.472 204.636 41.7829C202.221 41.434 199.805 41.1958 197.414 40.6768C195.256 40.2174 193.124 39.7494 190.925 40.2089C188.119 40.8699 185.522 42.2456 183.377 44.2077C179.42 45.7987 176.463 50.6569 174.214 53.89C172.715 56.0511 170.682 58.8588 169.616 61.7771C169.525 61.8423 169.439 61.9133 169.357 61.9898C167.417 63.8106 169.532 68.6432 169.974 70.7192C170.807 74.4968 170.457 78.4446 171.415 82.1967C172.373 85.9489 175.064 88.3141 177.654 91.0793C179.171 92.8329 180.367 94.8501 181.187 97.035C180.631 97.7489 179.928 98.3297 179.129 98.7367C177.53 99.3492 176.455 98.2942 175.33 97.3583C173.758 96.1043 172.264 94.7517 170.857 93.3084C167.525 89.7605 166.517 85.8893 166.733 81.0652C166.95 77.4747 167.208 73.8077 166.134 70.3534V70.3448ZM228.469 51.0483C228.469 50.776 228.469 50.5123 228.411 50.2485C228.778 50.5123 229.161 50.7505 229.544 50.9972C232.043 53.0052 233.576 55.8554 235 58.8077C236.337 61.6243 236.942 64.7446 236.758 67.869C236.758 70.8128 238.024 73.5695 238.249 76.4963C238.475 79.4846 238.107 82.4887 237.166 85.3278C236.228 88.2592 234.676 90.9472 232.619 93.2053C230.562 95.4633 228.049 97.2375 225.254 98.4048C222.751 99.4196 220.09 99.9671 217.398 100.021C214.708 100.072 212.234 99.4003 209.643 98.8813C210.975 97.1684 212.21 95.3787 213.341 93.5211C216.324 96.4905 220.914 94.4741 223.171 91.4537C225.895 87.8121 226.503 82.9455 226.095 78.4872C225.687 74.0289 224.271 69.7663 222.871 65.5718C227.328 63.198 228.619 55.4896 228.469 51.0483ZM177.438 75.6369C178.921 78.6488 180.44 81.6465 181.995 84.6301C182.528 85.6596 183.053 86.7061 183.586 87.7526C181.029 84.8542 178.953 81.5493 177.438 77.9682C175.897 74.148 175.589 70.0471 174.256 66.1758C173.831 64.9507 172.59 61.9217 171.007 61.4623L171.082 61.2751C172.102 59.0882 173.323 57.0056 174.731 55.0556C176.488 52.5032 178.421 49.5168 180.82 47.2792C180.617 47.6024 180.434 47.9377 180.27 48.2831C178.138 52.7754 179.979 57.9824 178.038 62.5599C177.121 64.7039 175.772 66.7374 175.539 69.1197C175.305 71.502 176.422 73.5694 177.438 75.6369ZM181.67 81.0396C180.559 78.8785 179.476 76.7146 178.421 74.5479C177.305 72.2677 176.422 70.2257 177.238 67.6648C177.821 65.8015 178.904 64.1509 179.579 62.3301C180.146 60.7367 180.444 59.0567 180.462 57.3614C180.424 55.4158 180.499 53.4697 180.687 51.5333C181.178 48.8365 182.671 46.4377 184.852 44.8373C186.491 43.4717 188.36 42.4223 190.367 41.7403C192.782 40.9916 195.073 41.5617 197.464 42.0636C201.479 42.9145 205.794 42.8719 209.626 44.3949C210.582 44.7679 211.481 45.2747 212.3 45.9008C209.051 47.4663 205.528 49.3041 201.887 48.181C200.413 47.7131 199.205 46.7602 197.622 46.6496C196.269 46.6436 194.922 46.8532 193.632 47.2706C188.634 48.5979 181.286 52.316 181.77 58.6801C182.003 61.7771 184.269 64.253 185.41 67.0266C186.712 70.5044 187.052 74.2808 186.393 77.9426C185.943 80.8865 185.285 83.8473 185.685 86.8422C185.956 88.7762 186.614 90.6325 187.618 92.296C187.518 92.1939 187.426 92.0833 187.326 91.9726C185.718 88.2205 183.519 84.6641 181.67 81.0396ZM218.706 75.4157C219.771 72.72 220.11 69.7824 219.689 66.9075C219.348 64.4912 218.939 61.9473 217.573 59.8883C216.049 57.6081 213.591 56.6722 211.184 55.6342C210.651 51.848 207.21 50.2911 203.803 50.1549C202.578 50.1866 201.352 50.1155 200.138 49.9422C198.946 49.5856 197.783 49.1392 196.656 48.6064C196.168 48.4218 195.663 48.2878 195.148 48.2066C196.126 47.9917 197.135 47.9657 198.122 48.13C199.555 48.4193 200.771 49.3892 202.221 49.7125C203.353 49.9491 204.516 49.9865 205.661 49.8231C208.382 49.3639 210.966 48.2787 213.217 46.6496C215.516 48.7851 216.915 51.7545 217.99 54.911C219.531 59.3778 220.88 63.9127 222.297 68.4135C223.804 73.1866 225.254 78.1383 224.729 83.2092C224.204 88.2801 219.806 96.7457 213.9 92.6448C214.108 92.3555 214.316 92.0662 214.524 91.794C216.19 89.6329 217.757 87.4037 218.023 84.5875C218.348 81.431 217.632 78.5127 218.706 75.4157ZM187.284 67.886C186.393 65.0613 184.41 62.7811 183.536 59.9649C182.303 56.0171 185.493 52.6648 188.584 50.8441C189.656 50.2159 190.769 49.6644 191.916 49.1935C191.9 49.236 191.897 49.2825 191.908 49.3266C191.919 49.3708 191.943 49.4104 191.976 49.4402C192.01 49.47 192.052 49.4884 192.096 49.493C192.141 49.4976 192.185 49.488 192.224 49.4658C194.348 48.1895 196.439 49.8997 198.355 50.6824C199.388 51.08 200.476 51.3069 201.579 51.3546C203.116 51.3141 204.654 51.4281 206.169 51.6949C207.003 51.9469 207.773 52.3821 208.425 52.97C209.077 53.5579 209.595 54.2842 209.943 55.0982L209.51 54.894C207.41 53.8985 204.945 52.7414 202.72 53.7284C201.762 53.7891 200.8 53.7349 199.855 53.5667C197.839 53.1158 196.081 52.7159 194.065 53.4136C192.78 53.8327 191.645 54.6286 190.8 55.7023C190.512 55.9747 190.297 56.3172 190.175 56.6977C189.453 58.1371 189.238 59.7866 189.567 61.3687C190.458 66.0482 194.148 69.5621 196.231 73.6715C197.406 75.9943 197.756 78.7254 199.322 80.8354C199.988 81.6516 200.711 82.4166 201.487 83.1241C202.542 84.1815 203.375 85.4464 203.937 86.8422C203.503 87.9313 203.104 89.0373 202.537 90.0668C202.075 90.3499 201.59 90.5919 201.088 90.79C200.383 90.9514 199.659 91.0115 198.938 90.9687C197.153 91.0216 195.371 90.7715 193.665 90.2285C190.491 89.0799 188.834 86.4423 187.059 83.7708C187.218 81.2183 187.892 78.6659 188.092 76.1134C188.376 73.3428 188.098 70.5422 187.276 67.886H187.284ZM196.706 56.3659C198.039 56.7743 198.847 58.7397 199.388 59.9308C199.777 60.5964 200.011 61.3446 200.071 62.1174C199.981 62.5289 199.853 62.9306 199.688 63.3171C198.097 63.6064 196.448 63.3171 194.84 63.6829C193.919 63.904 193.073 64.3742 192.391 65.0442C191.2 62.7896 190.325 60.0755 191.016 57.8889C191.081 57.8122 191.122 57.7173 191.133 57.6166C191.129 57.5827 191.129 57.5484 191.133 57.5145C191.28 57.1511 191.477 56.8104 191.716 56.502C192.699 55.6512 194.665 55.7533 196.514 56.0766C196.506 56.108 196.504 56.1409 196.508 56.1731C196.513 56.2053 196.525 56.2361 196.542 56.2635C196.559 56.2909 196.582 56.3141 196.609 56.3318C196.636 56.3494 196.666 56.3611 196.698 56.3659H196.706ZM200.963 59.7692C200.518 58.6495 199.906 57.6074 199.147 56.6807L200.38 57.021C201.27 57.2225 202.14 57.5073 202.979 57.8718C202.989 57.9403 203.021 58.0032 203.07 58.0505C204.945 59.7521 203.32 61.658 201.537 62.6705C201.665 61.6531 201.46 60.6212 200.954 59.7351L200.963 59.7692ZM203.337 83.2092C202.787 82.5796 202.237 82.0096 201.729 81.4565C202.895 81.3629 203.97 80.2314 204.778 79.2614C204.861 81.2183 205.769 83.1667 204.428 84.6982C204.11 84.1561 203.741 83.6461 203.328 83.1752L203.337 83.2092ZM205.003 77.3896C204.044 78.8907 202.678 80.0735 201.071 80.7929C200.128 79.7569 199.398 78.5391 198.922 77.2109C197.556 73.2887 195.465 70.1577 193.29 66.6948C193.295 66.6581 193.295 66.6209 193.29 66.5842C193.041 66.0482 194.482 65.2314 194.857 65.0698C195.562 64.8185 196.301 64.6807 197.047 64.6614C197.88 64.6188 198.788 64.738 199.655 64.6103C201.308 64.336 202.83 63.5244 203.995 62.2961C204.695 61.5185 205.087 60.5024 205.094 59.4459L205.644 59.9989C207.252 63.2831 208.443 66.4141 207.877 70.2087C207.589 71.9474 207.044 73.6314 206.261 75.203C205.701 75.8216 205.278 76.5556 205.02 77.3556L205.003 77.3896ZM208.377 75.3987C209.876 74.2756 211.709 73.7821 213.375 73.0334C213.914 72.7842 214.437 72.5 214.941 72.1826C212 75.2966 208.91 78.1383 206.561 81.6692C206.394 79.0657 206.002 77.1684 208.393 75.3647L208.377 75.3987ZM214.591 70.6852C212.625 72.038 210.176 72.4294 208.152 73.6801C208.411 73.0005 208.625 72.3041 208.793 71.5955C209.618 68.1983 209.191 64.6101 207.594 61.5134C208.756 62.1298 209.965 62.6505 211.209 63.0704C211.231 63.1047 211.263 63.1314 211.301 63.1469C212.7 63.7935 214.316 64.3806 215.366 65.5718C216.899 67.2564 216.44 69.3749 214.608 70.6171L214.591 70.6852ZM209.951 61.3772C208.648 60.8838 207.44 60.1578 206.386 59.2332C205.511 58.3823 204.936 57.3699 203.82 56.8253C201.037 55.6498 198.074 54.9818 195.065 54.8514C194.765 54.8514 194.44 54.8514 194.107 54.8514C196.331 53.9411 198.272 54.6387 200.588 54.9025C201.023 54.9451 201.461 54.9451 201.896 54.9025C201.947 54.9897 202.027 55.056 202.121 55.0901C202.215 55.1242 202.318 55.1241 202.412 55.0897C205.744 53.8815 208.918 56.0851 211.95 57.3614C215.207 58.7397 217.148 60.6966 217.981 64.2445C218.206 65.1889 218.398 66.1503 218.54 67.1117C218.124 66.1938 217.515 65.3805 216.757 64.7294C214.841 62.9597 212.275 62.3131 209.968 61.3432L209.951 61.3772ZM187.076 86.0509C187.805 87.4877 188.82 88.7533 190.055 89.7671C191.29 90.7808 192.718 91.5204 194.248 91.9386C196.467 92.4989 198.766 92.6516 201.038 92.3895C200.782 92.6944 200.503 92.9789 200.205 93.2404C199.515 93.8653 198.691 94.3145 197.799 94.5511C196.907 94.7877 195.973 94.8051 195.073 94.6017L193.915 94.3379C193.14 94.1252 192.366 93.8445 191.591 93.5552C191.537 93.5334 191.479 93.5267 191.422 93.5356C191.365 93.5446 191.311 93.569 191.266 93.6062C190.375 93.2946 189.545 92.822 188.817 92.2109C187.933 90.2495 187.351 88.1601 187.093 86.0169L187.076 86.0509ZM202.729 92.2534C204.536 89.701 205.319 86.655 206.794 83.9409C208.46 80.7759 211.026 78.2149 213.516 75.6965C215.182 73.9949 217.915 72.0039 218.698 69.6472V69.5791C218.712 70.9183 218.503 72.2503 218.081 73.5184C217.125 75.9846 216.683 78.6273 216.782 81.2779C216.927 82.7534 216.871 84.2423 216.615 85.7021C216.084 87.4738 215.19 89.1096 213.991 90.5007C213.951 90.5006 213.911 90.5126 213.877 90.5353C213.843 90.558 213.816 90.5903 213.8 90.6284C213.718 90.8102 213.621 90.9839 213.508 91.1474C213.44 91.2346 213.376 91.3255 213.316 91.4196C212.159 92.9171 209.859 94.0657 208.318 94.6442C206.253 95.3776 204.072 95.7067 201.887 95.6142C200.987 95.5844 200.089 95.5078 199.197 95.3844C200.621 94.65 201.841 93.5616 202.745 92.2194L202.729 92.2534ZM180.853 93.2574C179.062 90.1179 175.905 88.195 174.006 85.1576C172.106 82.1202 172.081 78.3 171.79 74.7691C171.686 73.2937 171.486 71.827 171.19 70.3789C171.015 69.5281 170.807 68.7453 170.615 67.9285C170.49 67.401 170.216 66.5842 170.049 65.81C170.095 64.9255 170.226 64.0478 170.44 63.1895C170.974 62.6705 171.623 63.5893 172.106 64.3551C172.608 65.2492 173.005 66.2 173.289 67.1883C173.814 68.8899 174.122 70.5916 174.481 72.3613C175.988 79.4571 179.479 85.1236 184.26 90.4412L186.668 93.0872C186.826 93.3254 186.984 93.5552 187.151 93.7849C187.222 93.8786 187.327 93.9398 187.443 93.955C188.958 95.6088 190.368 97.3594 191.666 99.1961C191.893 100.239 192.456 101.174 193.265 101.851C194.098 103.748 194.207 106.003 194.815 107.977C191.283 106.539 187.443 105.62 185.127 102.276C183.211 99.5449 182.519 96.1417 180.87 93.2234L180.853 93.2574ZM194.298 101.247C194.105 100.795 193.877 100.359 193.615 99.9448C192.46 98.1954 191.206 96.5164 189.858 94.9165C189.894 94.8716 189.916 94.8178 189.923 94.7608C189.931 94.7038 189.923 94.6458 189.9 94.5932C189.833 94.457 189.775 94.3124 189.708 94.1677C190.931 94.7475 192.217 95.1732 193.54 95.4355L194.373 95.6397C194.726 95.7489 195.085 95.8342 195.448 95.8949C197.81 96.4887 200.23 96.8055 202.662 96.8393C205.297 96.8759 207.905 96.2937 210.284 95.1377C210.592 94.9846 210.926 94.8059 211.267 94.6017C210.337 96.1212 209.266 97.5458 208.068 98.8558C206.276 100.625 204.002 101.799 201.545 102.226C199.088 102.653 196.562 102.311 194.298 101.247ZM202.362 103.289C204.658 102.79 206.782 101.677 208.518 100.064C208.685 99.9108 208.843 99.7491 209.001 99.579C212.7 101.834 217.915 101.706 221.972 100.83C226.785 99.7987 231.129 97.169 234.326 93.351C237.421 89.5427 239.279 84.8441 239.64 79.908C239.69 79.2699 239.707 78.6318 239.699 78.0022C241.223 80.2399 242.914 82.3329 244.064 84.8853C245.531 88.0868 246.339 91.5618 246.438 95.0952C246.576 98.6253 245.848 102.135 244.322 105.305C242.306 109.295 239.024 110.716 235.075 112.112C231.974 113.2 228.999 114.632 226.203 116.383C224.682 117.415 222.963 118.105 221.16 118.406C219.358 118.707 217.513 118.611 215.749 118.127C212.177 117.274 208.701 116.045 205.378 114.46C202.654 113.192 198.713 111.618 196.648 109.159C195.64 107.202 195.465 104.905 194.857 102.77C197.262 103.655 199.864 103.829 202.362 103.272V103.289ZM223.946 24.8005C225.52 26.9956 225.912 29.7778 227.003 32.2027C227.541 33.3971 228.307 34.4695 229.257 35.3565C230.207 36.2435 231.322 36.9271 232.535 37.3671C235.558 38.6008 238.957 39.0688 241.281 41.6212C243.78 44.3183 244.497 48.0024 244.397 51.5928C244.279 55.0015 243.655 58.3721 242.548 61.5899C241.465 64.5261 240.068 67.331 238.382 69.9535C238.238 69.2483 238.166 68.5298 238.166 67.8094C238.26 66.4776 238.246 65.14 238.124 63.8106C237.557 60.9428 236.478 58.2059 234.942 55.7363C234.592 55.1067 234.226 54.409 233.809 53.7199C233.577 52.9498 233.117 52.2721 232.493 51.78C231.798 50.8523 230.867 50.1372 229.802 49.7125C229.317 49.3989 228.796 49.1448 228.253 48.9553C227.972 47.1092 227.12 45.4035 225.82 44.0886C223.824 42.1994 221.624 40.5469 219.264 39.1623C216.249 36.019 212.426 33.8099 208.235 32.7897C203.551 31.8674 198.753 31.7209 194.024 32.3558C191.952 32.6119 189.922 33.141 187.984 33.9298C188.934 32.2282 189.733 30.5265 190.833 28.9185C192.724 26.2299 195.356 24.9367 198.439 24.1879C200.938 23.5839 203.437 23.3371 205.861 22.6054C207.219 22.6054 208.477 21.8737 209.768 21.4823C211.387 20.9646 213.069 20.6783 214.766 20.6315C218.181 20.5975 221.855 21.8907 223.946 24.7835V24.8005ZM185.177 2.55163C188.984 0.552212 193.332 1.49662 196.839 3.60665C198.505 4.58509 200.005 5.7422 201.712 6.58451C203.42 7.42682 205.194 7.51191 207.002 8.05643C210.676 9.171 214.175 15.1437 213.8 19.1766C211.534 19.3213 208.26 19.7807 206.302 21.2356L205.769 21.4058C204.52 21.7624 203.252 22.0465 201.971 22.2566C198.639 21.6695 196.139 17.9429 193.69 15.8244C191.13 13.5353 188.242 11.6589 185.127 10.26C183.043 9.35046 180.835 8.77643 178.579 8.55841C180.92 6.80572 182.494 3.94698 185.177 2.55163ZM163.676 18.1812C167.991 10.9918 175.714 8.49035 183.427 11.2725C187.593 12.7785 191.183 15.5266 194.407 18.564C195.998 20.053 197.497 21.8312 199.405 22.8181C198.435 23.0069 197.476 23.2483 196.531 23.5413C194.006 24.2568 191.772 25.7807 190.158 27.889C188.581 29.9543 187.315 32.2485 186.401 34.6956C184.875 35.4537 183.431 36.3749 182.095 37.4437C180.393 38.8495 178.873 40.4705 177.571 42.2678C175.522 44.9905 173.573 45.7307 170.299 45.8498C166.209 46.0029 162.085 47.0409 159.203 50.2315C158.269 51.2549 157.548 52.4613 157.085 53.7775C156.621 55.0937 156.423 56.4924 156.504 57.8889C152.639 51.6438 148.307 44.4289 150.564 36.8481C151.881 32.4494 154.938 30.3309 158.195 27.4891C161.094 24.9792 161.769 21.3462 163.676 18.1642V18.1812ZM130.13 64.6103C128.46 61.3909 127.168 57.9809 126.281 54.4516C125.84 52.6308 125.448 50.5633 126.281 48.7851C127.115 47.0069 128.989 45.9093 130.705 45.05C133.421 43.6972 136.028 42.4976 137.794 39.8941C139.56 37.2906 139.827 34.1851 140.293 31.1306C140.926 27.2424 142.601 23.7285 145.816 21.3888C148.484 19.4683 151.727 18.565 154.979 18.8363C157.17 19.0065 159.228 19.6871 161.352 19.4063C160.369 21.6355 159.503 23.9667 157.837 25.6258C155.446 28.0081 152.622 29.48 150.781 32.4324C149.249 34.9001 148.421 37.7551 148.39 40.6768C148.34 47.3642 151.897 55.3875 156.787 59.8202H156.845C156.845 59.8713 156.845 59.9223 156.845 59.9734C157.028 60.5137 157.271 61.0305 157.57 61.5134C150.681 58.7652 142.984 60.9688 137.144 65.4271C135.442 66.6832 133.883 68.1301 132.496 69.7408C132.196 67.9455 131.038 66.363 130.13 64.5933V64.6103ZM162.01 130.693C158.153 131.246 153.68 130.259 151.939 126.295C150.548 123.07 150.331 120.279 147.39 118.042C145.783 116.904 144.527 115.322 143.767 113.481C143.273 112.131 142.436 110.939 141.343 110.027C138.169 107.704 133.221 108.427 133.196 103.178C133.196 99.63 134.029 96.2012 133.745 92.6193C133.212 85.081 128.347 77.0408 134.212 70.498C140.343 63.6489 150.04 59.7521 158.786 63.3937C158.882 63.4178 158.982 63.4178 159.078 63.3937C159.411 63.751 159.753 64.0828 160.111 64.4146C162.21 66.363 163.976 68.0306 164.809 70.8724C163.834 70.473 162.777 70.3315 161.734 70.4609C160.691 70.5903 159.697 70.9864 158.845 71.6126C155.887 73.6375 154.721 77.262 153.013 80.2654C151.306 83.2688 147.599 85.0215 147.182 88.5268C146.807 91.7174 148.848 94.7633 149.831 97.6816C150.931 101.085 150.914 104.709 152.114 108.019C152.663 109.517 153.524 110.875 154.637 112C155.75 113.126 157.089 113.991 158.561 114.536C160.227 115.2 162.068 115.591 163.56 116.68C165.243 118.058 166.561 119.845 167.392 121.879C168.516 124.253 169.641 126.363 171.64 127.835C168.416 128.643 165.392 130.174 162.01 130.676V130.693ZM186.651 125.92C184.519 126.831 182.211 127.256 180.104 128.183C177.205 128.422 174.064 127.937 171.857 125.946C169.457 123.776 168.791 120.305 166.858 117.744C165.315 115.741 163.189 114.29 160.786 113.6C156.937 112.282 154.121 110.197 153.18 105.943C152.489 102.897 152.247 99.8512 151.239 96.8649C150.406 94.3634 148.273 91.3005 148.782 88.5609C149.215 86.2211 151.447 85.0385 152.838 83.3368C153.86 81.9876 154.732 80.5266 155.438 78.9807C157.212 75.3902 160.394 69.8258 165.101 72.6931L165.226 72.7527C165.875 77.0067 164.834 81.3629 165.409 85.6681C166.084 90.773 169.632 94.423 173.339 97.52C174.361 98.5244 175.531 99.3598 176.805 99.9959C175.639 105.007 175.18 110.206 179.304 113.958C181.97 116.357 185.135 118.314 188.017 120.416L192.183 123.47C190.383 123.963 188.359 125.214 186.651 125.92ZM259.525 89.9137C259.9 92.398 261.282 94.5847 261.724 97.052C262.161 100.12 261.549 103.248 259.991 105.909C257.001 111.371 250.828 116.17 245.088 118.348C242.548 119.326 239.624 119.199 237.249 120.594C234.875 121.99 233.359 124.168 230.494 124.746C226.412 125.597 222.013 124.431 218.131 126.329C215.774 127.486 214.408 129.851 212.242 131.255C209.61 132.957 206.777 131.808 204.361 130.285C198.055 126.32 192.158 121.488 186.126 117.097C183.219 114.987 179.187 112.937 177.913 109.304C176.905 106.428 177.438 103.246 177.913 100.311H178.246C179.712 100.243 180.803 99.1876 181.67 98.0475C182.327 99.7292 183.148 101.34 184.119 102.855C186.618 106.522 191.041 107.96 195.148 108.938C195.446 109.631 195.873 110.258 196.406 110.784C196.454 110.832 196.511 110.869 196.573 110.895C197.731 112.058 199.068 113.021 200.529 113.745C203.364 115.363 206.326 116.734 209.385 117.846C212.326 119.03 215.407 119.816 218.548 120.186C221.445 120.401 224.328 119.61 226.728 117.94C229.586 116.113 232.634 114.618 235.817 113.481C238.557 112.511 241.34 111.524 243.397 109.338C247.362 105.084 248.445 98.3453 247.804 92.7214C247.582 90.8308 247.169 88.9689 246.571 87.1655C248.079 87.4888 249.903 86.8337 251.236 86.1445C253.768 84.8233 255.71 82.5654 256.667 79.8315C258.892 73.4333 254.352 67.4776 254.277 61.1135C254.277 58.1781 254.935 55.3619 254.935 52.4777C258.45 55.6342 263.615 56.7318 266.281 61.105C267.755 63.4959 268.519 66.2719 268.48 69.0971C268.442 71.9223 267.603 74.6756 266.064 77.0238C263.34 81.0141 258.692 84.4939 259.525 89.9137Z" fill="#312624" fill-opacity="0.6"/>
<path d="M121.961 185.417C120.878 185.417 119.795 185.417 118.721 185.51C119.321 184.311 119.021 182.413 118.721 181.256C118.47 180.061 118.078 178.901 117.555 177.802C119.696 178.079 121.805 178.569 123.852 179.265C125.643 179.75 127.143 179.367 127.451 177.257C127.876 174.365 126.726 170.383 125.41 167.847C124.152 165.479 122.164 163.6 119.754 162.504C115.805 160.641 109.974 160.454 106.034 162.947C106.217 162.436 106.392 161.917 106.55 161.415C107.513 158.725 108.075 155.903 108.216 153.043C108.216 150.167 107.033 147.589 105.642 145.147C103.293 140.995 99.2613 138.035 94.5963 140.408C93.1885 141.115 91.9806 142.161 90.6061 142.961C89.09 143.812 87.3573 144.109 85.8578 144.969C85.1971 145.294 84.6183 145.77 84.1663 146.36C83.7142 146.95 83.4009 147.639 83.2504 148.372C83.0379 148.291 82.821 148.223 82.6007 148.168C79.7355 147.529 76.74 148.008 74.2037 149.512C73.8724 149.714 73.5551 149.938 73.2541 150.184C73.7705 148.636 73.7705 146.994 72.2211 145.93C71.3695 145.45 70.4369 145.138 69.4721 145.011C68.4617 144.823 67.4987 144.429 66.6401 143.853C65.7815 143.277 65.0449 142.531 64.4739 141.659C62.8995 139.268 61.5667 137.192 58.6427 136.495C56.9184 136.086 55.2356 136.495 53.4946 136.495C51.5203 136.495 49.8626 135.584 48.0716 134.793C45.0783 133.581 41.7664 133.467 38.7 134.47C32.7688 136.171 31.8108 142.204 33.2186 147.632C27.3874 143.114 15.1086 144.024 14.6254 152.235C14.5193 152.873 14.6547 153.529 15.0043 154.069C15.3538 154.61 15.8914 154.994 16.5081 155.145C17.5043 155.314 18.5141 155.385 19.5236 155.357C21.2079 155.447 22.8396 155.986 24.2552 156.923C26.7543 158.778 26.8543 162.087 28.4954 164.58C29.057 165.472 29.8385 166.196 30.7612 166.682C31.9608 167.26 34.0267 167.201 34.8264 168.383C34.0674 169.139 33.4142 169.998 32.8854 170.936L32.6855 171.336C31.336 169.302 28.5204 168.987 26.2129 168.247C24.1483 167.482 22.2311 166.353 20.5483 164.912C19.2487 163.899 17.7993 162.411 16.2248 161.866C13.9423 161.075 13.0177 163.389 12.5928 165.516C11.9206 164.797 11.1279 164.206 10.252 163.772C8.12736 162.543 5.87179 161.566 3.52945 160.862C0.0557192 160.011 -0.49408 164.061 0.34728 166.554C2.01334 171.37 5.39544 175.232 6.88656 180.167C7.87787 183.426 9.90213 187.144 13.3675 188.088C13.7582 189.596 14.3795 191.032 15.2085 192.342C15.3655 193.404 15.3851 194.483 15.2668 195.55C14.9574 197.176 14.4157 198.747 13.6591 200.212C12.7594 202.263 11.993 204.577 12.7678 206.798C13.4925 208.857 15.3252 209.844 17.3911 209.963C20.2817 210.133 22.9807 209.112 25.9046 209.674C30.6862 210.609 34.8431 213.528 39.5913 214.634C41.2574 215.025 47.5468 215.663 49.4044 213.706C49.7293 214.089 50.0958 214.464 50.479 214.838C51.8162 216.09 52.942 217.559 53.8111 219.186C54.3957 220.463 55.2729 221.578 56.3685 222.436C57.1594 222.972 58.0935 223.246 59.0426 223.219C61.475 231.403 60.9086 240.516 61.7916 249.007C61.3334 256.06 60.7253 263.113 60.1838 270.158C60.0422 272.073 59.9006 273.978 59.7673 275.893C59.709 274.591 59.609 273.298 59.4508 272.013C58.8701 267.721 57.7501 263.523 56.1186 259.523C54.5242 255.612 52.6648 251.82 50.554 248.173C48.3881 244.361 46.2139 240.38 43.3483 237.061C43.2751 236.964 43.1729 236.893 43.057 236.859C42.9411 236.826 42.8177 236.831 42.7053 236.876C42.5928 236.92 42.4973 237 42.433 237.104C42.3688 237.208 42.3392 237.33 42.3487 237.453C42.4653 241.817 42.307 246.267 42.9401 250.589C43.5565 254.741 45.3142 258.4 47.1802 262.092C49.1436 265.973 51.3704 269.709 53.8445 273.272C55.4006 275.492 56.6455 277.924 57.5431 280.496C58.0013 283.712 58.3762 286.953 58.7677 290.212C58.2123 299.565 57.7542 308.924 57.3932 318.289C56.177 350.342 56.177 382.412 57.3932 414.5C58.0929 432.718 59.3536 450.895 61.1751 469.029C61.1974 469.154 61.2653 469.265 61.3651 469.341C61.4649 469.417 61.5893 469.452 61.713 469.438C61.8367 469.424 61.9506 469.362 62.0317 469.266C62.1128 469.169 62.155 469.045 62.1498 468.918C60.1838 436.842 58.8177 404.698 58.6261 372.554C58.5317 352.367 58.9176 332.189 59.784 312.018C59.9589 311.168 60.1505 310.317 60.3588 309.466C61.0569 308.431 61.8987 307.505 62.8579 306.718C64.3407 305.51 65.9484 304.54 67.3479 303.213C70.1742 300.412 72.5174 297.144 74.2787 293.547C76.2863 289.633 77.8274 285.507 79.5518 281.466C81.5456 276.928 83.9056 272.568 86.6075 268.431C86.6948 268.318 86.7358 268.176 86.7219 268.033C86.7079 267.89 86.64 267.758 86.5326 267.665C85.3163 266.857 83.6336 268.048 82.4924 268.601C80.5322 269.545 78.6682 270.685 76.9277 272.004C73.1379 274.956 69.8914 278.571 67.3396 282.682C64.4915 287.113 62.2073 291.896 60.542 296.916C60.9363 289.787 61.3862 282.657 61.8915 275.527C62.5413 266.398 63.3577 257.277 63.9075 248.139C64.0158 246.352 64.1157 244.549 64.2074 242.753C64.6155 239.801 64.8655 236.798 65.3153 233.888C65.6069 231.956 65.965 230.034 66.4149 228.145C66.8147 226.443 67.123 223.891 68.0809 222.283C70.7966 223.006 73.5456 224.614 75.9947 225.405C79.3269 226.486 82.8922 227.405 86.3576 226.452C89.2747 225.548 91.8097 223.67 93.555 221.117C94.5724 219.683 95.4118 218.125 96.0541 216.48C96.8871 214.498 97.5702 211.843 99.5945 210.856C101.792 211.577 104.132 211.726 106.4 211.29C112.298 209.844 115.564 203.565 120.562 200.723C121.528 200.951 122.536 200.919 123.486 200.629C125.718 199.966 127.318 198.196 128.584 196.29C129.684 194.64 130.958 192.7 130.991 190.632C131.066 186.106 125.327 185.476 121.961 185.417ZM55.8771 267.597C54.4776 263.522 52.4616 259.719 50.6373 255.83C48.7463 251.806 47.0969 247.663 45.056 243.706C45.0181 243.64 44.9583 243.59 44.8873 243.564C44.8164 243.539 44.7389 243.54 44.6687 243.568C44.5985 243.595 44.5403 243.647 44.5044 243.715C44.4685 243.782 44.4574 243.861 44.4729 243.936C46.7804 252.002 51.3704 259.055 54.2943 266.857C55.4114 269.917 56.2616 273.071 56.835 276.284C54.5359 271.834 51.3121 267.776 48.9796 263.241C46.872 259.166 44.6895 255.099 43.9814 250.479C43.5298 246.674 43.3405 242.842 43.4149 239.01C45.5098 241.936 47.4052 245.007 49.0879 248.199C51.3627 252.105 53.3588 256.174 55.0607 260.374C56.716 264.574 57.8033 268.985 58.2928 273.485C58.4594 275.096 58.5428 276.715 58.5428 278.335C57.9572 274.684 57.0654 271.092 55.8771 267.597ZM66.7564 285.694C68.9226 281.769 71.6708 278.21 74.9035 275.144C76.3804 273.762 77.975 272.518 79.6684 271.426C80.6839 270.767 81.7383 270.173 82.8256 269.648C83.6029 269.204 84.4169 268.831 85.258 268.533C82.9072 272.154 80.8163 275.945 79.002 279.875C77.036 284.265 75.3783 288.808 73.1708 293.079C71.0926 297.351 68.1276 301.108 64.4823 304.089C63.2094 305.037 62.0218 306.099 60.9336 307.262C61.9949 303.323 63.4434 299.503 65.257 295.861C68.7057 289.004 73.4623 283.227 77.969 277.143C78.2023 276.829 77.7941 276.293 77.4775 276.607C71.8629 281.772 67.4145 288.468 64.0158 295.325C62.4394 298.473 61.1295 301.752 60.1005 305.127C60.1422 304.276 60.1838 303.468 60.2338 302.642C61.5518 296.687 63.7513 290.972 66.7564 285.694ZM117.38 184.957C117.146 185.357 117.03 185.459 116.938 185.629L115.272 185.723C113.635 185.758 111.998 185.641 110.382 185.374C108.241 184.617 105.692 184.659 103.51 184.523C97.8868 184.251 92.2638 184.285 86.6492 184.583C84.1501 184.71 81.1345 184.583 78.4022 185.17C80.2818 183.528 82.3938 182.185 84.6666 181.188C87.7321 179.852 90.9726 179.019 94.1131 177.878C95.7583 177.874 97.3893 178.189 98.9197 178.806C100.492 179.55 102.108 180.192 103.76 180.729C107 181.579 109.807 180.541 112.623 178.95C113.694 178.328 114.88 177.939 116.105 177.81C116.308 178.271 116.478 178.746 116.613 179.231C116.963 180.148 117.257 181.086 117.496 182.039C117.687 182.505 117.775 183.007 117.755 183.511C117.735 184.015 117.607 184.509 117.38 184.957ZM90.6311 161.441C90.3562 160.939 89.3982 161.075 89.5815 161.755C90.4145 164.989 84.4833 164.699 82.609 165.295C80.4859 166.054 78.4802 167.12 76.6528 168.46C73.9288 170.315 71.9129 171.446 68.6141 170.161C66.8661 169.432 65.0708 168.826 63.241 168.349C61.0502 167.847 57.3515 166.979 55.1273 168.349C56.4052 166.104 58.4676 164.435 60.9002 163.678C66.3982 161.832 71.7296 164.359 77.236 163.789C79.741 163.41 82.1574 162.568 84.3667 161.304C86.0327 160.454 87.8321 159.228 89.7647 160.096C90.5494 160.501 91.2189 161.104 91.7091 161.849C92.1993 162.594 92.4936 163.456 92.5637 164.35C92.9719 167.371 91.3975 170.306 89.8647 172.739C88.4474 175.057 86.8748 177.272 85.1581 179.367C84.5333 179.623 83.9169 179.886 83.3087 180.218C80.3183 181.629 77.6701 183.698 75.5532 186.276C75.1054 186.501 74.6811 186.772 74.287 187.084C73.8039 184.055 70.3551 181.979 67.4229 181.665C64.9238 181.375 62.5163 182.056 60.0755 180.941C58.2505 180.072 56.5652 178.924 55.0774 177.538C54.6688 176.541 54.3888 175.495 54.2443 174.424C54.1634 173.379 54.3055 172.328 54.6608 171.344C55.7355 168.468 59.4591 169.26 61.8999 169.711C65.4402 170.383 69.2805 173.224 72.9625 172.263C74.7952 171.812 76.3529 170.561 77.9107 169.532C80.2593 167.822 82.9768 166.716 85.8328 166.307C88.2403 165.992 92.4971 164.733 90.6311 161.441ZM73.7622 190.258C74.5598 189.409 75.3054 188.511 75.9947 187.569L76.3279 187.22C78.9437 186.25 81.9009 186.327 84.7166 186.182C88.8817 185.97 93.0469 185.927 97.212 185.987C100.874 185.925 104.536 186.107 108.175 186.531C108.383 186.531 108.591 186.599 108.799 186.642C109.234 186.819 109.683 186.955 110.141 187.05C110.711 187.261 111.235 187.587 111.678 188.01C112.122 188.432 112.478 188.942 112.723 189.509C113.773 191.959 112.298 194.027 110.466 195.465C107.133 198.162 103.426 199.234 99.4112 200.332C96.0791 201.25 93.9382 203.446 91.1892 205.436C88.0124 207.736 84.2506 209.046 80.3598 209.206C76.7445 209.35 73.1541 208.312 69.647 207.555C66.898 206.951 64.3073 205.853 65.2486 202.45C65.8484 200.315 67.5395 198.477 68.7974 196.716C69.2139 196.128 69.6304 195.55 70.0386 194.963C71.6189 193.709 72.8935 192.099 73.7622 190.258ZM112.615 162.657C115.091 162.55 117.551 163.105 119.754 164.265C122.886 165.967 124.544 168.902 125.335 172.374C125.585 173.463 126.293 175.7 125.952 176.789C125.343 178.755 122.403 177.104 121.312 176.789C119.259 176.056 117.055 175.874 114.914 176.262C112.248 176.908 110.266 179.001 107.483 179.41C104.276 179.886 100.819 177.444 97.5369 176.526C100.902 174.904 104.1 172.943 107.083 170.672C108.924 169.294 110.774 167.89 113.148 167.754C115.364 167.626 117.388 168.647 119.571 168.707C119.987 168.707 120.304 168.154 119.895 167.856C118.347 166.812 116.56 166.196 114.709 166.066C112.858 165.936 111.006 166.298 109.333 167.116C107.483 168.239 105.705 169.481 104.01 170.834C102.952 171.574 101.869 172.263 100.761 172.918C100.821 172.825 100.877 172.728 100.927 172.629C102.708 170.294 104.16 167.717 105.242 164.971C107.472 163.605 109.994 162.811 112.59 162.657H112.615ZM89.7897 145.215C91.7807 144.365 93.3634 142.944 95.2544 141.948C100.669 139.081 104.551 145.079 106.084 149.682C107.558 154.004 105.884 159.152 104.276 163.295C104.734 161.646 104.782 159.906 104.418 158.233C102.652 151.546 94.3631 154.141 89.7564 151.945C87.8238 151.027 86.1327 149.623 84.1918 148.738C85.3247 146.551 87.6488 146.092 89.7647 145.215H89.7897ZM72.9292 152.958C73.9696 151.766 75.2788 150.851 76.7433 150.292C78.2079 149.733 79.7837 149.547 81.3345 149.75C83.8335 150.048 85.8162 151.801 87.9237 153C89.8513 154.067 91.9899 154.675 94.1798 154.779C96.7538 154.974 100.103 154.855 101.919 157.11C104.118 159.824 102.202 164.58 101.344 167.507C100.907 168.968 100.39 170.402 99.7944 171.804C99.2946 172.654 98.7948 173.446 98.3033 174.279C97.8201 174.535 97.3286 174.781 96.8372 175.02C93.7618 176.319 90.6226 177.455 87.4322 178.423C91.3058 174.399 95.3627 168.877 94.1798 163.261C93.9401 161.942 93.314 160.728 92.3844 159.78C91.4548 158.832 90.2653 158.195 88.9733 157.952C85.4746 157.467 82.1425 160.734 78.8604 161.602C75.2617 162.555 71.5963 161.458 67.956 161.185C70.0052 158.88 70.9882 155.289 72.9292 152.958ZM37.9419 136.341C40.0239 135.481 42.2804 135.154 44.5145 135.389C46.1852 135.759 47.807 136.33 49.3461 137.09C50.6117 137.646 51.9679 137.955 53.3447 138.001C55.3273 138.001 57.2682 137.465 59.1759 138.256C62.2747 139.524 63.0245 143.233 65.7401 145.062C66.7343 145.689 67.8282 146.132 68.9723 146.373C69.6828 146.432 70.3783 146.613 71.0299 146.909C72.8209 148.117 72.1461 149.546 71.5214 150.899C69.8553 154.438 67.3062 157.586 65.8401 161.219C65.0271 161.231 64.2152 161.285 63.4077 161.381C60.5504 157.416 66.5482 152.873 64.0991 148.619C61.9832 144.935 55.6022 146.151 52.3534 144.186C50.2541 142.918 48.813 140.783 46.7054 139.532C44.9627 138.554 43.0329 137.973 41.0491 137.83C39.2581 137.652 37.1672 137.533 35.7344 138.851C34.3016 140.17 34.2016 142.127 34.1683 143.956C34.1661 144.043 34.1956 144.127 34.2509 144.193C34.3063 144.259 34.3837 144.301 34.4679 144.312C34.5521 144.322 34.6372 144.3 34.7065 144.25C34.7759 144.2 34.8246 144.126 34.8431 144.041C35.0596 143.037 35.3595 141.353 36.1093 140.587C37.3421 139.328 38.9249 139.387 40.5077 139.524C42.6592 139.615 44.7462 140.3 46.5471 141.506C48.0882 142.621 49.2711 144.169 50.8206 145.275C52.2045 146.204 53.7568 146.841 55.3856 147.147C57.1599 147.547 59.6757 147.462 61.2168 148.406C64.224 150.218 62.6246 153.205 61.7416 155.715C61.0752 157.578 60.7919 160.173 62.2497 161.568C60.6325 161.851 59.0779 162.427 57.6597 163.27C55.7089 164.484 54.1948 166.31 53.3435 168.475C52.4922 170.64 52.3494 173.029 52.9365 175.283C50.0708 172.314 47.1552 168.324 43.3816 166.554C42.2487 165.269 42.4403 162.827 42.0821 161.279C41.7254 159.764 41.1409 158.314 40.3494 156.982C38.3085 153.519 35.4678 150.899 34.5182 146.772C33.6435 142.91 33.8601 138.086 37.9419 136.341ZM34.4349 166.265C33.302 165.712 31.8858 165.737 30.8279 165.014C29.8636 164.187 29.1523 163.094 28.7786 161.866C27.2375 158.114 25.9713 155.289 21.7978 154.209C19.9985 153.758 16.4997 154.472 16.0166 152.039C15.8083 150.967 17.1412 149.282 17.8242 148.636C19.0421 147.612 20.496 146.924 22.0477 146.636C24.1543 146.109 26.3572 146.135 28.4515 146.71C30.5459 147.286 32.4638 148.393 34.0267 149.929C35.5761 153.29 38.3501 155.774 39.8579 159.211C40.6909 161.16 40.566 163.831 41.4157 165.831C40.4415 165.69 39.4494 165.753 38.4999 166.016C37.5504 166.279 36.6633 166.737 35.8927 167.362C35.5279 166.856 35.0273 166.469 34.4515 166.248L34.4349 166.265ZM33.5519 173.871C34.1804 171.948 35.3371 170.25 36.884 168.979C39.5164 167.005 42.1321 167.805 44.4729 169.685C49.9459 174.084 54.3443 182.15 61.7416 183.485C63.5326 183.809 65.3319 183.383 67.1313 183.604C70.1802 183.987 73.3957 186.404 71.6713 189.79C71.5963 189.935 71.513 190.079 71.4297 190.224C70.7716 190.998 70.1635 191.84 69.5804 192.683C67.3645 195.014 64.3407 196.699 61.6083 198.068C56.7239 200.517 51.5106 202.212 46.1389 203.097C42.5819 203.684 38.9332 203.684 35.3096 204.058C35.2726 204.013 35.2267 203.977 35.175 203.953C35.1232 203.928 35.0669 203.914 35.0097 203.913C33.4269 203.913 30.0115 204.849 28.7869 203.913C26.7377 202.399 28.8452 199.106 29.62 197.464C31.2107 193.928 32.0618 190.091 32.119 186.199C32.3523 182.056 32.1107 177.793 33.5685 173.854L33.5519 173.871ZM8.61927 180.771C7.88794 178.468 6.98852 176.224 5.92858 174.058C7.75459 175.588 9.42871 177.298 10.9268 179.163C12.5345 181.401 12.8344 183.485 13.0593 186.123C11.0517 184.838 9.51894 183.426 8.61927 180.771ZM14.6254 185.025C14.3505 181.197 12.5678 178.423 9.87714 175.828C7.02818 173.08 4.16255 170.783 2.29657 167.456C2.06612 166.96 1.8631 166.452 1.68846 165.933C0.905411 164.384 1.53296 163.25 3.5711 162.53L4.40413 162.878C7.27447 163.68 9.96121 165.053 12.3096 166.92C12.3096 167.218 12.2429 167.49 12.218 167.728C11.7765 171.855 12.218 176.126 14.2672 179.742C14.4838 180.125 15.1586 180.022 15.1002 179.512C14.4355 176.665 13.9953 173.769 13.7841 170.851C13.7257 169.067 13.8514 167.282 14.1589 165.525C14.717 162.428 17.3328 164.197 18.8072 165.346C20.6572 166.954 22.7251 168.281 24.9467 169.285C27.4457 170.238 30.3197 170.298 32.144 172.323C30.3614 176.458 30.478 181.095 30.3614 185.561C30.3562 188.626 29.861 191.67 28.8952 194.571C28.1705 196.579 26.7543 198.672 26.3961 200.859C24.9883 199.438 23.0057 198.417 21.5396 197.235C17.7993 194.197 14.9753 189.943 14.6171 185.008L14.6254 185.025ZM41.5406 213.579C39.4173 213.255 37.3465 212.64 35.3845 211.75C31.9524 210.32 28.537 208.508 24.7967 208.082C22.7475 207.844 20.8648 208.304 18.8322 208.499C16.7996 208.695 14.6671 208.244 13.9673 205.947C13.5092 204.441 14.0423 202.824 14.6254 201.429C15.5584 199.166 16.5997 196.826 16.6663 194.486C17.3297 195.324 18.036 196.125 18.7822 196.886C20.0339 198.116 21.3979 199.222 22.8558 200.187C24.1719 201.106 25.3548 202.161 26.5627 203.19C27.3208 206.075 30.328 206.083 33.0437 205.479C38.3918 205.334 43.7648 205.411 49.0462 204.33C49.4877 204.245 49.9376 204.135 50.3791 204.033C49.2564 205.152 48.4012 206.52 47.88 208.031C47.6394 208.777 47.5677 209.569 47.6702 210.347C47.7726 211.125 48.0466 211.869 48.4714 212.524C46.8054 213.902 43.3566 213.766 41.5406 213.562V213.579ZM95.6876 213.324C94.1215 216.455 93.0302 219.645 90.4395 222.121C84.4333 227.881 76.3863 223.874 69.9053 221.211C67.6025 220.161 65.0076 219.989 62.5913 220.726C61.0585 221.16 59.2592 221.951 57.6931 221.245C55.9854 220.47 55.2939 218.301 54.361 216.795C52.8782 214.345 48.763 212.32 49.2628 209.137C49.5544 207.291 50.9289 205.734 52.2201 204.432C52.7977 203.89 53.4417 203.427 54.136 203.054C57.0331 202.172 59.8553 201.051 62.5746 199.702C61.4758 200.826 60.4438 202.017 59.4841 203.267C57.4348 205.904 55.7438 208.857 55.4772 212.26C55.4496 212.373 55.467 212.492 55.5256 212.592C55.5842 212.692 55.6791 212.764 55.7896 212.792C55.9001 212.82 56.017 212.802 56.1146 212.742C56.2123 212.683 56.2826 212.586 56.3102 212.473C57.4627 209.41 59.0363 206.531 60.9835 203.922C62.0675 202.636 63.2394 201.431 64.4906 200.315C63.441 202.271 62.9162 204.398 64.1074 206.466C64.8488 207.589 65.9803 208.383 67.2729 208.687C69.5388 209.384 71.9712 209.767 74.287 210.235C78.5379 211.213 82.9714 210.963 87.0907 209.512C87.3406 209.418 87.5905 209.308 87.8404 209.197C89.04 209.197 90.2479 209.01 91.4641 209.078C93.4457 209.243 95.4023 209.64 97.2953 210.261L97.7868 210.397C96.8971 211.207 96.1822 212.198 95.6876 213.306V213.324ZM116.247 201.854C113.398 204.458 110.357 208.023 106.65 209.333C102.635 210.754 98.5699 208.414 94.6629 207.632C93.5247 207.406 92.3722 207.264 91.2142 207.206C94.0632 205.198 96.6456 202.773 100.044 201.863C104.384 200.706 108.55 199.396 112.007 196.307L112.298 196.035C115.106 195.856 116.555 198.485 118.713 199.94C117.834 200.498 117.008 201.139 116.247 201.854ZM126.085 196.809C125.38 197.658 124.49 198.325 123.486 198.757C122.61 198.632 121.717 198.702 120.87 198.962C120.15 198.781 119.477 198.444 118.896 197.975C117.296 196.733 115.422 194.767 113.389 194.793C114.151 193.836 114.594 192.655 114.652 191.423C114.711 190.19 114.382 188.971 113.714 187.944C113.59 187.743 113.454 187.549 113.306 187.365C114.447 187.365 115.572 187.365 116.563 187.314C119.304 187.246 129.217 186.029 129.2 190.717C129.192 192.785 127.393 195.278 126.085 196.792V196.809Z" fill="#312624" fill-opacity="0.6"/>
<path d="M38.6188 161.86C35.0035 155.522 28.3559 149.294 20.5671 150.34C20.4809 150.34 20.3983 150.375 20.3373 150.438C20.2764 150.5 20.2422 150.584 20.2422 150.672C20.2422 150.76 20.2764 150.845 20.3373 150.907C20.3983 150.969 20.4809 151.004 20.5671 151.004C24.2074 151.319 27.5812 152.093 30.6634 154.203C33.6465 156.333 36.1933 159.039 38.1607 162.167C38.3023 162.456 38.7771 162.175 38.6188 161.86Z" fill="#312624" fill-opacity="0.6"/>
</svg>
